<?xml version="1.0" encoding="utf-8" standalone="no"?>
<!DOCTYPE svg PUBLIC "-//W3C//DTD SVG 1.1//EN"
  "http://www.w3.org/Graphics/SVG/1.1/DTD/svg11.dtd">
<svg xmlns:xlink="http://www.w3.org/1999/xlink" width="432pt" height="288pt" viewBox="0 0 432 288" xmlns="http://www.w3.org/2000/svg" version="1.1">
 <metadata>
  <rdf:RDF xmlns:dc="http://purl.org/dc/elements/1.1/" xmlns:cc="http://creativecommons.org/ns#" xmlns:rdf="http://www.w3.org/1999/02/22-rdf-syntax-ns#">
   <cc:Work>
    <dc:type rdf:resource="http://purl.org/dc/dcmitype/StillImage"/>
    <dc:date>2025-04-08T18:46:28.678533</dc:date>
    <dc:format>image/svg+xml</dc:format>
    <dc:creator>
     <cc:Agent>
      <dc:title>Matplotlib v3.9.4, https://matplotlib.org/</dc:title>
     </cc:Agent>
    </dc:creator>
   </cc:Work>
  </rdf:RDF>
 </metadata>
 <defs>
  <style type="text/css">*{stroke-linejoin: round; stroke-linecap: butt}</style>
 </defs>
 <g id="figure_1">
  <g id="patch_1">
   <path d="M 0 288 
L 432 288 
L 432 0 
L 0 0 
z
" style="fill: #ffffff"/>
  </g>
  <g id="axes_1">
   <g id="patch_2">
    <path d="M 54.02 246.04 
L 421.2 246.04 
L 421.2 26.88 
L 54.02 26.88 
z
" style="fill: #ffffff"/>
   </g>
   <g id="matplotlib.axis_1">
    <g id="xtick_1">
     <g id="line2d_1">
      <defs>
       <path id="m6fbb4aa107" d="M 0 0 
L 0 3.5 
" style="stroke: #000000; stroke-width: 0.8"/>
      </defs>
      <g>
       <use xlink:href="#m6fbb4aa107" x="145.815" y="246.04" style="stroke: #000000; stroke-width: 0.8"/>
      </g>
     </g>
     <g id="text_1">
      <!-- 0 -->
      <g transform="translate(142.63375 260.638438) scale(0.1 -0.1)">
       <defs>
        <path id="DejaVuSans-30" d="M 2034 4250 
Q 1547 4250 1301 3770 
Q 1056 3291 1056 2328 
Q 1056 1369 1301 889 
Q 1547 409 2034 409 
Q 2525 409 2770 889 
Q 3016 1369 3016 2328 
Q 3016 3291 2770 3770 
Q 2525 4250 2034 4250 
z
M 2034 4750 
Q 2819 4750 3233 4129 
Q 3647 3509 3647 2328 
Q 3647 1150 3233 529 
Q 2819 -91 2034 -91 
Q 1250 -91 836 529 
Q 422 1150 422 2328 
Q 422 3509 836 4129 
Q 1250 4750 2034 4750 
z
" transform="scale(0.015625)"/>
       </defs>
       <use xlink:href="#DejaVuSans-30"/>
      </g>
     </g>
    </g>
    <g id="xtick_2">
     <g id="line2d_2">
      <g>
       <use xlink:href="#m6fbb4aa107" x="329.405" y="246.04" style="stroke: #000000; stroke-width: 0.8"/>
      </g>
     </g>
     <g id="text_2">
      <!-- 1 -->
      <g transform="translate(326.22375 260.638438) scale(0.1 -0.1)">
       <defs>
        <path id="DejaVuSans-31" d="M 794 531 
L 1825 531 
L 1825 4091 
L 703 3866 
L 703 4441 
L 1819 4666 
L 2450 4666 
L 2450 531 
L 3481 531 
L 3481 0 
L 794 0 
L 794 531 
z
" transform="scale(0.015625)"/>
       </defs>
       <use xlink:href="#DejaVuSans-31"/>
      </g>
     </g>
    </g>
    <g id="text_3">
     <!-- Wine Quality (0 = Low, 1 = High) -->
     <g transform="translate(154.582656 274.316562) scale(0.1 -0.1)">
      <defs>
       <path id="DejaVuSans-57" d="M 213 4666 
L 850 4666 
L 1831 722 
L 2809 4666 
L 3519 4666 
L 4500 722 
L 5478 4666 
L 6119 4666 
L 4947 0 
L 4153 0 
L 3169 4050 
L 2175 0 
L 1381 0 
L 213 4666 
z
" transform="scale(0.015625)"/>
       <path id="DejaVuSans-69" d="M 603 3500 
L 1178 3500 
L 1178 0 
L 603 0 
L 603 3500 
z
M 603 4863 
L 1178 4863 
L 1178 4134 
L 603 4134 
L 603 4863 
z
" transform="scale(0.015625)"/>
       <path id="DejaVuSans-6e" d="M 3513 2113 
L 3513 0 
L 2938 0 
L 2938 2094 
Q 2938 2591 2744 2837 
Q 2550 3084 2163 3084 
Q 1697 3084 1428 2787 
Q 1159 2491 1159 1978 
L 1159 0 
L 581 0 
L 581 3500 
L 1159 3500 
L 1159 2956 
Q 1366 3272 1645 3428 
Q 1925 3584 2291 3584 
Q 2894 3584 3203 3211 
Q 3513 2838 3513 2113 
z
" transform="scale(0.015625)"/>
       <path id="DejaVuSans-65" d="M 3597 1894 
L 3597 1613 
L 953 1613 
Q 991 1019 1311 708 
Q 1631 397 2203 397 
Q 2534 397 2845 478 
Q 3156 559 3463 722 
L 3463 178 
Q 3153 47 2828 -22 
Q 2503 -91 2169 -91 
Q 1331 -91 842 396 
Q 353 884 353 1716 
Q 353 2575 817 3079 
Q 1281 3584 2069 3584 
Q 2775 3584 3186 3129 
Q 3597 2675 3597 1894 
z
M 3022 2063 
Q 3016 2534 2758 2815 
Q 2500 3097 2075 3097 
Q 1594 3097 1305 2825 
Q 1016 2553 972 2059 
L 3022 2063 
z
" transform="scale(0.015625)"/>
       <path id="DejaVuSans-20" transform="scale(0.015625)"/>
       <path id="DejaVuSans-51" d="M 2522 4238 
Q 1834 4238 1429 3725 
Q 1025 3213 1025 2328 
Q 1025 1447 1429 934 
Q 1834 422 2522 422 
Q 3209 422 3611 934 
Q 4013 1447 4013 2328 
Q 4013 3213 3611 3725 
Q 3209 4238 2522 4238 
z
M 3406 84 
L 4238 -825 
L 3475 -825 
L 2784 -78 
Q 2681 -84 2626 -87 
Q 2572 -91 2522 -91 
Q 1538 -91 948 567 
Q 359 1225 359 2328 
Q 359 3434 948 4092 
Q 1538 4750 2522 4750 
Q 3503 4750 4090 4092 
Q 4678 3434 4678 2328 
Q 4678 1516 4351 937 
Q 4025 359 3406 84 
z
" transform="scale(0.015625)"/>
       <path id="DejaVuSans-75" d="M 544 1381 
L 544 3500 
L 1119 3500 
L 1119 1403 
Q 1119 906 1312 657 
Q 1506 409 1894 409 
Q 2359 409 2629 706 
Q 2900 1003 2900 1516 
L 2900 3500 
L 3475 3500 
L 3475 0 
L 2900 0 
L 2900 538 
Q 2691 219 2414 64 
Q 2138 -91 1772 -91 
Q 1169 -91 856 284 
Q 544 659 544 1381 
z
M 1991 3584 
L 1991 3584 
z
" transform="scale(0.015625)"/>
       <path id="DejaVuSans-61" d="M 2194 1759 
Q 1497 1759 1228 1600 
Q 959 1441 959 1056 
Q 959 750 1161 570 
Q 1363 391 1709 391 
Q 2188 391 2477 730 
Q 2766 1069 2766 1631 
L 2766 1759 
L 2194 1759 
z
M 3341 1997 
L 3341 0 
L 2766 0 
L 2766 531 
Q 2569 213 2275 61 
Q 1981 -91 1556 -91 
Q 1019 -91 701 211 
Q 384 513 384 1019 
Q 384 1609 779 1909 
Q 1175 2209 1959 2209 
L 2766 2209 
L 2766 2266 
Q 2766 2663 2505 2880 
Q 2244 3097 1772 3097 
Q 1472 3097 1187 3025 
Q 903 2953 641 2809 
L 641 3341 
Q 956 3463 1253 3523 
Q 1550 3584 1831 3584 
Q 2591 3584 2966 3190 
Q 3341 2797 3341 1997 
z
" transform="scale(0.015625)"/>
       <path id="DejaVuSans-6c" d="M 603 4863 
L 1178 4863 
L 1178 0 
L 603 0 
L 603 4863 
z
" transform="scale(0.015625)"/>
       <path id="DejaVuSans-74" d="M 1172 4494 
L 1172 3500 
L 2356 3500 
L 2356 3053 
L 1172 3053 
L 1172 1153 
Q 1172 725 1289 603 
Q 1406 481 1766 481 
L 2356 481 
L 2356 0 
L 1766 0 
Q 1100 0 847 248 
Q 594 497 594 1153 
L 594 3053 
L 172 3053 
L 172 3500 
L 594 3500 
L 594 4494 
L 1172 4494 
z
" transform="scale(0.015625)"/>
       <path id="DejaVuSans-79" d="M 2059 -325 
Q 1816 -950 1584 -1140 
Q 1353 -1331 966 -1331 
L 506 -1331 
L 506 -850 
L 844 -850 
Q 1081 -850 1212 -737 
Q 1344 -625 1503 -206 
L 1606 56 
L 191 3500 
L 800 3500 
L 1894 763 
L 2988 3500 
L 3597 3500 
L 2059 -325 
z
" transform="scale(0.015625)"/>
       <path id="DejaVuSans-28" d="M 1984 4856 
Q 1566 4138 1362 3434 
Q 1159 2731 1159 2009 
Q 1159 1288 1364 580 
Q 1569 -128 1984 -844 
L 1484 -844 
Q 1016 -109 783 600 
Q 550 1309 550 2009 
Q 550 2706 781 3412 
Q 1013 4119 1484 4856 
L 1984 4856 
z
" transform="scale(0.015625)"/>
       <path id="DejaVuSans-3d" d="M 678 2906 
L 4684 2906 
L 4684 2381 
L 678 2381 
L 678 2906 
z
M 678 1631 
L 4684 1631 
L 4684 1100 
L 678 1100 
L 678 1631 
z
" transform="scale(0.015625)"/>
       <path id="DejaVuSans-4c" d="M 628 4666 
L 1259 4666 
L 1259 531 
L 3531 531 
L 3531 0 
L 628 0 
L 628 4666 
z
" transform="scale(0.015625)"/>
       <path id="DejaVuSans-6f" d="M 1959 3097 
Q 1497 3097 1228 2736 
Q 959 2375 959 1747 
Q 959 1119 1226 758 
Q 1494 397 1959 397 
Q 2419 397 2687 759 
Q 2956 1122 2956 1747 
Q 2956 2369 2687 2733 
Q 2419 3097 1959 3097 
z
M 1959 3584 
Q 2709 3584 3137 3096 
Q 3566 2609 3566 1747 
Q 3566 888 3137 398 
Q 2709 -91 1959 -91 
Q 1206 -91 779 398 
Q 353 888 353 1747 
Q 353 2609 779 3096 
Q 1206 3584 1959 3584 
z
" transform="scale(0.015625)"/>
       <path id="DejaVuSans-77" d="M 269 3500 
L 844 3500 
L 1563 769 
L 2278 3500 
L 2956 3500 
L 3675 769 
L 4391 3500 
L 4966 3500 
L 4050 0 
L 3372 0 
L 2619 2869 
L 1863 0 
L 1184 0 
L 269 3500 
z
" transform="scale(0.015625)"/>
       <path id="DejaVuSans-2c" d="M 750 794 
L 1409 794 
L 1409 256 
L 897 -744 
L 494 -744 
L 750 256 
L 750 794 
z
" transform="scale(0.015625)"/>
       <path id="DejaVuSans-48" d="M 628 4666 
L 1259 4666 
L 1259 2753 
L 3553 2753 
L 3553 4666 
L 4184 4666 
L 4184 0 
L 3553 0 
L 3553 2222 
L 1259 2222 
L 1259 0 
L 628 0 
L 628 4666 
z
" transform="scale(0.015625)"/>
       <path id="DejaVuSans-67" d="M 2906 1791 
Q 2906 2416 2648 2759 
Q 2391 3103 1925 3103 
Q 1463 3103 1205 2759 
Q 947 2416 947 1791 
Q 947 1169 1205 825 
Q 1463 481 1925 481 
Q 2391 481 2648 825 
Q 2906 1169 2906 1791 
z
M 3481 434 
Q 3481 -459 3084 -895 
Q 2688 -1331 1869 -1331 
Q 1566 -1331 1297 -1286 
Q 1028 -1241 775 -1147 
L 775 -588 
Q 1028 -725 1275 -790 
Q 1522 -856 1778 -856 
Q 2344 -856 2625 -561 
Q 2906 -266 2906 331 
L 2906 616 
Q 2728 306 2450 153 
Q 2172 0 1784 0 
Q 1141 0 747 490 
Q 353 981 353 1791 
Q 353 2603 747 3093 
Q 1141 3584 1784 3584 
Q 2172 3584 2450 3431 
Q 2728 3278 2906 2969 
L 2906 3500 
L 3481 3500 
L 3481 434 
z
" transform="scale(0.015625)"/>
       <path id="DejaVuSans-68" d="M 3513 2113 
L 3513 0 
L 2938 0 
L 2938 2094 
Q 2938 2591 2744 2837 
Q 2550 3084 2163 3084 
Q 1697 3084 1428 2787 
Q 1159 2491 1159 1978 
L 1159 0 
L 581 0 
L 581 4863 
L 1159 4863 
L 1159 2956 
Q 1366 3272 1645 3428 
Q 1925 3584 2291 3584 
Q 2894 3584 3203 3211 
Q 3513 2838 3513 2113 
z
" transform="scale(0.015625)"/>
       <path id="DejaVuSans-29" d="M 513 4856 
L 1013 4856 
Q 1481 4119 1714 3412 
Q 1947 2706 1947 2009 
Q 1947 1309 1714 600 
Q 1481 -109 1013 -844 
L 513 -844 
Q 928 -128 1133 580 
Q 1338 1288 1338 2009 
Q 1338 2731 1133 3434 
Q 928 4138 513 4856 
z
" transform="scale(0.015625)"/>
      </defs>
      <use xlink:href="#DejaVuSans-57"/>
      <use xlink:href="#DejaVuSans-69" x="96.626953"/>
      <use xlink:href="#DejaVuSans-6e" x="124.410156"/>
      <use xlink:href="#DejaVuSans-65" x="187.789062"/>
      <use xlink:href="#DejaVuSans-20" x="249.3125"/>
      <use xlink:href="#DejaVuSans-51" x="281.099609"/>
      <use xlink:href="#DejaVuSans-75" x="359.810547"/>
      <use xlink:href="#DejaVuSans-61" x="423.189453"/>
      <use xlink:href="#DejaVuSans-6c" x="484.46875"/>
      <use xlink:href="#DejaVuSans-69" x="512.251953"/>
      <use xlink:href="#DejaVuSans-74" x="540.035156"/>
      <use xlink:href="#DejaVuSans-79" x="579.244141"/>
      <use xlink:href="#DejaVuSans-20" x="638.423828"/>
      <use xlink:href="#DejaVuSans-28" x="670.210938"/>
      <use xlink:href="#DejaVuSans-30" x="709.224609"/>
      <use xlink:href="#DejaVuSans-20" x="772.847656"/>
      <use xlink:href="#DejaVuSans-3d" x="804.634766"/>
      <use xlink:href="#DejaVuSans-20" x="888.423828"/>
      <use xlink:href="#DejaVuSans-4c" x="920.210938"/>
      <use xlink:href="#DejaVuSans-6f" x="974.173828"/>
      <use xlink:href="#DejaVuSans-77" x="1035.355469"/>
      <use xlink:href="#DejaVuSans-2c" x="1117.142578"/>
      <use xlink:href="#DejaVuSans-20" x="1148.929688"/>
      <use xlink:href="#DejaVuSans-31" x="1180.716797"/>
      <use xlink:href="#DejaVuSans-20" x="1244.339844"/>
      <use xlink:href="#DejaVuSans-3d" x="1276.126953"/>
      <use xlink:href="#DejaVuSans-20" x="1359.916016"/>
      <use xlink:href="#DejaVuSans-48" x="1391.703125"/>
      <use xlink:href="#DejaVuSans-69" x="1466.898438"/>
      <use xlink:href="#DejaVuSans-67" x="1494.681641"/>
      <use xlink:href="#DejaVuSans-68" x="1558.158203"/>
      <use xlink:href="#DejaVuSans-29" x="1621.537109"/>
     </g>
    </g>
   </g>
   <g id="matplotlib.axis_2">
    <g id="ytick_1">
     <g id="line2d_3">
      <defs>
       <path id="m36d6b1f4c8" d="M 0 0 
L -3.5 0 
" style="stroke: #000000; stroke-width: 0.8"/>
      </defs>
      <g>
       <use xlink:href="#m36d6b1f4c8" x="54.02" y="245.622439" style="stroke: #000000; stroke-width: 0.8"/>
      </g>
     </g>
     <g id="text_4">
      <!-- 0.25 -->
      <g transform="translate(24.754375 249.421658) scale(0.1 -0.1)">
       <defs>
        <path id="DejaVuSans-2e" d="M 684 794 
L 1344 794 
L 1344 0 
L 684 0 
L 684 794 
z
" transform="scale(0.015625)"/>
        <path id="DejaVuSans-32" d="M 1228 531 
L 3431 531 
L 3431 0 
L 469 0 
L 469 531 
Q 828 903 1448 1529 
Q 2069 2156 2228 2338 
Q 2531 2678 2651 2914 
Q 2772 3150 2772 3378 
Q 2772 3750 2511 3984 
Q 2250 4219 1831 4219 
Q 1534 4219 1204 4116 
Q 875 4013 500 3803 
L 500 4441 
Q 881 4594 1212 4672 
Q 1544 4750 1819 4750 
Q 2544 4750 2975 4387 
Q 3406 4025 3406 3419 
Q 3406 3131 3298 2873 
Q 3191 2616 2906 2266 
Q 2828 2175 2409 1742 
Q 1991 1309 1228 531 
z
" transform="scale(0.015625)"/>
        <path id="DejaVuSans-35" d="M 691 4666 
L 3169 4666 
L 3169 4134 
L 1269 4134 
L 1269 2991 
Q 1406 3038 1543 3061 
Q 1681 3084 1819 3084 
Q 2600 3084 3056 2656 
Q 3513 2228 3513 1497 
Q 3513 744 3044 326 
Q 2575 -91 1722 -91 
Q 1428 -91 1123 -41 
Q 819 9 494 109 
L 494 744 
Q 775 591 1075 516 
Q 1375 441 1709 441 
Q 2250 441 2565 725 
Q 2881 1009 2881 1497 
Q 2881 1984 2565 2268 
Q 2250 2553 1709 2553 
Q 1456 2553 1204 2497 
Q 953 2441 691 2322 
L 691 4666 
z
" transform="scale(0.015625)"/>
       </defs>
       <use xlink:href="#DejaVuSans-30"/>
       <use xlink:href="#DejaVuSans-2e" x="63.623047"/>
       <use xlink:href="#DejaVuSans-32" x="95.410156"/>
       <use xlink:href="#DejaVuSans-35" x="159.033203"/>
      </g>
     </g>
    </g>
    <g id="ytick_2">
     <g id="line2d_4">
      <g>
       <use xlink:href="#m36d6b1f4c8" x="54.02" y="215.796636" style="stroke: #000000; stroke-width: 0.8"/>
      </g>
     </g>
     <g id="text_5">
      <!-- 0.50 -->
      <g transform="translate(24.754375 219.595855) scale(0.1 -0.1)">
       <use xlink:href="#DejaVuSans-30"/>
       <use xlink:href="#DejaVuSans-2e" x="63.623047"/>
       <use xlink:href="#DejaVuSans-35" x="95.410156"/>
       <use xlink:href="#DejaVuSans-30" x="159.033203"/>
      </g>
     </g>
    </g>
    <g id="ytick_3">
     <g id="line2d_5">
      <g>
       <use xlink:href="#m36d6b1f4c8" x="54.02" y="185.970833" style="stroke: #000000; stroke-width: 0.8"/>
      </g>
     </g>
     <g id="text_6">
      <!-- 0.75 -->
      <g transform="translate(24.754375 189.770052) scale(0.1 -0.1)">
       <defs>
        <path id="DejaVuSans-37" d="M 525 4666 
L 3525 4666 
L 3525 4397 
L 1831 0 
L 1172 0 
L 2766 4134 
L 525 4134 
L 525 4666 
z
" transform="scale(0.015625)"/>
       </defs>
       <use xlink:href="#DejaVuSans-30"/>
       <use xlink:href="#DejaVuSans-2e" x="63.623047"/>
       <use xlink:href="#DejaVuSans-37" x="95.410156"/>
       <use xlink:href="#DejaVuSans-35" x="159.033203"/>
      </g>
     </g>
    </g>
    <g id="ytick_4">
     <g id="line2d_6">
      <g>
       <use xlink:href="#m36d6b1f4c8" x="54.02" y="156.14503" style="stroke: #000000; stroke-width: 0.8"/>
      </g>
     </g>
     <g id="text_7">
      <!-- 1.00 -->
      <g transform="translate(24.754375 159.944249) scale(0.1 -0.1)">
       <use xlink:href="#DejaVuSans-31"/>
       <use xlink:href="#DejaVuSans-2e" x="63.623047"/>
       <use xlink:href="#DejaVuSans-30" x="95.410156"/>
       <use xlink:href="#DejaVuSans-30" x="159.033203"/>
      </g>
     </g>
    </g>
    <g id="ytick_5">
     <g id="line2d_7">
      <g>
       <use xlink:href="#m36d6b1f4c8" x="54.02" y="126.319227" style="stroke: #000000; stroke-width: 0.8"/>
      </g>
     </g>
     <g id="text_8">
      <!-- 1.25 -->
      <g transform="translate(24.754375 130.118446) scale(0.1 -0.1)">
       <use xlink:href="#DejaVuSans-31"/>
       <use xlink:href="#DejaVuSans-2e" x="63.623047"/>
       <use xlink:href="#DejaVuSans-32" x="95.410156"/>
       <use xlink:href="#DejaVuSans-35" x="159.033203"/>
      </g>
     </g>
    </g>
    <g id="ytick_6">
     <g id="line2d_8">
      <g>
       <use xlink:href="#m36d6b1f4c8" x="54.02" y="96.493424" style="stroke: #000000; stroke-width: 0.8"/>
      </g>
     </g>
     <g id="text_9">
      <!-- 1.50 -->
      <g transform="translate(24.754375 100.292643) scale(0.1 -0.1)">
       <use xlink:href="#DejaVuSans-31"/>
       <use xlink:href="#DejaVuSans-2e" x="63.623047"/>
       <use xlink:href="#DejaVuSans-35" x="95.410156"/>
       <use xlink:href="#DejaVuSans-30" x="159.033203"/>
      </g>
     </g>
    </g>
    <g id="ytick_7">
     <g id="line2d_9">
      <g>
       <use xlink:href="#m36d6b1f4c8" x="54.02" y="66.667621" style="stroke: #000000; stroke-width: 0.8"/>
      </g>
     </g>
     <g id="text_10">
      <!-- 1.75 -->
      <g transform="translate(24.754375 70.46684) scale(0.1 -0.1)">
       <use xlink:href="#DejaVuSans-31"/>
       <use xlink:href="#DejaVuSans-2e" x="63.623047"/>
       <use xlink:href="#DejaVuSans-37" x="95.410156"/>
       <use xlink:href="#DejaVuSans-35" x="159.033203"/>
      </g>
     </g>
    </g>
    <g id="ytick_8">
     <g id="line2d_10">
      <g>
       <use xlink:href="#m36d6b1f4c8" x="54.02" y="36.841818" style="stroke: #000000; stroke-width: 0.8"/>
      </g>
     </g>
     <g id="text_11">
      <!-- 2.00 -->
      <g transform="translate(24.754375 40.641037) scale(0.1 -0.1)">
       <use xlink:href="#DejaVuSans-32"/>
       <use xlink:href="#DejaVuSans-2e" x="63.623047"/>
       <use xlink:href="#DejaVuSans-30" x="95.410156"/>
       <use xlink:href="#DejaVuSans-30" x="159.033203"/>
      </g>
     </g>
    </g>
    <g id="text_12">
     <!-- sulphates -->
     <g transform="translate(18.674688 160.670937) rotate(-90) scale(0.1 -0.1)">
      <defs>
       <path id="DejaVuSans-73" d="M 2834 3397 
L 2834 2853 
Q 2591 2978 2328 3040 
Q 2066 3103 1784 3103 
Q 1356 3103 1142 2972 
Q 928 2841 928 2578 
Q 928 2378 1081 2264 
Q 1234 2150 1697 2047 
L 1894 2003 
Q 2506 1872 2764 1633 
Q 3022 1394 3022 966 
Q 3022 478 2636 193 
Q 2250 -91 1575 -91 
Q 1294 -91 989 -36 
Q 684 19 347 128 
L 347 722 
Q 666 556 975 473 
Q 1284 391 1588 391 
Q 1994 391 2212 530 
Q 2431 669 2431 922 
Q 2431 1156 2273 1281 
Q 2116 1406 1581 1522 
L 1381 1569 
Q 847 1681 609 1914 
Q 372 2147 372 2553 
Q 372 3047 722 3315 
Q 1072 3584 1716 3584 
Q 2034 3584 2315 3537 
Q 2597 3491 2834 3397 
z
" transform="scale(0.015625)"/>
       <path id="DejaVuSans-70" d="M 1159 525 
L 1159 -1331 
L 581 -1331 
L 581 3500 
L 1159 3500 
L 1159 2969 
Q 1341 3281 1617 3432 
Q 1894 3584 2278 3584 
Q 2916 3584 3314 3078 
Q 3713 2572 3713 1747 
Q 3713 922 3314 415 
Q 2916 -91 2278 -91 
Q 1894 -91 1617 61 
Q 1341 213 1159 525 
z
M 3116 1747 
Q 3116 2381 2855 2742 
Q 2594 3103 2138 3103 
Q 1681 3103 1420 2742 
Q 1159 2381 1159 1747 
Q 1159 1113 1420 752 
Q 1681 391 2138 391 
Q 2594 391 2855 752 
Q 3116 1113 3116 1747 
z
" transform="scale(0.015625)"/>
      </defs>
      <use xlink:href="#DejaVuSans-73"/>
      <use xlink:href="#DejaVuSans-75" x="52.099609"/>
      <use xlink:href="#DejaVuSans-6c" x="115.478516"/>
      <use xlink:href="#DejaVuSans-70" x="143.261719"/>
      <use xlink:href="#DejaVuSans-68" x="206.738281"/>
      <use xlink:href="#DejaVuSans-61" x="270.117188"/>
      <use xlink:href="#DejaVuSans-74" x="331.396484"/>
      <use xlink:href="#DejaVuSans-65" x="370.605469"/>
      <use xlink:href="#DejaVuSans-73" x="432.128906"/>
     </g>
    </g>
   </g>
   <g id="patch_3">
    <path d="M 72.379 213.410572 
L 219.251 213.410572 
L 219.251 199.094186 
L 72.379 199.094186 
L 72.379 213.410572 
z
" clip-path="url(#p2f2fe25c72)" style="fill: #3274a1; stroke: #3f3f3f; stroke-linejoin: miter"/>
   </g>
   <g id="line2d_11">
    <path d="M 145.815 213.410572 
L 145.815 228.919989 
" clip-path="url(#p2f2fe25c72)" style="fill: none; stroke: #3f3f3f"/>
   </g>
   <g id="line2d_12">
    <path d="M 145.815 199.094186 
L 145.815 177.619608 
" clip-path="url(#p2f2fe25c72)" style="fill: none; stroke: #3f3f3f"/>
   </g>
   <g id="line2d_13">
    <path d="M 109.097 228.919989 
L 182.533 228.919989 
" clip-path="url(#p2f2fe25c72)" style="fill: none; stroke: #3f3f3f; stroke-linecap: square"/>
   </g>
   <g id="line2d_14">
    <path d="M 109.097 177.619608 
L 182.533 177.619608 
" clip-path="url(#p2f2fe25c72)" style="fill: none; stroke: #3f3f3f; stroke-linecap: square"/>
   </g>
   <g id="line2d_15">
    <defs>
     <path id="m607bc80617" d="M 0 3 
C 0.795609 3 1.55874 2.683901 2.12132 2.12132 
C 2.683901 1.55874 3 0.795609 3 0 
C 3 -0.795609 2.683901 -1.55874 2.12132 -2.12132 
C 1.55874 -2.683901 0.795609 -3 0 -3 
C -0.795609 -3 -1.55874 -2.683901 -2.12132 -2.12132 
C -2.683901 -1.55874 -3 -0.795609 -3 0 
C -3 0.795609 -2.683901 1.55874 -2.12132 2.12132 
C -1.55874 2.683901 -0.795609 3 0 3 
z
" style="stroke: #3f3f3f"/>
    </defs>
    <g clip-path="url(#p2f2fe25c72)">
     <use xlink:href="#m607bc80617" x="145.815" y="236.078182" style="fill-opacity: 0; stroke: #3f3f3f"/>
     <use xlink:href="#m607bc80617" x="145.815" y="89.335231" style="fill-opacity: 0; stroke: #3f3f3f"/>
     <use xlink:href="#m607bc80617" x="145.815" y="166.882319" style="fill-opacity: 0; stroke: #3f3f3f"/>
     <use xlink:href="#m607bc80617" x="145.815" y="176.426576" style="fill-opacity: 0; stroke: #3f3f3f"/>
     <use xlink:href="#m607bc80617" x="145.815" y="132.284388" style="fill-opacity: 0; stroke: #3f3f3f"/>
     <use xlink:href="#m607bc80617" x="145.815" y="141.828645" style="fill-opacity: 0; stroke: #3f3f3f"/>
     <use xlink:href="#m607bc80617" x="145.815" y="129.898323" style="fill-opacity: 0; stroke: #3f3f3f"/>
     <use xlink:href="#m607bc80617" x="145.815" y="119.161034" style="fill-opacity: 0; stroke: #3f3f3f"/>
     <use xlink:href="#m607bc80617" x="145.815" y="164.496255" style="fill-opacity: 0; stroke: #3f3f3f"/>
     <use xlink:href="#m607bc80617" x="145.815" y="164.496255" style="fill-opacity: 0; stroke: #3f3f3f"/>
     <use xlink:href="#m607bc80617" x="145.815" y="36.841818" style="fill-opacity: 0; stroke: #3f3f3f"/>
     <use xlink:href="#m607bc80617" x="145.815" y="146.600773" style="fill-opacity: 0; stroke: #3f3f3f"/>
     <use xlink:href="#m607bc80617" x="145.815" y="153.758966" style="fill-opacity: 0; stroke: #3f3f3f"/>
     <use xlink:href="#m607bc80617" x="145.815" y="145.407741" style="fill-opacity: 0; stroke: #3f3f3f"/>
     <use xlink:href="#m607bc80617" x="145.815" y="125.126195" style="fill-opacity: 0; stroke: #3f3f3f"/>
     <use xlink:href="#m607bc80617" x="145.815" y="171.654447" style="fill-opacity: 0; stroke: #3f3f3f"/>
     <use xlink:href="#m607bc80617" x="145.815" y="162.110191" style="fill-opacity: 0; stroke: #3f3f3f"/>
     <use xlink:href="#m607bc80617" x="145.815" y="176.426576" style="fill-opacity: 0; stroke: #3f3f3f"/>
     <use xlink:href="#m607bc80617" x="145.815" y="170.461415" style="fill-opacity: 0; stroke: #3f3f3f"/>
     <use xlink:href="#m607bc80617" x="145.815" y="171.654447" style="fill-opacity: 0; stroke: #3f3f3f"/>
     <use xlink:href="#m607bc80617" x="145.815" y="147.793805" style="fill-opacity: 0; stroke: #3f3f3f"/>
     <use xlink:href="#m607bc80617" x="145.815" y="148.986837" style="fill-opacity: 0; stroke: #3f3f3f"/>
     <use xlink:href="#m607bc80617" x="145.815" y="139.44258" style="fill-opacity: 0; stroke: #3f3f3f"/>
     <use xlink:href="#m607bc80617" x="145.815" y="175.233544" style="fill-opacity: 0; stroke: #3f3f3f"/>
     <use xlink:href="#m607bc80617" x="145.815" y="150.179869" style="fill-opacity: 0; stroke: #3f3f3f"/>
     <use xlink:href="#m607bc80617" x="145.815" y="135.863484" style="fill-opacity: 0; stroke: #3f3f3f"/>
     <use xlink:href="#m607bc80617" x="145.815" y="82.177039" style="fill-opacity: 0; stroke: #3f3f3f"/>
     <use xlink:href="#m607bc80617" x="145.815" y="134.670452" style="fill-opacity: 0; stroke: #3f3f3f"/>
     <use xlink:href="#m607bc80617" x="145.815" y="172.84748" style="fill-opacity: 0; stroke: #3f3f3f"/>
     <use xlink:href="#m607bc80617" x="145.815" y="172.84748" style="fill-opacity: 0; stroke: #3f3f3f"/>
     <use xlink:href="#m607bc80617" x="145.815" y="115.581938" style="fill-opacity: 0; stroke: #3f3f3f"/>
     <use xlink:href="#m607bc80617" x="145.815" y="163.303223" style="fill-opacity: 0; stroke: #3f3f3f"/>
     <use xlink:href="#m607bc80617" x="145.815" y="138.249548" style="fill-opacity: 0; stroke: #3f3f3f"/>
     <use xlink:href="#m607bc80617" x="145.815" y="135.863484" style="fill-opacity: 0; stroke: #3f3f3f"/>
     <use xlink:href="#m607bc80617" x="145.815" y="135.863484" style="fill-opacity: 0; stroke: #3f3f3f"/>
     <use xlink:href="#m607bc80617" x="145.815" y="135.863484" style="fill-opacity: 0; stroke: #3f3f3f"/>
     <use xlink:href="#m607bc80617" x="145.815" y="135.863484" style="fill-opacity: 0; stroke: #3f3f3f"/>
     <use xlink:href="#m607bc80617" x="145.815" y="168.075351" style="fill-opacity: 0; stroke: #3f3f3f"/>
     <use xlink:href="#m607bc80617" x="145.815" y="175.233544" style="fill-opacity: 0; stroke: #3f3f3f"/>
     <use xlink:href="#m607bc80617" x="145.815" y="164.496255" style="fill-opacity: 0; stroke: #3f3f3f"/>
     <use xlink:href="#m607bc80617" x="145.815" y="159.724126" style="fill-opacity: 0; stroke: #3f3f3f"/>
    </g>
   </g>
   <g id="patch_4">
    <path d="M 255.969 205.059347 
L 402.841 205.059347 
L 402.841 183.584769 
L 255.969 183.584769 
L 255.969 205.059347 
z
" clip-path="url(#p2f2fe25c72)" style="fill: #3274a1; stroke: #3f3f3f; stroke-linejoin: miter"/>
   </g>
   <g id="line2d_16">
    <path d="M 329.405 205.059347 
L 329.405 228.919989 
" clip-path="url(#p2f2fe25c72)" style="fill: none; stroke: #3f3f3f"/>
   </g>
   <g id="line2d_17">
    <path d="M 329.405 183.584769 
L 329.405 151.372901 
" clip-path="url(#p2f2fe25c72)" style="fill: none; stroke: #3f3f3f"/>
   </g>
   <g id="line2d_18">
    <path d="M 292.687 228.919989 
L 366.123 228.919989 
" clip-path="url(#p2f2fe25c72)" style="fill: none; stroke: #3f3f3f; stroke-linecap: square"/>
   </g>
   <g id="line2d_19">
    <path d="M 292.687 151.372901 
L 366.123 151.372901 
" clip-path="url(#p2f2fe25c72)" style="fill: none; stroke: #3f3f3f; stroke-linecap: square"/>
   </g>
   <g id="line2d_20">
    <g clip-path="url(#p2f2fe25c72)">
     <use xlink:href="#m607bc80617" x="329.405" y="146.600773" style="fill-opacity: 0; stroke: #3f3f3f"/>
     <use xlink:href="#m607bc80617" x="329.405" y="42.806979" style="fill-opacity: 0; stroke: #3f3f3f"/>
     <use xlink:href="#m607bc80617" x="329.405" y="42.806979" style="fill-opacity: 0; stroke: #3f3f3f"/>
     <use xlink:href="#m607bc80617" x="329.405" y="83.370071" style="fill-opacity: 0; stroke: #3f3f3f"/>
     <use xlink:href="#m607bc80617" x="329.405" y="146.600773" style="fill-opacity: 0; stroke: #3f3f3f"/>
     <use xlink:href="#m607bc80617" x="329.405" y="113.195874" style="fill-opacity: 0; stroke: #3f3f3f"/>
     <use xlink:href="#m607bc80617" x="329.405" y="140.635612" style="fill-opacity: 0; stroke: #3f3f3f"/>
     <use xlink:href="#m607bc80617" x="329.405" y="143.021677" style="fill-opacity: 0; stroke: #3f3f3f"/>
     <use xlink:href="#m607bc80617" x="329.405" y="140.635612" style="fill-opacity: 0; stroke: #3f3f3f"/>
     <use xlink:href="#m607bc80617" x="329.405" y="148.986837" style="fill-opacity: 0; stroke: #3f3f3f"/>
     <use xlink:href="#m607bc80617" x="329.405" y="150.179869" style="fill-opacity: 0; stroke: #3f3f3f"/>
     <use xlink:href="#m607bc80617" x="329.405" y="113.195874" style="fill-opacity: 0; stroke: #3f3f3f"/>
     <use xlink:href="#m607bc80617" x="329.405" y="148.986837" style="fill-opacity: 0; stroke: #3f3f3f"/>
     <use xlink:href="#m607bc80617" x="329.405" y="116.77497" style="fill-opacity: 0; stroke: #3f3f3f"/>
     <use xlink:href="#m607bc80617" x="329.405" y="134.670452" style="fill-opacity: 0; stroke: #3f3f3f"/>
     <use xlink:href="#m607bc80617" x="329.405" y="144.214709" style="fill-opacity: 0; stroke: #3f3f3f"/>
    </g>
   </g>
   <g id="line2d_21">
    <path d="M 72.379 207.445411 
L 219.251 207.445411 
" clip-path="url(#p2f2fe25c72)" style="fill: none; stroke: #3f3f3f"/>
   </g>
   <g id="line2d_22">
    <path d="M 255.969 196.708122 
L 402.841 196.708122 
" clip-path="url(#p2f2fe25c72)" style="fill: none; stroke: #3f3f3f"/>
   </g>
   <g id="patch_5">
    <path d="M 54.02 246.04 
L 54.02 26.88 
" style="fill: none; stroke: #000000; stroke-width: 0.8; stroke-linejoin: miter; stroke-linecap: square"/>
   </g>
   <g id="patch_6">
    <path d="M 421.2 246.04 
L 421.2 26.88 
" style="fill: none; stroke: #000000; stroke-width: 0.8; stroke-linejoin: miter; stroke-linecap: square"/>
   </g>
   <g id="patch_7">
    <path d="M 54.02 246.04 
L 421.2 246.04 
" style="fill: none; stroke: #000000; stroke-width: 0.8; stroke-linejoin: miter; stroke-linecap: square"/>
   </g>
   <g id="patch_8">
    <path d="M 54.02 26.88 
L 421.2 26.88 
" style="fill: none; stroke: #000000; stroke-width: 0.8; stroke-linejoin: miter; stroke-linecap: square"/>
   </g>
   <g id="text_13">
    <!-- Boxplot of sulphates by Wine Quality -->
    <g transform="translate(126.829375 20.88) scale(0.12 -0.12)">
     <defs>
      <path id="DejaVuSans-42" d="M 1259 2228 
L 1259 519 
L 2272 519 
Q 2781 519 3026 730 
Q 3272 941 3272 1375 
Q 3272 1813 3026 2020 
Q 2781 2228 2272 2228 
L 1259 2228 
z
M 1259 4147 
L 1259 2741 
L 2194 2741 
Q 2656 2741 2882 2914 
Q 3109 3088 3109 3444 
Q 3109 3797 2882 3972 
Q 2656 4147 2194 4147 
L 1259 4147 
z
M 628 4666 
L 2241 4666 
Q 2963 4666 3353 4366 
Q 3744 4066 3744 3513 
Q 3744 3084 3544 2831 
Q 3344 2578 2956 2516 
Q 3422 2416 3680 2098 
Q 3938 1781 3938 1306 
Q 3938 681 3513 340 
Q 3088 0 2303 0 
L 628 0 
L 628 4666 
z
" transform="scale(0.015625)"/>
      <path id="DejaVuSans-78" d="M 3513 3500 
L 2247 1797 
L 3578 0 
L 2900 0 
L 1881 1375 
L 863 0 
L 184 0 
L 1544 1831 
L 300 3500 
L 978 3500 
L 1906 2253 
L 2834 3500 
L 3513 3500 
z
" transform="scale(0.015625)"/>
      <path id="DejaVuSans-66" d="M 2375 4863 
L 2375 4384 
L 1825 4384 
Q 1516 4384 1395 4259 
Q 1275 4134 1275 3809 
L 1275 3500 
L 2222 3500 
L 2222 3053 
L 1275 3053 
L 1275 0 
L 697 0 
L 697 3053 
L 147 3053 
L 147 3500 
L 697 3500 
L 697 3744 
Q 697 4328 969 4595 
Q 1241 4863 1831 4863 
L 2375 4863 
z
" transform="scale(0.015625)"/>
      <path id="DejaVuSans-62" d="M 3116 1747 
Q 3116 2381 2855 2742 
Q 2594 3103 2138 3103 
Q 1681 3103 1420 2742 
Q 1159 2381 1159 1747 
Q 1159 1113 1420 752 
Q 1681 391 2138 391 
Q 2594 391 2855 752 
Q 3116 1113 3116 1747 
z
M 1159 2969 
Q 1341 3281 1617 3432 
Q 1894 3584 2278 3584 
Q 2916 3584 3314 3078 
Q 3713 2572 3713 1747 
Q 3713 922 3314 415 
Q 2916 -91 2278 -91 
Q 1894 -91 1617 61 
Q 1341 213 1159 525 
L 1159 0 
L 581 0 
L 581 4863 
L 1159 4863 
L 1159 2969 
z
" transform="scale(0.015625)"/>
     </defs>
     <use xlink:href="#DejaVuSans-42"/>
     <use xlink:href="#DejaVuSans-6f" x="68.603516"/>
     <use xlink:href="#DejaVuSans-78" x="126.660156"/>
     <use xlink:href="#DejaVuSans-70" x="185.839844"/>
     <use xlink:href="#DejaVuSans-6c" x="249.316406"/>
     <use xlink:href="#DejaVuSans-6f" x="277.099609"/>
     <use xlink:href="#DejaVuSans-74" x="338.28125"/>
     <use xlink:href="#DejaVuSans-20" x="377.490234"/>
     <use xlink:href="#DejaVuSans-6f" x="409.277344"/>
     <use xlink:href="#DejaVuSans-66" x="470.458984"/>
     <use xlink:href="#DejaVuSans-20" x="505.664062"/>
     <use xlink:href="#DejaVuSans-73" x="537.451172"/>
     <use xlink:href="#DejaVuSans-75" x="589.550781"/>
     <use xlink:href="#DejaVuSans-6c" x="652.929688"/>
     <use xlink:href="#DejaVuSans-70" x="680.712891"/>
     <use xlink:href="#DejaVuSans-68" x="744.189453"/>
     <use xlink:href="#DejaVuSans-61" x="807.568359"/>
     <use xlink:href="#DejaVuSans-74" x="868.847656"/>
     <use xlink:href="#DejaVuSans-65" x="908.056641"/>
     <use xlink:href="#DejaVuSans-73" x="969.580078"/>
     <use xlink:href="#DejaVuSans-20" x="1021.679688"/>
     <use xlink:href="#DejaVuSans-62" x="1053.466797"/>
     <use xlink:href="#DejaVuSans-79" x="1116.943359"/>
     <use xlink:href="#DejaVuSans-20" x="1176.123047"/>
     <use xlink:href="#DejaVuSans-57" x="1207.910156"/>
     <use xlink:href="#DejaVuSans-69" x="1304.537109"/>
     <use xlink:href="#DejaVuSans-6e" x="1332.320312"/>
     <use xlink:href="#DejaVuSans-65" x="1395.699219"/>
     <use xlink:href="#DejaVuSans-20" x="1457.222656"/>
     <use xlink:href="#DejaVuSans-51" x="1489.009766"/>
     <use xlink:href="#DejaVuSans-75" x="1567.720703"/>
     <use xlink:href="#DejaVuSans-61" x="1631.099609"/>
     <use xlink:href="#DejaVuSans-6c" x="1692.378906"/>
     <use xlink:href="#DejaVuSans-69" x="1720.162109"/>
     <use xlink:href="#DejaVuSans-74" x="1747.945312"/>
     <use xlink:href="#DejaVuSans-79" x="1787.154297"/>
    </g>
   </g>
  </g>
 </g>
 <defs>
  <clipPath id="p2f2fe25c72">
   <rect x="54.02" y="26.88" width="367.18" height="219.16"/>
  </clipPath>
 </defs>
</svg>
