<?xml version="1.0" encoding="utf-8" standalone="no"?>
<!DOCTYPE svg PUBLIC "-//W3C//DTD SVG 1.1//EN"
  "http://www.w3.org/Graphics/SVG/1.1/DTD/svg11.dtd">
<svg xmlns:xlink="http://www.w3.org/1999/xlink" width="576pt" height="288pt" viewBox="0 0 576 288" xmlns="http://www.w3.org/2000/svg" version="1.1">
 <metadata>
  <rdf:RDF xmlns:dc="http://purl.org/dc/elements/1.1/" xmlns:cc="http://creativecommons.org/ns#" xmlns:rdf="http://www.w3.org/1999/02/22-rdf-syntax-ns#">
   <cc:Work>
    <dc:type rdf:resource="http://purl.org/dc/dcmitype/StillImage"/>
    <dc:date>2025-04-11T23:21:57.657168</dc:date>
    <dc:format>image/svg+xml</dc:format>
    <dc:creator>
     <cc:Agent>
      <dc:title>Matplotlib v3.9.4, https://matplotlib.org/</dc:title>
     </cc:Agent>
    </dc:creator>
   </cc:Work>
  </rdf:RDF>
 </metadata>
 <defs>
  <style type="text/css">*{stroke-linejoin: round; stroke-linecap: butt}</style>
 </defs>
 <g id="figure_1">
  <g id="patch_1">
   <path d="M 0 288 
L 576 288 
L 576 0 
L 0 0 
z
" style="fill: #ffffff"/>
  </g>
  <g id="axes_1">
   <g id="patch_2">
    <path d="M 49.39 257.78 
L 565.2 257.78 
L 565.2 26.88 
L 49.39 26.88 
z
" style="fill: #ffffff"/>
   </g>
   <g id="matplotlib.axis_1">
    <g id="xtick_1">
     <g id="text_1">
      <!-- (2) -->
      <g transform="translate(55.075391 273.279375) rotate(-90) scale(0.06 -0.06)">
       <defs>
        <path id="DejaVuSans-28" d="M 1984 4856 
Q 1566 4138 1362 3434 
Q 1159 2731 1159 2009 
Q 1159 1288 1364 580 
Q 1569 -128 1984 -844 
L 1484 -844 
Q 1016 -109 783 600 
Q 550 1309 550 2009 
Q 550 2706 781 3412 
Q 1013 4119 1484 4856 
L 1984 4856 
z
" transform="scale(0.015625)"/>
        <path id="DejaVuSans-32" d="M 1228 531 
L 3431 531 
L 3431 0 
L 469 0 
L 469 531 
Q 828 903 1448 1529 
Q 2069 2156 2228 2338 
Q 2531 2678 2651 2914 
Q 2772 3150 2772 3378 
Q 2772 3750 2511 3984 
Q 2250 4219 1831 4219 
Q 1534 4219 1204 4116 
Q 875 4013 500 3803 
L 500 4441 
Q 881 4594 1212 4672 
Q 1544 4750 1819 4750 
Q 2544 4750 2975 4387 
Q 3406 4025 3406 3419 
Q 3406 3131 3298 2873 
Q 3191 2616 2906 2266 
Q 2828 2175 2409 1742 
Q 1991 1309 1228 531 
z
" transform="scale(0.015625)"/>
        <path id="DejaVuSans-29" d="M 513 4856 
L 1013 4856 
Q 1481 4119 1714 3412 
Q 1947 2706 1947 2009 
Q 1947 1309 1714 600 
Q 1481 -109 1013 -844 
L 513 -844 
Q 928 -128 1133 580 
Q 1338 1288 1338 2009 
Q 1338 2731 1133 3434 
Q 928 4138 513 4856 
z
" transform="scale(0.015625)"/>
       </defs>
       <use xlink:href="#DejaVuSans-28"/>
       <use xlink:href="#DejaVuSans-32" x="39.013672"/>
       <use xlink:href="#DejaVuSans-29" x="102.636719"/>
      </g>
     </g>
    </g>
    <g id="xtick_2">
     <g id="text_2">
      <!-- (7) -->
      <g transform="translate(63.134922 273.279375) rotate(-90) scale(0.06 -0.06)">
       <defs>
        <path id="DejaVuSans-37" d="M 525 4666 
L 3525 4666 
L 3525 4397 
L 1831 0 
L 1172 0 
L 2766 4134 
L 525 4134 
L 525 4666 
z
" transform="scale(0.015625)"/>
       </defs>
       <use xlink:href="#DejaVuSans-28"/>
       <use xlink:href="#DejaVuSans-37" x="39.013672"/>
       <use xlink:href="#DejaVuSans-29" x="102.636719"/>
      </g>
     </g>
    </g>
    <g id="xtick_3">
     <g id="text_3">
      <!-- (5) -->
      <g transform="translate(71.194453 273.279375) rotate(-90) scale(0.06 -0.06)">
       <defs>
        <path id="DejaVuSans-35" d="M 691 4666 
L 3169 4666 
L 3169 4134 
L 1269 4134 
L 1269 2991 
Q 1406 3038 1543 3061 
Q 1681 3084 1819 3084 
Q 2600 3084 3056 2656 
Q 3513 2228 3513 1497 
Q 3513 744 3044 326 
Q 2575 -91 1722 -91 
Q 1428 -91 1123 -41 
Q 819 9 494 109 
L 494 744 
Q 775 591 1075 516 
Q 1375 441 1709 441 
Q 2250 441 2565 725 
Q 2881 1009 2881 1497 
Q 2881 1984 2565 2268 
Q 2250 2553 1709 2553 
Q 1456 2553 1204 2497 
Q 953 2441 691 2322 
L 691 4666 
z
" transform="scale(0.015625)"/>
       </defs>
       <use xlink:href="#DejaVuSans-28"/>
       <use xlink:href="#DejaVuSans-35" x="39.013672"/>
       <use xlink:href="#DejaVuSans-29" x="102.636719"/>
      </g>
     </g>
    </g>
    <g id="xtick_4">
     <g id="text_4">
      <!-- (14) -->
      <g transform="translate(79.253984 277.096875) rotate(-90) scale(0.06 -0.06)">
       <defs>
        <path id="DejaVuSans-31" d="M 794 531 
L 1825 531 
L 1825 4091 
L 703 3866 
L 703 4441 
L 1819 4666 
L 2450 4666 
L 2450 531 
L 3481 531 
L 3481 0 
L 794 0 
L 794 531 
z
" transform="scale(0.015625)"/>
        <path id="DejaVuSans-34" d="M 2419 4116 
L 825 1625 
L 2419 1625 
L 2419 4116 
z
M 2253 4666 
L 3047 4666 
L 3047 1625 
L 3713 1625 
L 3713 1100 
L 3047 1100 
L 3047 0 
L 2419 0 
L 2419 1100 
L 313 1100 
L 313 1709 
L 2253 4666 
z
" transform="scale(0.015625)"/>
       </defs>
       <use xlink:href="#DejaVuSans-28"/>
       <use xlink:href="#DejaVuSans-31" x="39.013672"/>
       <use xlink:href="#DejaVuSans-34" x="102.636719"/>
       <use xlink:href="#DejaVuSans-29" x="166.259766"/>
      </g>
     </g>
    </g>
    <g id="xtick_5">
     <g id="text_5">
      <!-- (13) -->
      <g transform="translate(87.313516 277.096875) rotate(-90) scale(0.06 -0.06)">
       <defs>
        <path id="DejaVuSans-33" d="M 2597 2516 
Q 3050 2419 3304 2112 
Q 3559 1806 3559 1356 
Q 3559 666 3084 287 
Q 2609 -91 1734 -91 
Q 1441 -91 1130 -33 
Q 819 25 488 141 
L 488 750 
Q 750 597 1062 519 
Q 1375 441 1716 441 
Q 2309 441 2620 675 
Q 2931 909 2931 1356 
Q 2931 1769 2642 2001 
Q 2353 2234 1838 2234 
L 1294 2234 
L 1294 2753 
L 1863 2753 
Q 2328 2753 2575 2939 
Q 2822 3125 2822 3475 
Q 2822 3834 2567 4026 
Q 2313 4219 1838 4219 
Q 1578 4219 1281 4162 
Q 984 4106 628 3988 
L 628 4550 
Q 988 4650 1302 4700 
Q 1616 4750 1894 4750 
Q 2613 4750 3031 4423 
Q 3450 4097 3450 3541 
Q 3450 3153 3228 2886 
Q 3006 2619 2597 2516 
z
" transform="scale(0.015625)"/>
       </defs>
       <use xlink:href="#DejaVuSans-28"/>
       <use xlink:href="#DejaVuSans-31" x="39.013672"/>
       <use xlink:href="#DejaVuSans-33" x="102.636719"/>
       <use xlink:href="#DejaVuSans-29" x="166.259766"/>
      </g>
     </g>
    </g>
    <g id="xtick_6">
     <g id="text_6">
      <!-- (12) -->
      <g transform="translate(95.373047 277.096875) rotate(-90) scale(0.06 -0.06)">
       <use xlink:href="#DejaVuSans-28"/>
       <use xlink:href="#DejaVuSans-31" x="39.013672"/>
       <use xlink:href="#DejaVuSans-32" x="102.636719"/>
       <use xlink:href="#DejaVuSans-29" x="166.259766"/>
      </g>
     </g>
    </g>
    <g id="xtick_7">
     <g id="text_7">
      <!-- (10) -->
      <g transform="translate(103.432578 277.096875) rotate(-90) scale(0.06 -0.06)">
       <defs>
        <path id="DejaVuSans-30" d="M 2034 4250 
Q 1547 4250 1301 3770 
Q 1056 3291 1056 2328 
Q 1056 1369 1301 889 
Q 1547 409 2034 409 
Q 2525 409 2770 889 
Q 3016 1369 3016 2328 
Q 3016 3291 2770 3770 
Q 2525 4250 2034 4250 
z
M 2034 4750 
Q 2819 4750 3233 4129 
Q 3647 3509 3647 2328 
Q 3647 1150 3233 529 
Q 2819 -91 2034 -91 
Q 1250 -91 836 529 
Q 422 1150 422 2328 
Q 422 3509 836 4129 
Q 1250 4750 2034 4750 
z
" transform="scale(0.015625)"/>
       </defs>
       <use xlink:href="#DejaVuSans-28"/>
       <use xlink:href="#DejaVuSans-31" x="39.013672"/>
       <use xlink:href="#DejaVuSans-30" x="102.636719"/>
       <use xlink:href="#DejaVuSans-29" x="166.259766"/>
      </g>
     </g>
    </g>
    <g id="xtick_8">
     <g id="text_8">
      <!-- (19) -->
      <g transform="translate(111.492109 277.096875) rotate(-90) scale(0.06 -0.06)">
       <defs>
        <path id="DejaVuSans-39" d="M 703 97 
L 703 672 
Q 941 559 1184 500 
Q 1428 441 1663 441 
Q 2288 441 2617 861 
Q 2947 1281 2994 2138 
Q 2813 1869 2534 1725 
Q 2256 1581 1919 1581 
Q 1219 1581 811 2004 
Q 403 2428 403 3163 
Q 403 3881 828 4315 
Q 1253 4750 1959 4750 
Q 2769 4750 3195 4129 
Q 3622 3509 3622 2328 
Q 3622 1225 3098 567 
Q 2575 -91 1691 -91 
Q 1453 -91 1209 -44 
Q 966 3 703 97 
z
M 1959 2075 
Q 2384 2075 2632 2365 
Q 2881 2656 2881 3163 
Q 2881 3666 2632 3958 
Q 2384 4250 1959 4250 
Q 1534 4250 1286 3958 
Q 1038 3666 1038 3163 
Q 1038 2656 1286 2365 
Q 1534 2075 1959 2075 
z
" transform="scale(0.015625)"/>
       </defs>
       <use xlink:href="#DejaVuSans-28"/>
       <use xlink:href="#DejaVuSans-31" x="39.013672"/>
       <use xlink:href="#DejaVuSans-39" x="102.636719"/>
       <use xlink:href="#DejaVuSans-29" x="166.259766"/>
      </g>
     </g>
    </g>
    <g id="xtick_9">
     <g id="text_9">
      <!-- (13) -->
      <g transform="translate(119.551641 277.096875) rotate(-90) scale(0.06 -0.06)">
       <use xlink:href="#DejaVuSans-28"/>
       <use xlink:href="#DejaVuSans-31" x="39.013672"/>
       <use xlink:href="#DejaVuSans-33" x="102.636719"/>
       <use xlink:href="#DejaVuSans-29" x="166.259766"/>
      </g>
     </g>
    </g>
    <g id="xtick_10">
     <g id="text_10">
      <!-- (12) -->
      <g transform="translate(127.611172 277.096875) rotate(-90) scale(0.06 -0.06)">
       <use xlink:href="#DejaVuSans-28"/>
       <use xlink:href="#DejaVuSans-31" x="39.013672"/>
       <use xlink:href="#DejaVuSans-32" x="102.636719"/>
       <use xlink:href="#DejaVuSans-29" x="166.259766"/>
      </g>
     </g>
    </g>
    <g id="xtick_11">
     <g id="text_11">
      <!-- (9) -->
      <g transform="translate(135.670703 273.279375) rotate(-90) scale(0.06 -0.06)">
       <use xlink:href="#DejaVuSans-28"/>
       <use xlink:href="#DejaVuSans-39" x="39.013672"/>
       <use xlink:href="#DejaVuSans-29" x="102.636719"/>
      </g>
     </g>
    </g>
    <g id="xtick_12">
     <g id="text_12">
      <!-- (10) -->
      <g transform="translate(143.730234 277.096875) rotate(-90) scale(0.06 -0.06)">
       <use xlink:href="#DejaVuSans-28"/>
       <use xlink:href="#DejaVuSans-31" x="39.013672"/>
       <use xlink:href="#DejaVuSans-30" x="102.636719"/>
       <use xlink:href="#DejaVuSans-29" x="166.259766"/>
      </g>
     </g>
    </g>
    <g id="xtick_13">
     <g id="text_13">
      <!-- (3) -->
      <g transform="translate(151.789766 273.279375) rotate(-90) scale(0.06 -0.06)">
       <use xlink:href="#DejaVuSans-28"/>
       <use xlink:href="#DejaVuSans-33" x="39.013672"/>
       <use xlink:href="#DejaVuSans-29" x="102.636719"/>
      </g>
     </g>
    </g>
    <g id="xtick_14">
     <g id="text_14">
      <!-- (3) -->
      <g transform="translate(159.849297 273.279375) rotate(-90) scale(0.06 -0.06)">
       <use xlink:href="#DejaVuSans-28"/>
       <use xlink:href="#DejaVuSans-33" x="39.013672"/>
       <use xlink:href="#DejaVuSans-29" x="102.636719"/>
      </g>
     </g>
    </g>
    <g id="xtick_15">
     <g id="text_15">
      <!-- (10) -->
      <g transform="translate(167.908828 277.096875) rotate(-90) scale(0.06 -0.06)">
       <use xlink:href="#DejaVuSans-28"/>
       <use xlink:href="#DejaVuSans-31" x="39.013672"/>
       <use xlink:href="#DejaVuSans-30" x="102.636719"/>
       <use xlink:href="#DejaVuSans-29" x="166.259766"/>
      </g>
     </g>
    </g>
    <g id="xtick_16">
     <g id="text_16">
      <!-- (27) -->
      <g transform="translate(175.968359 277.096875) rotate(-90) scale(0.06 -0.06)">
       <use xlink:href="#DejaVuSans-28"/>
       <use xlink:href="#DejaVuSans-32" x="39.013672"/>
       <use xlink:href="#DejaVuSans-37" x="102.636719"/>
       <use xlink:href="#DejaVuSans-29" x="166.259766"/>
      </g>
     </g>
    </g>
    <g id="xtick_17">
     <g id="text_17">
      <!-- (8) -->
      <g transform="translate(184.027891 273.279375) rotate(-90) scale(0.06 -0.06)">
       <defs>
        <path id="DejaVuSans-38" d="M 2034 2216 
Q 1584 2216 1326 1975 
Q 1069 1734 1069 1313 
Q 1069 891 1326 650 
Q 1584 409 2034 409 
Q 2484 409 2743 651 
Q 3003 894 3003 1313 
Q 3003 1734 2745 1975 
Q 2488 2216 2034 2216 
z
M 1403 2484 
Q 997 2584 770 2862 
Q 544 3141 544 3541 
Q 544 4100 942 4425 
Q 1341 4750 2034 4750 
Q 2731 4750 3128 4425 
Q 3525 4100 3525 3541 
Q 3525 3141 3298 2862 
Q 3072 2584 2669 2484 
Q 3125 2378 3379 2068 
Q 3634 1759 3634 1313 
Q 3634 634 3220 271 
Q 2806 -91 2034 -91 
Q 1263 -91 848 271 
Q 434 634 434 1313 
Q 434 1759 690 2068 
Q 947 2378 1403 2484 
z
M 1172 3481 
Q 1172 3119 1398 2916 
Q 1625 2713 2034 2713 
Q 2441 2713 2670 2916 
Q 2900 3119 2900 3481 
Q 2900 3844 2670 4047 
Q 2441 4250 2034 4250 
Q 1625 4250 1398 4047 
Q 1172 3844 1172 3481 
z
" transform="scale(0.015625)"/>
       </defs>
       <use xlink:href="#DejaVuSans-28"/>
       <use xlink:href="#DejaVuSans-38" x="39.013672"/>
       <use xlink:href="#DejaVuSans-29" x="102.636719"/>
      </g>
     </g>
    </g>
    <g id="xtick_18">
     <g id="text_18">
      <!-- (13) -->
      <g transform="translate(192.087422 277.096875) rotate(-90) scale(0.06 -0.06)">
       <use xlink:href="#DejaVuSans-28"/>
       <use xlink:href="#DejaVuSans-31" x="39.013672"/>
       <use xlink:href="#DejaVuSans-33" x="102.636719"/>
       <use xlink:href="#DejaVuSans-29" x="166.259766"/>
      </g>
     </g>
    </g>
    <g id="xtick_19">
     <g id="text_19">
      <!-- (18) -->
      <g transform="translate(200.146953 277.096875) rotate(-90) scale(0.06 -0.06)">
       <use xlink:href="#DejaVuSans-28"/>
       <use xlink:href="#DejaVuSans-31" x="39.013672"/>
       <use xlink:href="#DejaVuSans-38" x="102.636719"/>
       <use xlink:href="#DejaVuSans-29" x="166.259766"/>
      </g>
     </g>
    </g>
    <g id="xtick_20">
     <g id="text_20">
      <!-- (24) -->
      <g transform="translate(208.206484 277.096875) rotate(-90) scale(0.06 -0.06)">
       <use xlink:href="#DejaVuSans-28"/>
       <use xlink:href="#DejaVuSans-32" x="39.013672"/>
       <use xlink:href="#DejaVuSans-34" x="102.636719"/>
       <use xlink:href="#DejaVuSans-29" x="166.259766"/>
      </g>
     </g>
    </g>
    <g id="xtick_21">
     <g id="text_21">
      <!-- (5) -->
      <g transform="translate(216.266016 273.279375) rotate(-90) scale(0.06 -0.06)">
       <use xlink:href="#DejaVuSans-28"/>
       <use xlink:href="#DejaVuSans-35" x="39.013672"/>
       <use xlink:href="#DejaVuSans-29" x="102.636719"/>
      </g>
     </g>
    </g>
    <g id="xtick_22">
     <g id="text_22">
      <!-- (12) -->
      <g transform="translate(224.325547 277.096875) rotate(-90) scale(0.06 -0.06)">
       <use xlink:href="#DejaVuSans-28"/>
       <use xlink:href="#DejaVuSans-31" x="39.013672"/>
       <use xlink:href="#DejaVuSans-32" x="102.636719"/>
       <use xlink:href="#DejaVuSans-29" x="166.259766"/>
      </g>
     </g>
    </g>
    <g id="xtick_23">
     <g id="text_23">
      <!-- (8) -->
      <g transform="translate(232.385078 273.279375) rotate(-90) scale(0.06 -0.06)">
       <use xlink:href="#DejaVuSans-28"/>
       <use xlink:href="#DejaVuSans-38" x="39.013672"/>
       <use xlink:href="#DejaVuSans-29" x="102.636719"/>
      </g>
     </g>
    </g>
    <g id="xtick_24">
     <g id="text_24">
      <!-- (30) -->
      <g transform="translate(240.444609 277.096875) rotate(-90) scale(0.06 -0.06)">
       <use xlink:href="#DejaVuSans-28"/>
       <use xlink:href="#DejaVuSans-33" x="39.013672"/>
       <use xlink:href="#DejaVuSans-30" x="102.636719"/>
       <use xlink:href="#DejaVuSans-29" x="166.259766"/>
      </g>
     </g>
    </g>
    <g id="xtick_25">
     <g id="text_25">
      <!-- (9) -->
      <g transform="translate(248.504141 273.279375) rotate(-90) scale(0.06 -0.06)">
       <use xlink:href="#DejaVuSans-28"/>
       <use xlink:href="#DejaVuSans-39" x="39.013672"/>
       <use xlink:href="#DejaVuSans-29" x="102.636719"/>
      </g>
     </g>
    </g>
    <g id="xtick_26">
     <g id="text_26">
      <!-- (12) -->
      <g transform="translate(256.563672 277.096875) rotate(-90) scale(0.06 -0.06)">
       <use xlink:href="#DejaVuSans-28"/>
       <use xlink:href="#DejaVuSans-31" x="39.013672"/>
       <use xlink:href="#DejaVuSans-32" x="102.636719"/>
       <use xlink:href="#DejaVuSans-29" x="166.259766"/>
      </g>
     </g>
    </g>
    <g id="xtick_27">
     <g id="text_27">
      <!-- (12) -->
      <g transform="translate(264.623203 277.096875) rotate(-90) scale(0.06 -0.06)">
       <use xlink:href="#DejaVuSans-28"/>
       <use xlink:href="#DejaVuSans-31" x="39.013672"/>
       <use xlink:href="#DejaVuSans-32" x="102.636719"/>
       <use xlink:href="#DejaVuSans-29" x="166.259766"/>
      </g>
     </g>
    </g>
    <g id="xtick_28">
     <g id="text_28">
      <!-- (28) -->
      <g transform="translate(272.682734 277.096875) rotate(-90) scale(0.06 -0.06)">
       <use xlink:href="#DejaVuSans-28"/>
       <use xlink:href="#DejaVuSans-32" x="39.013672"/>
       <use xlink:href="#DejaVuSans-38" x="102.636719"/>
       <use xlink:href="#DejaVuSans-29" x="166.259766"/>
      </g>
     </g>
    </g>
    <g id="xtick_29">
     <g id="text_29">
      <!-- 760 -->
      <g transform="translate(280.742266 276.2325) rotate(-90) scale(0.06 -0.06)">
       <defs>
        <path id="DejaVuSans-36" d="M 2113 2584 
Q 1688 2584 1439 2293 
Q 1191 2003 1191 1497 
Q 1191 994 1439 701 
Q 1688 409 2113 409 
Q 2538 409 2786 701 
Q 3034 994 3034 1497 
Q 3034 2003 2786 2293 
Q 2538 2584 2113 2584 
z
M 3366 4563 
L 3366 3988 
Q 3128 4100 2886 4159 
Q 2644 4219 2406 4219 
Q 1781 4219 1451 3797 
Q 1122 3375 1075 2522 
Q 1259 2794 1537 2939 
Q 1816 3084 2150 3084 
Q 2853 3084 3261 2657 
Q 3669 2231 3669 1497 
Q 3669 778 3244 343 
Q 2819 -91 2113 -91 
Q 1303 -91 875 529 
Q 447 1150 447 2328 
Q 447 3434 972 4092 
Q 1497 4750 2381 4750 
Q 2619 4750 2861 4703 
Q 3103 4656 3366 4563 
z
" transform="scale(0.015625)"/>
       </defs>
       <use xlink:href="#DejaVuSans-37"/>
       <use xlink:href="#DejaVuSans-36" x="63.623047"/>
       <use xlink:href="#DejaVuSans-30" x="127.246094"/>
      </g>
     </g>
    </g>
    <g id="xtick_30">
     <g id="text_30">
      <!-- 761 -->
      <g transform="translate(288.801797 276.2325) rotate(-90) scale(0.06 -0.06)">
       <use xlink:href="#DejaVuSans-37"/>
       <use xlink:href="#DejaVuSans-36" x="63.623047"/>
       <use xlink:href="#DejaVuSans-31" x="127.246094"/>
      </g>
     </g>
    </g>
    <g id="xtick_31">
     <g id="text_31">
      <!-- (34) -->
      <g transform="translate(296.861328 277.096875) rotate(-90) scale(0.06 -0.06)">
       <use xlink:href="#DejaVuSans-28"/>
       <use xlink:href="#DejaVuSans-33" x="39.013672"/>
       <use xlink:href="#DejaVuSans-34" x="102.636719"/>
       <use xlink:href="#DejaVuSans-29" x="166.259766"/>
      </g>
     </g>
    </g>
    <g id="xtick_32">
     <g id="text_32">
      <!-- (35) -->
      <g transform="translate(304.920859 277.096875) rotate(-90) scale(0.06 -0.06)">
       <use xlink:href="#DejaVuSans-28"/>
       <use xlink:href="#DejaVuSans-33" x="39.013672"/>
       <use xlink:href="#DejaVuSans-35" x="102.636719"/>
       <use xlink:href="#DejaVuSans-29" x="166.259766"/>
      </g>
     </g>
    </g>
    <g id="xtick_33">
     <g id="text_33">
      <!-- (6) -->
      <g transform="translate(312.980391 273.279375) rotate(-90) scale(0.06 -0.06)">
       <use xlink:href="#DejaVuSans-28"/>
       <use xlink:href="#DejaVuSans-36" x="39.013672"/>
       <use xlink:href="#DejaVuSans-29" x="102.636719"/>
      </g>
     </g>
    </g>
    <g id="xtick_34">
     <g id="text_34">
      <!-- (8) -->
      <g transform="translate(321.039922 273.279375) rotate(-90) scale(0.06 -0.06)">
       <use xlink:href="#DejaVuSans-28"/>
       <use xlink:href="#DejaVuSans-38" x="39.013672"/>
       <use xlink:href="#DejaVuSans-29" x="102.636719"/>
      </g>
     </g>
    </g>
    <g id="xtick_35">
     <g id="text_35">
      <!-- (12) -->
      <g transform="translate(329.099453 277.096875) rotate(-90) scale(0.06 -0.06)">
       <use xlink:href="#DejaVuSans-28"/>
       <use xlink:href="#DejaVuSans-31" x="39.013672"/>
       <use xlink:href="#DejaVuSans-32" x="102.636719"/>
       <use xlink:href="#DejaVuSans-29" x="166.259766"/>
      </g>
     </g>
    </g>
    <g id="xtick_36">
     <g id="text_36">
      <!-- (14) -->
      <g transform="translate(337.158984 277.096875) rotate(-90) scale(0.06 -0.06)">
       <use xlink:href="#DejaVuSans-28"/>
       <use xlink:href="#DejaVuSans-31" x="39.013672"/>
       <use xlink:href="#DejaVuSans-34" x="102.636719"/>
       <use xlink:href="#DejaVuSans-29" x="166.259766"/>
      </g>
     </g>
    </g>
    <g id="xtick_37">
     <g id="text_37">
      <!-- (9) -->
      <g transform="translate(345.218516 273.279375) rotate(-90) scale(0.06 -0.06)">
       <use xlink:href="#DejaVuSans-28"/>
       <use xlink:href="#DejaVuSans-39" x="39.013672"/>
       <use xlink:href="#DejaVuSans-29" x="102.636719"/>
      </g>
     </g>
    </g>
    <g id="xtick_38">
     <g id="text_38">
      <!-- (9) -->
      <g transform="translate(353.278047 273.279375) rotate(-90) scale(0.06 -0.06)">
       <use xlink:href="#DejaVuSans-28"/>
       <use xlink:href="#DejaVuSans-39" x="39.013672"/>
       <use xlink:href="#DejaVuSans-29" x="102.636719"/>
      </g>
     </g>
    </g>
    <g id="xtick_39">
     <g id="text_39">
      <!-- (5) -->
      <g transform="translate(361.337578 273.279375) rotate(-90) scale(0.06 -0.06)">
       <use xlink:href="#DejaVuSans-28"/>
       <use xlink:href="#DejaVuSans-35" x="39.013672"/>
       <use xlink:href="#DejaVuSans-29" x="102.636719"/>
      </g>
     </g>
    </g>
    <g id="xtick_40">
     <g id="text_40">
      <!-- (20) -->
      <g transform="translate(369.397109 277.096875) rotate(-90) scale(0.06 -0.06)">
       <use xlink:href="#DejaVuSans-28"/>
       <use xlink:href="#DejaVuSans-32" x="39.013672"/>
       <use xlink:href="#DejaVuSans-30" x="102.636719"/>
       <use xlink:href="#DejaVuSans-29" x="166.259766"/>
      </g>
     </g>
    </g>
    <g id="xtick_41">
     <g id="text_41">
      <!-- (17) -->
      <g transform="translate(377.456641 277.096875) rotate(-90) scale(0.06 -0.06)">
       <use xlink:href="#DejaVuSans-28"/>
       <use xlink:href="#DejaVuSans-31" x="39.013672"/>
       <use xlink:href="#DejaVuSans-37" x="102.636719"/>
       <use xlink:href="#DejaVuSans-29" x="166.259766"/>
      </g>
     </g>
    </g>
    <g id="xtick_42">
     <g id="text_42">
      <!-- (16) -->
      <g transform="translate(385.516172 277.096875) rotate(-90) scale(0.06 -0.06)">
       <use xlink:href="#DejaVuSans-28"/>
       <use xlink:href="#DejaVuSans-31" x="39.013672"/>
       <use xlink:href="#DejaVuSans-36" x="102.636719"/>
       <use xlink:href="#DejaVuSans-29" x="166.259766"/>
      </g>
     </g>
    </g>
    <g id="xtick_43">
     <g id="text_43">
      <!-- (17) -->
      <g transform="translate(393.575703 277.096875) rotate(-90) scale(0.06 -0.06)">
       <use xlink:href="#DejaVuSans-28"/>
       <use xlink:href="#DejaVuSans-31" x="39.013672"/>
       <use xlink:href="#DejaVuSans-37" x="102.636719"/>
       <use xlink:href="#DejaVuSans-29" x="166.259766"/>
      </g>
     </g>
    </g>
    <g id="xtick_44">
     <g id="text_44">
      <!-- (16) -->
      <g transform="translate(401.635234 277.096875) rotate(-90) scale(0.06 -0.06)">
       <use xlink:href="#DejaVuSans-28"/>
       <use xlink:href="#DejaVuSans-31" x="39.013672"/>
       <use xlink:href="#DejaVuSans-36" x="102.636719"/>
       <use xlink:href="#DejaVuSans-29" x="166.259766"/>
      </g>
     </g>
    </g>
    <g id="xtick_45">
     <g id="text_45">
      <!-- (16) -->
      <g transform="translate(409.694766 277.096875) rotate(-90) scale(0.06 -0.06)">
       <use xlink:href="#DejaVuSans-28"/>
       <use xlink:href="#DejaVuSans-31" x="39.013672"/>
       <use xlink:href="#DejaVuSans-36" x="102.636719"/>
       <use xlink:href="#DejaVuSans-29" x="166.259766"/>
      </g>
     </g>
    </g>
    <g id="xtick_46">
     <g id="text_46">
      <!-- (23) -->
      <g transform="translate(417.754297 277.096875) rotate(-90) scale(0.06 -0.06)">
       <use xlink:href="#DejaVuSans-28"/>
       <use xlink:href="#DejaVuSans-32" x="39.013672"/>
       <use xlink:href="#DejaVuSans-33" x="102.636719"/>
       <use xlink:href="#DejaVuSans-29" x="166.259766"/>
      </g>
     </g>
    </g>
    <g id="xtick_47">
     <g id="text_47">
      <!-- (10) -->
      <g transform="translate(425.813828 277.096875) rotate(-90) scale(0.06 -0.06)">
       <use xlink:href="#DejaVuSans-28"/>
       <use xlink:href="#DejaVuSans-31" x="39.013672"/>
       <use xlink:href="#DejaVuSans-30" x="102.636719"/>
       <use xlink:href="#DejaVuSans-29" x="166.259766"/>
      </g>
     </g>
    </g>
    <g id="xtick_48">
     <g id="text_48">
      <!-- (22) -->
      <g transform="translate(433.873359 277.096875) rotate(-90) scale(0.06 -0.06)">
       <use xlink:href="#DejaVuSans-28"/>
       <use xlink:href="#DejaVuSans-32" x="39.013672"/>
       <use xlink:href="#DejaVuSans-32" x="102.636719"/>
       <use xlink:href="#DejaVuSans-29" x="166.259766"/>
      </g>
     </g>
    </g>
    <g id="xtick_49">
     <g id="text_49">
      <!-- (21) -->
      <g transform="translate(441.932891 277.096875) rotate(-90) scale(0.06 -0.06)">
       <use xlink:href="#DejaVuSans-28"/>
       <use xlink:href="#DejaVuSans-32" x="39.013672"/>
       <use xlink:href="#DejaVuSans-31" x="102.636719"/>
       <use xlink:href="#DejaVuSans-29" x="166.259766"/>
      </g>
     </g>
    </g>
    <g id="xtick_50">
     <g id="text_50">
      <!-- (30) -->
      <g transform="translate(449.992422 277.096875) rotate(-90) scale(0.06 -0.06)">
       <use xlink:href="#DejaVuSans-28"/>
       <use xlink:href="#DejaVuSans-33" x="39.013672"/>
       <use xlink:href="#DejaVuSans-30" x="102.636719"/>
       <use xlink:href="#DejaVuSans-29" x="166.259766"/>
      </g>
     </g>
    </g>
    <g id="xtick_51">
     <g id="text_51">
      <!-- (15) -->
      <g transform="translate(458.051953 277.096875) rotate(-90) scale(0.06 -0.06)">
       <use xlink:href="#DejaVuSans-28"/>
       <use xlink:href="#DejaVuSans-31" x="39.013672"/>
       <use xlink:href="#DejaVuSans-35" x="102.636719"/>
       <use xlink:href="#DejaVuSans-29" x="166.259766"/>
      </g>
     </g>
    </g>
    <g id="xtick_52">
     <g id="text_52">
      <!-- (27) -->
      <g transform="translate(466.111484 277.096875) rotate(-90) scale(0.06 -0.06)">
       <use xlink:href="#DejaVuSans-28"/>
       <use xlink:href="#DejaVuSans-32" x="39.013672"/>
       <use xlink:href="#DejaVuSans-37" x="102.636719"/>
       <use xlink:href="#DejaVuSans-29" x="166.259766"/>
      </g>
     </g>
    </g>
    <g id="xtick_53">
     <g id="text_53">
      <!-- (35) -->
      <g transform="translate(474.171016 277.096875) rotate(-90) scale(0.06 -0.06)">
       <use xlink:href="#DejaVuSans-28"/>
       <use xlink:href="#DejaVuSans-33" x="39.013672"/>
       <use xlink:href="#DejaVuSans-35" x="102.636719"/>
       <use xlink:href="#DejaVuSans-29" x="166.259766"/>
      </g>
     </g>
    </g>
    <g id="xtick_54">
     <g id="text_54">
      <!-- (22) -->
      <g transform="translate(482.230547 277.096875) rotate(-90) scale(0.06 -0.06)">
       <use xlink:href="#DejaVuSans-28"/>
       <use xlink:href="#DejaVuSans-32" x="39.013672"/>
       <use xlink:href="#DejaVuSans-32" x="102.636719"/>
       <use xlink:href="#DejaVuSans-29" x="166.259766"/>
      </g>
     </g>
    </g>
    <g id="xtick_55">
     <g id="text_55">
      <!-- (26) -->
      <g transform="translate(490.290078 277.096875) rotate(-90) scale(0.06 -0.06)">
       <use xlink:href="#DejaVuSans-28"/>
       <use xlink:href="#DejaVuSans-32" x="39.013672"/>
       <use xlink:href="#DejaVuSans-36" x="102.636719"/>
       <use xlink:href="#DejaVuSans-29" x="166.259766"/>
      </g>
     </g>
    </g>
    <g id="xtick_56">
     <g id="text_56">
      <!-- (46) -->
      <g transform="translate(498.349609 277.096875) rotate(-90) scale(0.06 -0.06)">
       <use xlink:href="#DejaVuSans-28"/>
       <use xlink:href="#DejaVuSans-34" x="39.013672"/>
       <use xlink:href="#DejaVuSans-36" x="102.636719"/>
       <use xlink:href="#DejaVuSans-29" x="166.259766"/>
      </g>
     </g>
    </g>
    <g id="xtick_57">
     <g id="text_57">
      <!-- (25) -->
      <g transform="translate(506.409141 277.096875) rotate(-90) scale(0.06 -0.06)">
       <use xlink:href="#DejaVuSans-28"/>
       <use xlink:href="#DejaVuSans-32" x="39.013672"/>
       <use xlink:href="#DejaVuSans-35" x="102.636719"/>
       <use xlink:href="#DejaVuSans-29" x="166.259766"/>
      </g>
     </g>
    </g>
    <g id="xtick_58">
     <g id="text_58">
      <!-- (45) -->
      <g transform="translate(514.468672 277.096875) rotate(-90) scale(0.06 -0.06)">
       <use xlink:href="#DejaVuSans-28"/>
       <use xlink:href="#DejaVuSans-34" x="39.013672"/>
       <use xlink:href="#DejaVuSans-35" x="102.636719"/>
       <use xlink:href="#DejaVuSans-29" x="166.259766"/>
      </g>
     </g>
    </g>
    <g id="xtick_59">
     <g id="text_59">
      <!-- (7) -->
      <g transform="translate(522.528203 273.279375) rotate(-90) scale(0.06 -0.06)">
       <use xlink:href="#DejaVuSans-28"/>
       <use xlink:href="#DejaVuSans-37" x="39.013672"/>
       <use xlink:href="#DejaVuSans-29" x="102.636719"/>
      </g>
     </g>
    </g>
    <g id="xtick_60">
     <g id="text_60">
      <!-- (38) -->
      <g transform="translate(530.587734 277.096875) rotate(-90) scale(0.06 -0.06)">
       <use xlink:href="#DejaVuSans-28"/>
       <use xlink:href="#DejaVuSans-33" x="39.013672"/>
       <use xlink:href="#DejaVuSans-38" x="102.636719"/>
       <use xlink:href="#DejaVuSans-29" x="166.259766"/>
      </g>
     </g>
    </g>
    <g id="xtick_61">
     <g id="text_61">
      <!-- (46) -->
      <g transform="translate(538.647266 277.096875) rotate(-90) scale(0.06 -0.06)">
       <use xlink:href="#DejaVuSans-28"/>
       <use xlink:href="#DejaVuSans-34" x="39.013672"/>
       <use xlink:href="#DejaVuSans-36" x="102.636719"/>
       <use xlink:href="#DejaVuSans-29" x="166.259766"/>
      </g>
     </g>
    </g>
    <g id="xtick_62">
     <g id="text_62">
      <!-- (34) -->
      <g transform="translate(546.706797 277.096875) rotate(-90) scale(0.06 -0.06)">
       <use xlink:href="#DejaVuSans-28"/>
       <use xlink:href="#DejaVuSans-33" x="39.013672"/>
       <use xlink:href="#DejaVuSans-34" x="102.636719"/>
       <use xlink:href="#DejaVuSans-29" x="166.259766"/>
      </g>
     </g>
    </g>
    <g id="xtick_63">
     <g id="text_63">
      <!-- (47) -->
      <g transform="translate(554.766328 277.096875) rotate(-90) scale(0.06 -0.06)">
       <use xlink:href="#DejaVuSans-28"/>
       <use xlink:href="#DejaVuSans-34" x="39.013672"/>
       <use xlink:href="#DejaVuSans-37" x="102.636719"/>
       <use xlink:href="#DejaVuSans-29" x="166.259766"/>
      </g>
     </g>
    </g>
    <g id="xtick_64">
     <g id="text_64">
      <!-- (40) -->
      <g transform="translate(562.825859 277.096875) rotate(-90) scale(0.06 -0.06)">
       <use xlink:href="#DejaVuSans-28"/>
       <use xlink:href="#DejaVuSans-34" x="39.013672"/>
       <use xlink:href="#DejaVuSans-30" x="102.636719"/>
       <use xlink:href="#DejaVuSans-29" x="166.259766"/>
      </g>
     </g>
    </g>
   </g>
   <g id="matplotlib.axis_2">
    <g id="ytick_1">
     <g id="line2d_1">
      <defs>
       <path id="mdc887aeefe" d="M 0 0 
L -3.5 0 
" style="stroke: #000000; stroke-width: 0.8"/>
      </defs>
      <g>
       <use xlink:href="#mdc887aeefe" x="49.39" y="257.78" style="stroke: #000000; stroke-width: 0.8"/>
      </g>
     </g>
     <g id="text_65">
      <!-- 0 -->
      <g transform="translate(36.0275 261.579219) scale(0.1 -0.1)">
       <use xlink:href="#DejaVuSans-30"/>
      </g>
     </g>
    </g>
    <g id="ytick_2">
     <g id="line2d_2">
      <g>
       <use xlink:href="#mdc887aeefe" x="49.39" y="228.110542" style="stroke: #000000; stroke-width: 0.8"/>
      </g>
     </g>
     <g id="text_66">
      <!-- 2500 -->
      <g transform="translate(16.94 231.909761) scale(0.1 -0.1)">
       <use xlink:href="#DejaVuSans-32"/>
       <use xlink:href="#DejaVuSans-35" x="63.623047"/>
       <use xlink:href="#DejaVuSans-30" x="127.246094"/>
       <use xlink:href="#DejaVuSans-30" x="190.869141"/>
      </g>
     </g>
    </g>
    <g id="ytick_3">
     <g id="line2d_3">
      <g>
       <use xlink:href="#mdc887aeefe" x="49.39" y="198.441084" style="stroke: #000000; stroke-width: 0.8"/>
      </g>
     </g>
     <g id="text_67">
      <!-- 5000 -->
      <g transform="translate(16.94 202.240302) scale(0.1 -0.1)">
       <use xlink:href="#DejaVuSans-35"/>
       <use xlink:href="#DejaVuSans-30" x="63.623047"/>
       <use xlink:href="#DejaVuSans-30" x="127.246094"/>
       <use xlink:href="#DejaVuSans-30" x="190.869141"/>
      </g>
     </g>
    </g>
    <g id="ytick_4">
     <g id="line2d_4">
      <g>
       <use xlink:href="#mdc887aeefe" x="49.39" y="168.771625" style="stroke: #000000; stroke-width: 0.8"/>
      </g>
     </g>
     <g id="text_68">
      <!-- 7500 -->
      <g transform="translate(16.94 172.570844) scale(0.1 -0.1)">
       <use xlink:href="#DejaVuSans-37"/>
       <use xlink:href="#DejaVuSans-35" x="63.623047"/>
       <use xlink:href="#DejaVuSans-30" x="127.246094"/>
       <use xlink:href="#DejaVuSans-30" x="190.869141"/>
      </g>
     </g>
    </g>
    <g id="ytick_5">
     <g id="line2d_5">
      <g>
       <use xlink:href="#mdc887aeefe" x="49.39" y="139.102167" style="stroke: #000000; stroke-width: 0.8"/>
      </g>
     </g>
     <g id="text_69">
      <!-- 10000 -->
      <g transform="translate(10.5775 142.901386) scale(0.1 -0.1)">
       <use xlink:href="#DejaVuSans-31"/>
       <use xlink:href="#DejaVuSans-30" x="63.623047"/>
       <use xlink:href="#DejaVuSans-30" x="127.246094"/>
       <use xlink:href="#DejaVuSans-30" x="190.869141"/>
       <use xlink:href="#DejaVuSans-30" x="254.492188"/>
      </g>
     </g>
    </g>
    <g id="ytick_6">
     <g id="line2d_6">
      <g>
       <use xlink:href="#mdc887aeefe" x="49.39" y="109.432709" style="stroke: #000000; stroke-width: 0.8"/>
      </g>
     </g>
     <g id="text_70">
      <!-- 12500 -->
      <g transform="translate(10.5775 113.231928) scale(0.1 -0.1)">
       <use xlink:href="#DejaVuSans-31"/>
       <use xlink:href="#DejaVuSans-32" x="63.623047"/>
       <use xlink:href="#DejaVuSans-35" x="127.246094"/>
       <use xlink:href="#DejaVuSans-30" x="190.869141"/>
       <use xlink:href="#DejaVuSans-30" x="254.492188"/>
      </g>
     </g>
    </g>
    <g id="ytick_7">
     <g id="line2d_7">
      <g>
       <use xlink:href="#mdc887aeefe" x="49.39" y="79.763251" style="stroke: #000000; stroke-width: 0.8"/>
      </g>
     </g>
     <g id="text_71">
      <!-- 15000 -->
      <g transform="translate(10.5775 83.562469) scale(0.1 -0.1)">
       <use xlink:href="#DejaVuSans-31"/>
       <use xlink:href="#DejaVuSans-35" x="63.623047"/>
       <use xlink:href="#DejaVuSans-30" x="127.246094"/>
       <use xlink:href="#DejaVuSans-30" x="190.869141"/>
       <use xlink:href="#DejaVuSans-30" x="254.492188"/>
      </g>
     </g>
    </g>
    <g id="ytick_8">
     <g id="line2d_8">
      <g>
       <use xlink:href="#mdc887aeefe" x="49.39" y="50.093792" style="stroke: #000000; stroke-width: 0.8"/>
      </g>
     </g>
     <g id="text_72">
      <!-- 17500 -->
      <g transform="translate(10.5775 53.893011) scale(0.1 -0.1)">
       <use xlink:href="#DejaVuSans-31"/>
       <use xlink:href="#DejaVuSans-37" x="63.623047"/>
       <use xlink:href="#DejaVuSans-35" x="127.246094"/>
       <use xlink:href="#DejaVuSans-30" x="190.869141"/>
       <use xlink:href="#DejaVuSans-30" x="254.492188"/>
      </g>
     </g>
    </g>
   </g>
   <g id="LineCollection_1">
    <path d="M 53.419766 257.78 
L 53.419766 256.740088 
L 61.479297 256.740088 
L 61.479297 257.78 
" clip-path="url(#p7691b5955f)" style="fill: none; stroke: #ff7f0e; stroke-width: 1.5"/>
    <path d="M 69.538828 257.78 
L 69.538828 255.9194 
L 77.598359 255.9194 
L 77.598359 257.78 
" clip-path="url(#p7691b5955f)" style="fill: none; stroke: #ff7f0e; stroke-width: 1.5"/>
    <path d="M 57.449531 256.740088 
L 57.449531 255.243155 
L 73.568594 255.243155 
L 73.568594 255.9194 
" clip-path="url(#p7691b5955f)" style="fill: none; stroke: #ff7f0e; stroke-width: 1.5"/>
    <path d="M 85.657891 257.78 
L 85.657891 256.62946 
L 93.717422 256.62946 
L 93.717422 257.78 
" clip-path="url(#p7691b5955f)" style="fill: none; stroke: #ff7f0e; stroke-width: 1.5"/>
    <path d="M 101.776953 257.78 
L 101.776953 256.315764 
L 109.836484 256.315764 
L 109.836484 257.78 
" clip-path="url(#p7691b5955f)" style="fill: none; stroke: #ff7f0e; stroke-width: 1.5"/>
    <path d="M 89.687656 256.62946 
L 89.687656 254.400864 
L 105.806719 254.400864 
L 105.806719 256.315764 
" clip-path="url(#p7691b5955f)" style="fill: none; stroke: #ff7f0e; stroke-width: 1.5"/>
    <path d="M 65.509062 255.243155 
L 65.509062 253.357624 
L 97.747187 253.357624 
L 97.747187 254.400864 
" clip-path="url(#p7691b5955f)" style="fill: none; stroke: #ff7f0e; stroke-width: 1.5"/>
    <path d="M 117.896016 257.78 
L 117.896016 256.89003 
L 125.955547 256.89003 
L 125.955547 257.78 
" clip-path="url(#p7691b5955f)" style="fill: none; stroke: #ff7f0e; stroke-width: 1.5"/>
    <path d="M 134.015078 257.78 
L 134.015078 256.488661 
L 142.074609 256.488661 
L 142.074609 257.78 
" clip-path="url(#p7691b5955f)" style="fill: none; stroke: #ff7f0e; stroke-width: 1.5"/>
    <path d="M 121.925781 256.89003 
L 121.925781 255.50502 
L 138.044844 255.50502 
L 138.044844 256.488661 
" clip-path="url(#p7691b5955f)" style="fill: none; stroke: #ff7f0e; stroke-width: 1.5"/>
    <path d="M 150.134141 257.78 
L 150.134141 257.148291 
L 158.193672 257.148291 
L 158.193672 257.78 
" clip-path="url(#p7691b5955f)" style="fill: none; stroke: #ff7f0e; stroke-width: 1.5"/>
    <path d="M 166.253203 257.78 
L 166.253203 256.335965 
L 174.312734 256.335965 
L 174.312734 257.78 
" clip-path="url(#p7691b5955f)" style="fill: none; stroke: #ff7f0e; stroke-width: 1.5"/>
    <path d="M 154.163906 257.148291 
L 154.163906 254.437681 
L 170.282969 254.437681 
L 170.282969 256.335965 
" clip-path="url(#p7691b5955f)" style="fill: none; stroke: #ff7f0e; stroke-width: 1.5"/>
    <path d="M 129.985312 255.50502 
L 129.985312 252.83198 
L 162.223437 252.83198 
L 162.223437 254.437681 
" clip-path="url(#p7691b5955f)" style="fill: none; stroke: #ff7f0e; stroke-width: 1.5"/>
    <path d="M 81.628125 253.357624 
L 81.628125 245.41784 
L 146.104375 245.41784 
L 146.104375 252.83198 
" clip-path="url(#p7691b5955f)" style="fill: none; stroke: #ff7f0e; stroke-width: 1.5"/>
    <path d="M 182.372266 257.78 
L 182.372266 256.464921 
L 190.431797 256.464921 
L 190.431797 257.78 
" clip-path="url(#p7691b5955f)" style="fill: none; stroke: #ff7f0e; stroke-width: 1.5"/>
    <path d="M 198.491328 257.78 
L 198.491328 255.819933 
L 206.550859 255.819933 
L 206.550859 257.78 
" clip-path="url(#p7691b5955f)" style="fill: none; stroke: #ff7f0e; stroke-width: 1.5"/>
    <path d="M 186.402031 256.464921 
L 186.402031 254.627418 
L 202.521094 254.627418 
L 202.521094 255.819933 
" clip-path="url(#p7691b5955f)" style="fill: none; stroke: #ff7f0e; stroke-width: 1.5"/>
    <path d="M 214.610391 257.78 
L 214.610391 256.737221 
L 222.669922 256.737221 
L 222.669922 257.78 
" clip-path="url(#p7691b5955f)" style="fill: none; stroke: #ff7f0e; stroke-width: 1.5"/>
    <path d="M 230.729453 257.78 
L 230.729453 256.169034 
L 238.788984 256.169034 
L 238.788984 257.78 
" clip-path="url(#p7691b5955f)" style="fill: none; stroke: #ff7f0e; stroke-width: 1.5"/>
    <path d="M 218.640156 256.737221 
L 218.640156 254.277396 
L 234.759219 254.277396 
L 234.759219 256.169034 
" clip-path="url(#p7691b5955f)" style="fill: none; stroke: #ff7f0e; stroke-width: 1.5"/>
    <path d="M 194.461563 254.627418 
L 194.461563 250.795605 
L 226.699688 250.795605 
L 226.699688 254.277396 
" clip-path="url(#p7691b5955f)" style="fill: none; stroke: #ff7f0e; stroke-width: 1.5"/>
    <path d="M 246.848516 257.78 
L 246.848516 256.112346 
L 254.908047 256.112346 
L 254.908047 257.78 
" clip-path="url(#p7691b5955f)" style="fill: none; stroke: #ff7f0e; stroke-width: 1.5"/>
    <path d="M 262.967578 257.78 
L 262.967578 255.318577 
L 271.027109 255.318577 
L 271.027109 257.78 
" clip-path="url(#p7691b5955f)" style="fill: none; stroke: #ff7f0e; stroke-width: 1.5"/>
    <path d="M 250.878281 256.112346 
L 250.878281 254.197585 
L 266.997344 254.197585 
L 266.997344 255.318577 
" clip-path="url(#p7691b5955f)" style="fill: none; stroke: #ff7f0e; stroke-width: 1.5"/>
    <path d="M 279.086641 257.78 
L 279.086641 257.647314 
L 287.146172 257.647314 
L 287.146172 257.78 
" clip-path="url(#p7691b5955f)" style="fill: none; stroke: #ff7f0e; stroke-width: 1.5"/>
    <path d="M 295.205703 257.78 
L 295.205703 254.555321 
L 303.265234 254.555321 
L 303.265234 257.78 
" clip-path="url(#p7691b5955f)" style="fill: none; stroke: #ff7f0e; stroke-width: 1.5"/>
    <path d="M 283.116406 257.647314 
L 283.116406 251.909403 
L 299.235469 251.909403 
L 299.235469 254.555321 
" clip-path="url(#p7691b5955f)" style="fill: none; stroke: #ff7f0e; stroke-width: 1.5"/>
    <path d="M 258.937813 254.197585 
L 258.937813 249.121685 
L 291.175937 249.121685 
L 291.175937 251.909403 
" clip-path="url(#p7691b5955f)" style="fill: none; stroke: #ff7f0e; stroke-width: 1.5"/>
    <path d="M 210.580625 250.795605 
L 210.580625 235.019403 
L 275.056875 235.019403 
L 275.056875 249.121685 
" clip-path="url(#p7691b5955f)" style="fill: none; stroke: #ff7f0e; stroke-width: 1.5"/>
    <path d="M 113.86625 245.41784 
L 113.86625 209.803166 
L 242.81875 209.803166 
L 242.81875 235.019403 
" clip-path="url(#p7691b5955f)" style="fill: none; stroke: #ff7f0e; stroke-width: 1.5"/>
   </g>
   <g id="LineCollection_2">
    <path d="M 311.324766 257.78 
L 311.324766 257.106244 
L 319.384297 257.106244 
L 319.384297 257.78 
" clip-path="url(#p7691b5955f)" style="fill: none; stroke: #2ca02c; stroke-width: 1.5"/>
    <path d="M 327.443828 257.78 
L 327.443828 256.056446 
L 335.503359 256.056446 
L 335.503359 257.78 
" clip-path="url(#p7691b5955f)" style="fill: none; stroke: #2ca02c; stroke-width: 1.5"/>
    <path d="M 315.354531 257.106244 
L 315.354531 254.964601 
L 331.473594 254.964601 
L 331.473594 256.056446 
" clip-path="url(#p7691b5955f)" style="fill: none; stroke: #2ca02c; stroke-width: 1.5"/>
    <path d="M 343.562891 257.78 
L 343.562891 256.699226 
L 351.622422 256.699226 
L 351.622422 257.78 
" clip-path="url(#p7691b5955f)" style="fill: none; stroke: #2ca02c; stroke-width: 1.5"/>
    <path d="M 359.681953 257.78 
L 359.681953 255.682477 
L 367.741484 255.682477 
L 367.741484 257.78 
" clip-path="url(#p7691b5955f)" style="fill: none; stroke: #2ca02c; stroke-width: 1.5"/>
    <path d="M 347.592656 256.699226 
L 347.592656 254.22955 
L 363.711719 254.22955 
L 363.711719 255.682477 
" clip-path="url(#p7691b5955f)" style="fill: none; stroke: #2ca02c; stroke-width: 1.5"/>
    <path d="M 323.414062 254.964601 
L 323.414062 253.574477 
L 355.652187 253.574477 
L 355.652187 254.22955 
" clip-path="url(#p7691b5955f)" style="fill: none; stroke: #2ca02c; stroke-width: 1.5"/>
    <path d="M 375.801016 257.78 
L 375.801016 256.070705 
L 383.860547 256.070705 
L 383.860547 257.78 
" clip-path="url(#p7691b5955f)" style="fill: none; stroke: #2ca02c; stroke-width: 1.5"/>
    <path d="M 391.920078 257.78 
L 391.920078 255.922177 
L 399.979609 255.922177 
L 399.979609 257.78 
" clip-path="url(#p7691b5955f)" style="fill: none; stroke: #2ca02c; stroke-width: 1.5"/>
    <path d="M 379.830781 256.070705 
L 379.830781 254.586777 
L 395.949844 254.586777 
L 395.949844 255.922177 
" clip-path="url(#p7691b5955f)" style="fill: none; stroke: #2ca02c; stroke-width: 1.5"/>
    <path d="M 408.039141 257.78 
L 408.039141 255.48959 
L 416.098672 255.48959 
L 416.098672 257.78 
" clip-path="url(#p7691b5955f)" style="fill: none; stroke: #2ca02c; stroke-width: 1.5"/>
    <path d="M 424.158203 257.78 
L 424.158203 254.713389 
L 432.217734 254.713389 
L 432.217734 257.78 
" clip-path="url(#p7691b5955f)" style="fill: none; stroke: #2ca02c; stroke-width: 1.5"/>
    <path d="M 412.068906 255.48959 
L 412.068906 252.702928 
L 428.187969 252.702928 
L 428.187969 254.713389 
" clip-path="url(#p7691b5955f)" style="fill: none; stroke: #2ca02c; stroke-width: 1.5"/>
    <path d="M 387.890312 254.586777 
L 387.890312 248.525596 
L 420.128437 248.525596 
L 420.128437 252.702928 
" clip-path="url(#p7691b5955f)" style="fill: none; stroke: #2ca02c; stroke-width: 1.5"/>
    <path d="M 339.533125 253.574477 
L 339.533125 239.049587 
L 404.009375 239.049587 
L 404.009375 248.525596 
" clip-path="url(#p7691b5955f)" style="fill: none; stroke: #2ca02c; stroke-width: 1.5"/>
    <path d="M 440.277266 257.78 
L 440.277266 255.363587 
L 448.336797 255.363587 
L 448.336797 257.78 
" clip-path="url(#p7691b5955f)" style="fill: none; stroke: #2ca02c; stroke-width: 1.5"/>
    <path d="M 456.396328 257.78 
L 456.396328 253.699546 
L 464.455859 253.699546 
L 464.455859 257.78 
" clip-path="url(#p7691b5955f)" style="fill: none; stroke: #2ca02c; stroke-width: 1.5"/>
    <path d="M 444.307031 255.363587 
L 444.307031 252.782953 
L 460.426094 252.782953 
L 460.426094 253.699546 
" clip-path="url(#p7691b5955f)" style="fill: none; stroke: #2ca02c; stroke-width: 1.5"/>
    <path d="M 472.515391 257.78 
L 472.515391 254.88362 
L 480.574922 254.88362 
L 480.574922 257.78 
" clip-path="url(#p7691b5955f)" style="fill: none; stroke: #2ca02c; stroke-width: 1.5"/>
    <path d="M 488.634453 257.78 
L 488.634453 253.524252 
L 496.693984 253.524252 
L 496.693984 257.78 
" clip-path="url(#p7691b5955f)" style="fill: none; stroke: #2ca02c; stroke-width: 1.5"/>
    <path d="M 476.545156 254.88362 
L 476.545156 248.388633 
L 492.664219 248.388633 
L 492.664219 253.524252 
" clip-path="url(#p7691b5955f)" style="fill: none; stroke: #2ca02c; stroke-width: 1.5"/>
    <path d="M 452.366562 252.782953 
L 452.366562 236.899681 
L 484.604687 236.899681 
L 484.604687 248.388633 
" clip-path="url(#p7691b5955f)" style="fill: none; stroke: #2ca02c; stroke-width: 1.5"/>
    <path d="M 504.753516 257.78 
L 504.753516 254.256296 
L 512.813047 254.256296 
L 512.813047 257.78 
" clip-path="url(#p7691b5955f)" style="fill: none; stroke: #2ca02c; stroke-width: 1.5"/>
    <path d="M 520.872578 257.78 
L 520.872578 253.56068 
L 528.932109 253.56068 
L 528.932109 257.78 
" clip-path="url(#p7691b5955f)" style="fill: none; stroke: #2ca02c; stroke-width: 1.5"/>
    <path d="M 508.783281 254.256296 
L 508.783281 250.557551 
L 524.902344 250.557551 
L 524.902344 253.56068 
" clip-path="url(#p7691b5955f)" style="fill: none; stroke: #2ca02c; stroke-width: 1.5"/>
    <path d="M 536.991641 257.78 
L 536.991641 253.770125 
L 545.051172 253.770125 
L 545.051172 257.78 
" clip-path="url(#p7691b5955f)" style="fill: none; stroke: #2ca02c; stroke-width: 1.5"/>
    <path d="M 553.110703 257.78 
L 553.110703 252.262412 
L 561.170234 252.262412 
L 561.170234 257.78 
" clip-path="url(#p7691b5955f)" style="fill: none; stroke: #2ca02c; stroke-width: 1.5"/>
    <path d="M 541.021406 253.770125 
L 541.021406 244.828353 
L 557.140469 244.828353 
L 557.140469 252.262412 
" clip-path="url(#p7691b5955f)" style="fill: none; stroke: #2ca02c; stroke-width: 1.5"/>
    <path d="M 516.842812 250.557551 
L 516.842812 230.598109 
L 549.080938 230.598109 
L 549.080938 244.828353 
" clip-path="url(#p7691b5955f)" style="fill: none; stroke: #2ca02c; stroke-width: 1.5"/>
    <path d="M 468.485625 236.899681 
L 468.485625 191.696127 
L 532.961875 191.696127 
L 532.961875 230.598109 
" clip-path="url(#p7691b5955f)" style="fill: none; stroke: #2ca02c; stroke-width: 1.5"/>
    <path d="M 371.77125 239.049587 
L 371.77125 151.869119 
L 500.72375 151.869119 
L 500.72375 191.696127 
" clip-path="url(#p7691b5955f)" style="fill: none; stroke: #2ca02c; stroke-width: 1.5"/>
   </g>
   <g id="LineCollection_3">
    <path d="M 178.3425 209.803166 
L 178.3425 37.875238 
L 436.2475 37.875238 
L 436.2475 151.869119 
" clip-path="url(#p7691b5955f)" style="fill: none; stroke: #1f77b4; stroke-width: 1.5"/>
   </g>
   <g id="patch_3">
    <path d="M 49.39 257.78 
L 49.39 26.88 
" style="fill: none; stroke: #000000; stroke-width: 0.8; stroke-linejoin: miter; stroke-linecap: square"/>
   </g>
   <g id="patch_4">
    <path d="M 565.2 257.78 
L 565.2 26.88 
" style="fill: none; stroke: #000000; stroke-width: 0.8; stroke-linejoin: miter; stroke-linecap: square"/>
   </g>
   <g id="patch_5">
    <path d="M 49.39 257.78 
L 565.2 257.78 
" style="fill: none; stroke: #000000; stroke-width: 0.8; stroke-linejoin: miter; stroke-linecap: square"/>
   </g>
   <g id="patch_6">
    <path d="M 49.39 26.88 
L 565.2 26.88 
" style="fill: none; stroke: #000000; stroke-width: 0.8; stroke-linejoin: miter; stroke-linecap: square"/>
   </g>
   <g id="text_73">
    <!-- Dendrogram (ward linkage) -->
    <g transform="translate(224.638437 20.88) scale(0.12 -0.12)">
     <defs>
      <path id="DejaVuSans-44" d="M 1259 4147 
L 1259 519 
L 2022 519 
Q 2988 519 3436 956 
Q 3884 1394 3884 2338 
Q 3884 3275 3436 3711 
Q 2988 4147 2022 4147 
L 1259 4147 
z
M 628 4666 
L 1925 4666 
Q 3281 4666 3915 4102 
Q 4550 3538 4550 2338 
Q 4550 1131 3912 565 
Q 3275 0 1925 0 
L 628 0 
L 628 4666 
z
" transform="scale(0.015625)"/>
      <path id="DejaVuSans-65" d="M 3597 1894 
L 3597 1613 
L 953 1613 
Q 991 1019 1311 708 
Q 1631 397 2203 397 
Q 2534 397 2845 478 
Q 3156 559 3463 722 
L 3463 178 
Q 3153 47 2828 -22 
Q 2503 -91 2169 -91 
Q 1331 -91 842 396 
Q 353 884 353 1716 
Q 353 2575 817 3079 
Q 1281 3584 2069 3584 
Q 2775 3584 3186 3129 
Q 3597 2675 3597 1894 
z
M 3022 2063 
Q 3016 2534 2758 2815 
Q 2500 3097 2075 3097 
Q 1594 3097 1305 2825 
Q 1016 2553 972 2059 
L 3022 2063 
z
" transform="scale(0.015625)"/>
      <path id="DejaVuSans-6e" d="M 3513 2113 
L 3513 0 
L 2938 0 
L 2938 2094 
Q 2938 2591 2744 2837 
Q 2550 3084 2163 3084 
Q 1697 3084 1428 2787 
Q 1159 2491 1159 1978 
L 1159 0 
L 581 0 
L 581 3500 
L 1159 3500 
L 1159 2956 
Q 1366 3272 1645 3428 
Q 1925 3584 2291 3584 
Q 2894 3584 3203 3211 
Q 3513 2838 3513 2113 
z
" transform="scale(0.015625)"/>
      <path id="DejaVuSans-64" d="M 2906 2969 
L 2906 4863 
L 3481 4863 
L 3481 0 
L 2906 0 
L 2906 525 
Q 2725 213 2448 61 
Q 2172 -91 1784 -91 
Q 1150 -91 751 415 
Q 353 922 353 1747 
Q 353 2572 751 3078 
Q 1150 3584 1784 3584 
Q 2172 3584 2448 3432 
Q 2725 3281 2906 2969 
z
M 947 1747 
Q 947 1113 1208 752 
Q 1469 391 1925 391 
Q 2381 391 2643 752 
Q 2906 1113 2906 1747 
Q 2906 2381 2643 2742 
Q 2381 3103 1925 3103 
Q 1469 3103 1208 2742 
Q 947 2381 947 1747 
z
" transform="scale(0.015625)"/>
      <path id="DejaVuSans-72" d="M 2631 2963 
Q 2534 3019 2420 3045 
Q 2306 3072 2169 3072 
Q 1681 3072 1420 2755 
Q 1159 2438 1159 1844 
L 1159 0 
L 581 0 
L 581 3500 
L 1159 3500 
L 1159 2956 
Q 1341 3275 1631 3429 
Q 1922 3584 2338 3584 
Q 2397 3584 2469 3576 
Q 2541 3569 2628 3553 
L 2631 2963 
z
" transform="scale(0.015625)"/>
      <path id="DejaVuSans-6f" d="M 1959 3097 
Q 1497 3097 1228 2736 
Q 959 2375 959 1747 
Q 959 1119 1226 758 
Q 1494 397 1959 397 
Q 2419 397 2687 759 
Q 2956 1122 2956 1747 
Q 2956 2369 2687 2733 
Q 2419 3097 1959 3097 
z
M 1959 3584 
Q 2709 3584 3137 3096 
Q 3566 2609 3566 1747 
Q 3566 888 3137 398 
Q 2709 -91 1959 -91 
Q 1206 -91 779 398 
Q 353 888 353 1747 
Q 353 2609 779 3096 
Q 1206 3584 1959 3584 
z
" transform="scale(0.015625)"/>
      <path id="DejaVuSans-67" d="M 2906 1791 
Q 2906 2416 2648 2759 
Q 2391 3103 1925 3103 
Q 1463 3103 1205 2759 
Q 947 2416 947 1791 
Q 947 1169 1205 825 
Q 1463 481 1925 481 
Q 2391 481 2648 825 
Q 2906 1169 2906 1791 
z
M 3481 434 
Q 3481 -459 3084 -895 
Q 2688 -1331 1869 -1331 
Q 1566 -1331 1297 -1286 
Q 1028 -1241 775 -1147 
L 775 -588 
Q 1028 -725 1275 -790 
Q 1522 -856 1778 -856 
Q 2344 -856 2625 -561 
Q 2906 -266 2906 331 
L 2906 616 
Q 2728 306 2450 153 
Q 2172 0 1784 0 
Q 1141 0 747 490 
Q 353 981 353 1791 
Q 353 2603 747 3093 
Q 1141 3584 1784 3584 
Q 2172 3584 2450 3431 
Q 2728 3278 2906 2969 
L 2906 3500 
L 3481 3500 
L 3481 434 
z
" transform="scale(0.015625)"/>
      <path id="DejaVuSans-61" d="M 2194 1759 
Q 1497 1759 1228 1600 
Q 959 1441 959 1056 
Q 959 750 1161 570 
Q 1363 391 1709 391 
Q 2188 391 2477 730 
Q 2766 1069 2766 1631 
L 2766 1759 
L 2194 1759 
z
M 3341 1997 
L 3341 0 
L 2766 0 
L 2766 531 
Q 2569 213 2275 61 
Q 1981 -91 1556 -91 
Q 1019 -91 701 211 
Q 384 513 384 1019 
Q 384 1609 779 1909 
Q 1175 2209 1959 2209 
L 2766 2209 
L 2766 2266 
Q 2766 2663 2505 2880 
Q 2244 3097 1772 3097 
Q 1472 3097 1187 3025 
Q 903 2953 641 2809 
L 641 3341 
Q 956 3463 1253 3523 
Q 1550 3584 1831 3584 
Q 2591 3584 2966 3190 
Q 3341 2797 3341 1997 
z
" transform="scale(0.015625)"/>
      <path id="DejaVuSans-6d" d="M 3328 2828 
Q 3544 3216 3844 3400 
Q 4144 3584 4550 3584 
Q 5097 3584 5394 3201 
Q 5691 2819 5691 2113 
L 5691 0 
L 5113 0 
L 5113 2094 
Q 5113 2597 4934 2840 
Q 4756 3084 4391 3084 
Q 3944 3084 3684 2787 
Q 3425 2491 3425 1978 
L 3425 0 
L 2847 0 
L 2847 2094 
Q 2847 2600 2669 2842 
Q 2491 3084 2119 3084 
Q 1678 3084 1418 2786 
Q 1159 2488 1159 1978 
L 1159 0 
L 581 0 
L 581 3500 
L 1159 3500 
L 1159 2956 
Q 1356 3278 1631 3431 
Q 1906 3584 2284 3584 
Q 2666 3584 2933 3390 
Q 3200 3197 3328 2828 
z
" transform="scale(0.015625)"/>
      <path id="DejaVuSans-20" transform="scale(0.015625)"/>
      <path id="DejaVuSans-77" d="M 269 3500 
L 844 3500 
L 1563 769 
L 2278 3500 
L 2956 3500 
L 3675 769 
L 4391 3500 
L 4966 3500 
L 4050 0 
L 3372 0 
L 2619 2869 
L 1863 0 
L 1184 0 
L 269 3500 
z
" transform="scale(0.015625)"/>
      <path id="DejaVuSans-6c" d="M 603 4863 
L 1178 4863 
L 1178 0 
L 603 0 
L 603 4863 
z
" transform="scale(0.015625)"/>
      <path id="DejaVuSans-69" d="M 603 3500 
L 1178 3500 
L 1178 0 
L 603 0 
L 603 3500 
z
M 603 4863 
L 1178 4863 
L 1178 4134 
L 603 4134 
L 603 4863 
z
" transform="scale(0.015625)"/>
      <path id="DejaVuSans-6b" d="M 581 4863 
L 1159 4863 
L 1159 1991 
L 2875 3500 
L 3609 3500 
L 1753 1863 
L 3688 0 
L 2938 0 
L 1159 1709 
L 1159 0 
L 581 0 
L 581 4863 
z
" transform="scale(0.015625)"/>
     </defs>
     <use xlink:href="#DejaVuSans-44"/>
     <use xlink:href="#DejaVuSans-65" x="77.001953"/>
     <use xlink:href="#DejaVuSans-6e" x="138.525391"/>
     <use xlink:href="#DejaVuSans-64" x="201.904297"/>
     <use xlink:href="#DejaVuSans-72" x="265.380859"/>
     <use xlink:href="#DejaVuSans-6f" x="304.244141"/>
     <use xlink:href="#DejaVuSans-67" x="365.425781"/>
     <use xlink:href="#DejaVuSans-72" x="428.902344"/>
     <use xlink:href="#DejaVuSans-61" x="470.015625"/>
     <use xlink:href="#DejaVuSans-6d" x="531.294922"/>
     <use xlink:href="#DejaVuSans-20" x="628.707031"/>
     <use xlink:href="#DejaVuSans-28" x="660.494141"/>
     <use xlink:href="#DejaVuSans-77" x="699.507812"/>
     <use xlink:href="#DejaVuSans-61" x="781.294922"/>
     <use xlink:href="#DejaVuSans-72" x="842.574219"/>
     <use xlink:href="#DejaVuSans-64" x="881.9375"/>
     <use xlink:href="#DejaVuSans-20" x="945.414062"/>
     <use xlink:href="#DejaVuSans-6c" x="977.201172"/>
     <use xlink:href="#DejaVuSans-69" x="1004.984375"/>
     <use xlink:href="#DejaVuSans-6e" x="1032.767578"/>
     <use xlink:href="#DejaVuSans-6b" x="1096.146484"/>
     <use xlink:href="#DejaVuSans-61" x="1152.306641"/>
     <use xlink:href="#DejaVuSans-67" x="1213.585938"/>
     <use xlink:href="#DejaVuSans-65" x="1277.0625"/>
     <use xlink:href="#DejaVuSans-29" x="1338.585938"/>
    </g>
   </g>
  </g>
 </g>
 <defs>
  <clipPath id="p7691b5955f">
   <rect x="49.39" y="26.88" width="515.81" height="230.9"/>
  </clipPath>
 </defs>
</svg>
