<?xml version="1.0" encoding="utf-8" standalone="no"?>
<!DOCTYPE svg PUBLIC "-//W3C//DTD SVG 1.1//EN"
  "http://www.w3.org/Graphics/SVG/1.1/DTD/svg11.dtd">
<svg xmlns:xlink="http://www.w3.org/1999/xlink" width="576pt" height="288pt" viewBox="0 0 576 288" xmlns="http://www.w3.org/2000/svg" version="1.1">
 <metadata>
  <rdf:RDF xmlns:dc="http://purl.org/dc/elements/1.1/" xmlns:cc="http://creativecommons.org/ns#" xmlns:rdf="http://www.w3.org/1999/02/22-rdf-syntax-ns#">
   <cc:Work>
    <dc:type rdf:resource="http://purl.org/dc/dcmitype/StillImage"/>
    <dc:date>2025-04-11T23:21:58.410375</dc:date>
    <dc:format>image/svg+xml</dc:format>
    <dc:creator>
     <cc:Agent>
      <dc:title>Matplotlib v3.9.4, https://matplotlib.org/</dc:title>
     </cc:Agent>
    </dc:creator>
   </cc:Work>
  </rdf:RDF>
 </metadata>
 <defs>
  <style type="text/css">*{stroke-linejoin: round; stroke-linecap: butt}</style>
 </defs>
 <g id="figure_1">
  <g id="patch_1">
   <path d="M 0 288 
L 576 288 
L 576 0 
L 0 0 
z
" style="fill: #ffffff"/>
  </g>
  <g id="axes_1">
   <g id="patch_2">
    <path d="M 36.79 254.9 
L 565.2 254.9 
L 565.2 26.88 
L 36.79 26.88 
z
" style="fill: #ffffff"/>
   </g>
   <g id="matplotlib.axis_1">
    <g id="xtick_1">
     <g id="text_1">
      <!-- 1066 -->
      <g transform="translate(43.0808 277.17) rotate(-90) scale(0.06 -0.06)">
       <defs>
        <path id="DejaVuSans-31" d="M 794 531 
L 1825 531 
L 1825 4091 
L 703 3866 
L 703 4441 
L 1819 4666 
L 2450 4666 
L 2450 531 
L 3481 531 
L 3481 0 
L 794 0 
L 794 531 
z
" transform="scale(0.015625)"/>
        <path id="DejaVuSans-30" d="M 2034 4250 
Q 1547 4250 1301 3770 
Q 1056 3291 1056 2328 
Q 1056 1369 1301 889 
Q 1547 409 2034 409 
Q 2525 409 2770 889 
Q 3016 1369 3016 2328 
Q 3016 3291 2770 3770 
Q 2525 4250 2034 4250 
z
M 2034 4750 
Q 2819 4750 3233 4129 
Q 3647 3509 3647 2328 
Q 3647 1150 3233 529 
Q 2819 -91 2034 -91 
Q 1250 -91 836 529 
Q 422 1150 422 2328 
Q 422 3509 836 4129 
Q 1250 4750 2034 4750 
z
" transform="scale(0.015625)"/>
        <path id="DejaVuSans-36" d="M 2113 2584 
Q 1688 2584 1439 2293 
Q 1191 2003 1191 1497 
Q 1191 994 1439 701 
Q 1688 409 2113 409 
Q 2538 409 2786 701 
Q 3034 994 3034 1497 
Q 3034 2003 2786 2293 
Q 2538 2584 2113 2584 
z
M 3366 4563 
L 3366 3988 
Q 3128 4100 2886 4159 
Q 2644 4219 2406 4219 
Q 1781 4219 1451 3797 
Q 1122 3375 1075 2522 
Q 1259 2794 1537 2939 
Q 1816 3084 2150 3084 
Q 2853 3084 3261 2657 
Q 3669 2231 3669 1497 
Q 3669 778 3244 343 
Q 2819 -91 2113 -91 
Q 1303 -91 875 529 
Q 447 1150 447 2328 
Q 447 3434 972 4092 
Q 1497 4750 2381 4750 
Q 2619 4750 2861 4703 
Q 3103 4656 3366 4563 
z
" transform="scale(0.015625)"/>
       </defs>
       <use xlink:href="#DejaVuSans-31"/>
       <use xlink:href="#DejaVuSans-30" x="63.623047"/>
       <use xlink:href="#DejaVuSans-36" x="127.246094"/>
       <use xlink:href="#DejaVuSans-36" x="190.869141"/>
      </g>
     </g>
    </g>
    <g id="xtick_2">
     <g id="text_2">
      <!-- 1111 -->
      <g transform="translate(52.351151 277.17) rotate(-90) scale(0.06 -0.06)">
       <use xlink:href="#DejaVuSans-31"/>
       <use xlink:href="#DejaVuSans-31" x="63.623047"/>
       <use xlink:href="#DejaVuSans-31" x="127.246094"/>
       <use xlink:href="#DejaVuSans-31" x="190.869141"/>
      </g>
     </g>
    </g>
    <g id="xtick_3">
     <g id="text_3">
      <!-- (5) -->
      <g transform="translate(61.621502 270.399375) rotate(-90) scale(0.06 -0.06)">
       <defs>
        <path id="DejaVuSans-28" d="M 1984 4856 
Q 1566 4138 1362 3434 
Q 1159 2731 1159 2009 
Q 1159 1288 1364 580 
Q 1569 -128 1984 -844 
L 1484 -844 
Q 1016 -109 783 600 
Q 550 1309 550 2009 
Q 550 2706 781 3412 
Q 1013 4119 1484 4856 
L 1984 4856 
z
" transform="scale(0.015625)"/>
        <path id="DejaVuSans-35" d="M 691 4666 
L 3169 4666 
L 3169 4134 
L 1269 4134 
L 1269 2991 
Q 1406 3038 1543 3061 
Q 1681 3084 1819 3084 
Q 2600 3084 3056 2656 
Q 3513 2228 3513 1497 
Q 3513 744 3044 326 
Q 2575 -91 1722 -91 
Q 1428 -91 1123 -41 
Q 819 9 494 109 
L 494 744 
Q 775 591 1075 516 
Q 1375 441 1709 441 
Q 2250 441 2565 725 
Q 2881 1009 2881 1497 
Q 2881 1984 2565 2268 
Q 2250 2553 1709 2553 
Q 1456 2553 1204 2497 
Q 953 2441 691 2322 
L 691 4666 
z
" transform="scale(0.015625)"/>
        <path id="DejaVuSans-29" d="M 513 4856 
L 1013 4856 
Q 1481 4119 1714 3412 
Q 1947 2706 1947 2009 
Q 1947 1309 1714 600 
Q 1481 -109 1013 -844 
L 513 -844 
Q 928 -128 1133 580 
Q 1338 1288 1338 2009 
Q 1338 2731 1133 3434 
Q 928 4138 513 4856 
z
" transform="scale(0.015625)"/>
       </defs>
       <use xlink:href="#DejaVuSans-28"/>
       <use xlink:href="#DejaVuSans-35" x="39.013672"/>
       <use xlink:href="#DejaVuSans-29" x="102.636719"/>
      </g>
     </g>
    </g>
    <g id="xtick_4">
     <g id="text_4">
      <!-- (21) -->
      <g transform="translate(70.891853 274.216875) rotate(-90) scale(0.06 -0.06)">
       <defs>
        <path id="DejaVuSans-32" d="M 1228 531 
L 3431 531 
L 3431 0 
L 469 0 
L 469 531 
Q 828 903 1448 1529 
Q 2069 2156 2228 2338 
Q 2531 2678 2651 2914 
Q 2772 3150 2772 3378 
Q 2772 3750 2511 3984 
Q 2250 4219 1831 4219 
Q 1534 4219 1204 4116 
Q 875 4013 500 3803 
L 500 4441 
Q 881 4594 1212 4672 
Q 1544 4750 1819 4750 
Q 2544 4750 2975 4387 
Q 3406 4025 3406 3419 
Q 3406 3131 3298 2873 
Q 3191 2616 2906 2266 
Q 2828 2175 2409 1742 
Q 1991 1309 1228 531 
z
" transform="scale(0.015625)"/>
       </defs>
       <use xlink:href="#DejaVuSans-28"/>
       <use xlink:href="#DejaVuSans-32" x="39.013672"/>
       <use xlink:href="#DejaVuSans-31" x="102.636719"/>
       <use xlink:href="#DejaVuSans-29" x="166.259766"/>
      </g>
     </g>
    </g>
    <g id="xtick_5">
     <g id="text_5">
      <!-- (25) -->
      <g transform="translate(80.162204 274.216875) rotate(-90) scale(0.06 -0.06)">
       <use xlink:href="#DejaVuSans-28"/>
       <use xlink:href="#DejaVuSans-32" x="39.013672"/>
       <use xlink:href="#DejaVuSans-35" x="102.636719"/>
       <use xlink:href="#DejaVuSans-29" x="166.259766"/>
      </g>
     </g>
    </g>
    <g id="xtick_6">
     <g id="text_6">
      <!-- (54) -->
      <g transform="translate(89.432555 274.216875) rotate(-90) scale(0.06 -0.06)">
       <defs>
        <path id="DejaVuSans-34" d="M 2419 4116 
L 825 1625 
L 2419 1625 
L 2419 4116 
z
M 2253 4666 
L 3047 4666 
L 3047 1625 
L 3713 1625 
L 3713 1100 
L 3047 1100 
L 3047 0 
L 2419 0 
L 2419 1100 
L 313 1100 
L 313 1709 
L 2253 4666 
z
" transform="scale(0.015625)"/>
       </defs>
       <use xlink:href="#DejaVuSans-28"/>
       <use xlink:href="#DejaVuSans-35" x="39.013672"/>
       <use xlink:href="#DejaVuSans-34" x="102.636719"/>
       <use xlink:href="#DejaVuSans-29" x="166.259766"/>
      </g>
     </g>
    </g>
    <g id="xtick_7">
     <g id="text_7">
      <!-- (14) -->
      <g transform="translate(98.702906 274.216875) rotate(-90) scale(0.06 -0.06)">
       <use xlink:href="#DejaVuSans-28"/>
       <use xlink:href="#DejaVuSans-31" x="39.013672"/>
       <use xlink:href="#DejaVuSans-34" x="102.636719"/>
       <use xlink:href="#DejaVuSans-29" x="166.259766"/>
      </g>
     </g>
    </g>
    <g id="xtick_8">
     <g id="text_8">
      <!-- (20) -->
      <g transform="translate(107.973257 274.216875) rotate(-90) scale(0.06 -0.06)">
       <use xlink:href="#DejaVuSans-28"/>
       <use xlink:href="#DejaVuSans-32" x="39.013672"/>
       <use xlink:href="#DejaVuSans-30" x="102.636719"/>
       <use xlink:href="#DejaVuSans-29" x="166.259766"/>
      </g>
     </g>
    </g>
    <g id="xtick_9">
     <g id="text_9">
      <!-- (32) -->
      <g transform="translate(117.243607 274.216875) rotate(-90) scale(0.06 -0.06)">
       <defs>
        <path id="DejaVuSans-33" d="M 2597 2516 
Q 3050 2419 3304 2112 
Q 3559 1806 3559 1356 
Q 3559 666 3084 287 
Q 2609 -91 1734 -91 
Q 1441 -91 1130 -33 
Q 819 25 488 141 
L 488 750 
Q 750 597 1062 519 
Q 1375 441 1716 441 
Q 2309 441 2620 675 
Q 2931 909 2931 1356 
Q 2931 1769 2642 2001 
Q 2353 2234 1838 2234 
L 1294 2234 
L 1294 2753 
L 1863 2753 
Q 2328 2753 2575 2939 
Q 2822 3125 2822 3475 
Q 2822 3834 2567 4026 
Q 2313 4219 1838 4219 
Q 1578 4219 1281 4162 
Q 984 4106 628 3988 
L 628 4550 
Q 988 4650 1302 4700 
Q 1616 4750 1894 4750 
Q 2613 4750 3031 4423 
Q 3450 4097 3450 3541 
Q 3450 3153 3228 2886 
Q 3006 2619 2597 2516 
z
" transform="scale(0.015625)"/>
       </defs>
       <use xlink:href="#DejaVuSans-28"/>
       <use xlink:href="#DejaVuSans-33" x="39.013672"/>
       <use xlink:href="#DejaVuSans-32" x="102.636719"/>
       <use xlink:href="#DejaVuSans-29" x="166.259766"/>
      </g>
     </g>
    </g>
    <g id="xtick_10">
     <g id="text_10">
      <!-- (17) -->
      <g transform="translate(126.513958 274.216875) rotate(-90) scale(0.06 -0.06)">
       <defs>
        <path id="DejaVuSans-37" d="M 525 4666 
L 3525 4666 
L 3525 4397 
L 1831 0 
L 1172 0 
L 2766 4134 
L 525 4134 
L 525 4666 
z
" transform="scale(0.015625)"/>
       </defs>
       <use xlink:href="#DejaVuSans-28"/>
       <use xlink:href="#DejaVuSans-31" x="39.013672"/>
       <use xlink:href="#DejaVuSans-37" x="102.636719"/>
       <use xlink:href="#DejaVuSans-29" x="166.259766"/>
      </g>
     </g>
    </g>
    <g id="xtick_11">
     <g id="text_11">
      <!-- (36) -->
      <g transform="translate(135.784309 274.216875) rotate(-90) scale(0.06 -0.06)">
       <use xlink:href="#DejaVuSans-28"/>
       <use xlink:href="#DejaVuSans-33" x="39.013672"/>
       <use xlink:href="#DejaVuSans-36" x="102.636719"/>
       <use xlink:href="#DejaVuSans-29" x="166.259766"/>
      </g>
     </g>
    </g>
    <g id="xtick_12">
     <g id="text_12">
      <!-- (25) -->
      <g transform="translate(145.05466 274.216875) rotate(-90) scale(0.06 -0.06)">
       <use xlink:href="#DejaVuSans-28"/>
       <use xlink:href="#DejaVuSans-32" x="39.013672"/>
       <use xlink:href="#DejaVuSans-35" x="102.636719"/>
       <use xlink:href="#DejaVuSans-29" x="166.259766"/>
      </g>
     </g>
    </g>
    <g id="xtick_13">
     <g id="text_13">
      <!-- (39) -->
      <g transform="translate(154.325011 274.216875) rotate(-90) scale(0.06 -0.06)">
       <defs>
        <path id="DejaVuSans-39" d="M 703 97 
L 703 672 
Q 941 559 1184 500 
Q 1428 441 1663 441 
Q 2288 441 2617 861 
Q 2947 1281 2994 2138 
Q 2813 1869 2534 1725 
Q 2256 1581 1919 1581 
Q 1219 1581 811 2004 
Q 403 2428 403 3163 
Q 403 3881 828 4315 
Q 1253 4750 1959 4750 
Q 2769 4750 3195 4129 
Q 3622 3509 3622 2328 
Q 3622 1225 3098 567 
Q 2575 -91 1691 -91 
Q 1453 -91 1209 -44 
Q 966 3 703 97 
z
M 1959 2075 
Q 2384 2075 2632 2365 
Q 2881 2656 2881 3163 
Q 2881 3666 2632 3958 
Q 2384 4250 1959 4250 
Q 1534 4250 1286 3958 
Q 1038 3666 1038 3163 
Q 1038 2656 1286 2365 
Q 1534 2075 1959 2075 
z
" transform="scale(0.015625)"/>
       </defs>
       <use xlink:href="#DejaVuSans-28"/>
       <use xlink:href="#DejaVuSans-33" x="39.013672"/>
       <use xlink:href="#DejaVuSans-39" x="102.636719"/>
       <use xlink:href="#DejaVuSans-29" x="166.259766"/>
      </g>
     </g>
    </g>
    <g id="xtick_14">
     <g id="text_14">
      <!-- (14) -->
      <g transform="translate(163.595362 274.216875) rotate(-90) scale(0.06 -0.06)">
       <use xlink:href="#DejaVuSans-28"/>
       <use xlink:href="#DejaVuSans-31" x="39.013672"/>
       <use xlink:href="#DejaVuSans-34" x="102.636719"/>
       <use xlink:href="#DejaVuSans-29" x="166.259766"/>
      </g>
     </g>
    </g>
    <g id="xtick_15">
     <g id="text_15">
      <!-- (9) -->
      <g transform="translate(172.865713 270.399375) rotate(-90) scale(0.06 -0.06)">
       <use xlink:href="#DejaVuSans-28"/>
       <use xlink:href="#DejaVuSans-39" x="39.013672"/>
       <use xlink:href="#DejaVuSans-29" x="102.636719"/>
      </g>
     </g>
    </g>
    <g id="xtick_16">
     <g id="text_16">
      <!-- 760 -->
      <g transform="translate(182.136064 273.3525) rotate(-90) scale(0.06 -0.06)">
       <use xlink:href="#DejaVuSans-37"/>
       <use xlink:href="#DejaVuSans-36" x="63.623047"/>
       <use xlink:href="#DejaVuSans-30" x="127.246094"/>
      </g>
     </g>
    </g>
    <g id="xtick_17">
     <g id="text_17">
      <!-- 761 -->
      <g transform="translate(191.406414 273.3525) rotate(-90) scale(0.06 -0.06)">
       <use xlink:href="#DejaVuSans-37"/>
       <use xlink:href="#DejaVuSans-36" x="63.623047"/>
       <use xlink:href="#DejaVuSans-31" x="127.246094"/>
      </g>
     </g>
    </g>
    <g id="xtick_18">
     <g id="text_18">
      <!-- (25) -->
      <g transform="translate(200.676765 274.216875) rotate(-90) scale(0.06 -0.06)">
       <use xlink:href="#DejaVuSans-28"/>
       <use xlink:href="#DejaVuSans-32" x="39.013672"/>
       <use xlink:href="#DejaVuSans-35" x="102.636719"/>
       <use xlink:href="#DejaVuSans-29" x="166.259766"/>
      </g>
     </g>
    </g>
    <g id="xtick_19">
     <g id="text_19">
      <!-- (36) -->
      <g transform="translate(209.947116 274.216875) rotate(-90) scale(0.06 -0.06)">
       <use xlink:href="#DejaVuSans-28"/>
       <use xlink:href="#DejaVuSans-33" x="39.013672"/>
       <use xlink:href="#DejaVuSans-36" x="102.636719"/>
       <use xlink:href="#DejaVuSans-29" x="166.259766"/>
      </g>
     </g>
    </g>
    <g id="xtick_20">
     <g id="text_20">
      <!-- (10) -->
      <g transform="translate(219.217467 274.216875) rotate(-90) scale(0.06 -0.06)">
       <use xlink:href="#DejaVuSans-28"/>
       <use xlink:href="#DejaVuSans-31" x="39.013672"/>
       <use xlink:href="#DejaVuSans-30" x="102.636719"/>
       <use xlink:href="#DejaVuSans-29" x="166.259766"/>
      </g>
     </g>
    </g>
    <g id="xtick_21">
     <g id="text_21">
      <!-- (36) -->
      <g transform="translate(228.487818 274.216875) rotate(-90) scale(0.06 -0.06)">
       <use xlink:href="#DejaVuSans-28"/>
       <use xlink:href="#DejaVuSans-33" x="39.013672"/>
       <use xlink:href="#DejaVuSans-36" x="102.636719"/>
       <use xlink:href="#DejaVuSans-29" x="166.259766"/>
      </g>
     </g>
    </g>
    <g id="xtick_22">
     <g id="text_22">
      <!-- (11) -->
      <g transform="translate(237.758169 274.216875) rotate(-90) scale(0.06 -0.06)">
       <use xlink:href="#DejaVuSans-28"/>
       <use xlink:href="#DejaVuSans-31" x="39.013672"/>
       <use xlink:href="#DejaVuSans-31" x="102.636719"/>
       <use xlink:href="#DejaVuSans-29" x="166.259766"/>
      </g>
     </g>
    </g>
    <g id="xtick_23">
     <g id="text_23">
      <!-- (59) -->
      <g transform="translate(247.02852 274.216875) rotate(-90) scale(0.06 -0.06)">
       <use xlink:href="#DejaVuSans-28"/>
       <use xlink:href="#DejaVuSans-35" x="39.013672"/>
       <use xlink:href="#DejaVuSans-39" x="102.636719"/>
       <use xlink:href="#DejaVuSans-29" x="166.259766"/>
      </g>
     </g>
    </g>
    <g id="xtick_24">
     <g id="text_24">
      <!-- (8) -->
      <g transform="translate(256.298871 270.399375) rotate(-90) scale(0.06 -0.06)">
       <defs>
        <path id="DejaVuSans-38" d="M 2034 2216 
Q 1584 2216 1326 1975 
Q 1069 1734 1069 1313 
Q 1069 891 1326 650 
Q 1584 409 2034 409 
Q 2484 409 2743 651 
Q 3003 894 3003 1313 
Q 3003 1734 2745 1975 
Q 2488 2216 2034 2216 
z
M 1403 2484 
Q 997 2584 770 2862 
Q 544 3141 544 3541 
Q 544 4100 942 4425 
Q 1341 4750 2034 4750 
Q 2731 4750 3128 4425 
Q 3525 4100 3525 3541 
Q 3525 3141 3298 2862 
Q 3072 2584 2669 2484 
Q 3125 2378 3379 2068 
Q 3634 1759 3634 1313 
Q 3634 634 3220 271 
Q 2806 -91 2034 -91 
Q 1263 -91 848 271 
Q 434 634 434 1313 
Q 434 1759 690 2068 
Q 947 2378 1403 2484 
z
M 1172 3481 
Q 1172 3119 1398 2916 
Q 1625 2713 2034 2713 
Q 2441 2713 2670 2916 
Q 2900 3119 2900 3481 
Q 2900 3844 2670 4047 
Q 2441 4250 2034 4250 
Q 1625 4250 1398 4047 
Q 1172 3844 1172 3481 
z
" transform="scale(0.015625)"/>
       </defs>
       <use xlink:href="#DejaVuSans-28"/>
       <use xlink:href="#DejaVuSans-38" x="39.013672"/>
       <use xlink:href="#DejaVuSans-29" x="102.636719"/>
      </g>
     </g>
    </g>
    <g id="xtick_25">
     <g id="text_25">
      <!-- (68) -->
      <g transform="translate(265.569221 274.216875) rotate(-90) scale(0.06 -0.06)">
       <use xlink:href="#DejaVuSans-28"/>
       <use xlink:href="#DejaVuSans-36" x="39.013672"/>
       <use xlink:href="#DejaVuSans-38" x="102.636719"/>
       <use xlink:href="#DejaVuSans-29" x="166.259766"/>
      </g>
     </g>
    </g>
    <g id="xtick_26">
     <g id="text_26">
      <!-- (5) -->
      <g transform="translate(274.839572 270.399375) rotate(-90) scale(0.06 -0.06)">
       <use xlink:href="#DejaVuSans-28"/>
       <use xlink:href="#DejaVuSans-35" x="39.013672"/>
       <use xlink:href="#DejaVuSans-29" x="102.636719"/>
      </g>
     </g>
    </g>
    <g id="xtick_27">
     <g id="text_27">
      <!-- (11) -->
      <g transform="translate(284.109923 274.216875) rotate(-90) scale(0.06 -0.06)">
       <use xlink:href="#DejaVuSans-28"/>
       <use xlink:href="#DejaVuSans-31" x="39.013672"/>
       <use xlink:href="#DejaVuSans-31" x="102.636719"/>
       <use xlink:href="#DejaVuSans-29" x="166.259766"/>
      </g>
     </g>
    </g>
    <g id="xtick_28">
     <g id="text_28">
      <!-- (9) -->
      <g transform="translate(293.380274 270.399375) rotate(-90) scale(0.06 -0.06)">
       <use xlink:href="#DejaVuSans-28"/>
       <use xlink:href="#DejaVuSans-39" x="39.013672"/>
       <use xlink:href="#DejaVuSans-29" x="102.636719"/>
      </g>
     </g>
    </g>
    <g id="xtick_29">
     <g id="text_29">
      <!-- (12) -->
      <g transform="translate(302.650625 274.216875) rotate(-90) scale(0.06 -0.06)">
       <use xlink:href="#DejaVuSans-28"/>
       <use xlink:href="#DejaVuSans-31" x="39.013672"/>
       <use xlink:href="#DejaVuSans-32" x="102.636719"/>
       <use xlink:href="#DejaVuSans-29" x="166.259766"/>
      </g>
     </g>
    </g>
    <g id="xtick_30">
     <g id="text_30">
      <!-- 63 -->
      <g transform="translate(311.920976 269.535) rotate(-90) scale(0.06 -0.06)">
       <use xlink:href="#DejaVuSans-36"/>
       <use xlink:href="#DejaVuSans-33" x="63.623047"/>
      </g>
     </g>
    </g>
    <g id="xtick_31">
     <g id="text_31">
      <!-- (4) -->
      <g transform="translate(321.191327 270.399375) rotate(-90) scale(0.06 -0.06)">
       <use xlink:href="#DejaVuSans-28"/>
       <use xlink:href="#DejaVuSans-34" x="39.013672"/>
       <use xlink:href="#DejaVuSans-29" x="102.636719"/>
      </g>
     </g>
    </g>
    <g id="xtick_32">
     <g id="text_32">
      <!-- (7) -->
      <g transform="translate(330.461678 270.399375) rotate(-90) scale(0.06 -0.06)">
       <use xlink:href="#DejaVuSans-28"/>
       <use xlink:href="#DejaVuSans-37" x="39.013672"/>
       <use xlink:href="#DejaVuSans-29" x="102.636719"/>
      </g>
     </g>
    </g>
    <g id="xtick_33">
     <g id="text_33">
      <!-- (11) -->
      <g transform="translate(339.732029 274.216875) rotate(-90) scale(0.06 -0.06)">
       <use xlink:href="#DejaVuSans-28"/>
       <use xlink:href="#DejaVuSans-31" x="39.013672"/>
       <use xlink:href="#DejaVuSans-31" x="102.636719"/>
       <use xlink:href="#DejaVuSans-29" x="166.259766"/>
      </g>
     </g>
    </g>
    <g id="xtick_34">
     <g id="text_34">
      <!-- (9) -->
      <g transform="translate(349.002379 270.399375) rotate(-90) scale(0.06 -0.06)">
       <use xlink:href="#DejaVuSans-28"/>
       <use xlink:href="#DejaVuSans-39" x="39.013672"/>
       <use xlink:href="#DejaVuSans-29" x="102.636719"/>
      </g>
     </g>
    </g>
    <g id="xtick_35">
     <g id="text_35">
      <!-- (23) -->
      <g transform="translate(358.27273 274.216875) rotate(-90) scale(0.06 -0.06)">
       <use xlink:href="#DejaVuSans-28"/>
       <use xlink:href="#DejaVuSans-32" x="39.013672"/>
       <use xlink:href="#DejaVuSans-33" x="102.636719"/>
       <use xlink:href="#DejaVuSans-29" x="166.259766"/>
      </g>
     </g>
    </g>
    <g id="xtick_36">
     <g id="text_36">
      <!-- (15) -->
      <g transform="translate(367.543081 274.216875) rotate(-90) scale(0.06 -0.06)">
       <use xlink:href="#DejaVuSans-28"/>
       <use xlink:href="#DejaVuSans-31" x="39.013672"/>
       <use xlink:href="#DejaVuSans-35" x="102.636719"/>
       <use xlink:href="#DejaVuSans-29" x="166.259766"/>
      </g>
     </g>
    </g>
    <g id="xtick_37">
     <g id="text_37">
      <!-- (9) -->
      <g transform="translate(376.813432 270.399375) rotate(-90) scale(0.06 -0.06)">
       <use xlink:href="#DejaVuSans-28"/>
       <use xlink:href="#DejaVuSans-39" x="39.013672"/>
       <use xlink:href="#DejaVuSans-29" x="102.636719"/>
      </g>
     </g>
    </g>
    <g id="xtick_38">
     <g id="text_38">
      <!-- (17) -->
      <g transform="translate(386.083783 274.216875) rotate(-90) scale(0.06 -0.06)">
       <use xlink:href="#DejaVuSans-28"/>
       <use xlink:href="#DejaVuSans-31" x="39.013672"/>
       <use xlink:href="#DejaVuSans-37" x="102.636719"/>
       <use xlink:href="#DejaVuSans-29" x="166.259766"/>
      </g>
     </g>
    </g>
    <g id="xtick_39">
     <g id="text_39">
      <!-- (31) -->
      <g transform="translate(395.354134 274.216875) rotate(-90) scale(0.06 -0.06)">
       <use xlink:href="#DejaVuSans-28"/>
       <use xlink:href="#DejaVuSans-33" x="39.013672"/>
       <use xlink:href="#DejaVuSans-31" x="102.636719"/>
       <use xlink:href="#DejaVuSans-29" x="166.259766"/>
      </g>
     </g>
    </g>
    <g id="xtick_40">
     <g id="text_40">
      <!-- (4) -->
      <g transform="translate(404.624485 270.399375) rotate(-90) scale(0.06 -0.06)">
       <use xlink:href="#DejaVuSans-28"/>
       <use xlink:href="#DejaVuSans-34" x="39.013672"/>
       <use xlink:href="#DejaVuSans-29" x="102.636719"/>
      </g>
     </g>
    </g>
    <g id="xtick_41">
     <g id="text_41">
      <!-- (4) -->
      <g transform="translate(413.894836 270.399375) rotate(-90) scale(0.06 -0.06)">
       <use xlink:href="#DejaVuSans-28"/>
       <use xlink:href="#DejaVuSans-34" x="39.013672"/>
       <use xlink:href="#DejaVuSans-29" x="102.636719"/>
      </g>
     </g>
    </g>
    <g id="xtick_42">
     <g id="text_42">
      <!-- (18) -->
      <g transform="translate(423.165186 274.216875) rotate(-90) scale(0.06 -0.06)">
       <use xlink:href="#DejaVuSans-28"/>
       <use xlink:href="#DejaVuSans-31" x="39.013672"/>
       <use xlink:href="#DejaVuSans-38" x="102.636719"/>
       <use xlink:href="#DejaVuSans-29" x="166.259766"/>
      </g>
     </g>
    </g>
    <g id="xtick_43">
     <g id="text_43">
      <!-- (28) -->
      <g transform="translate(432.435537 274.216875) rotate(-90) scale(0.06 -0.06)">
       <use xlink:href="#DejaVuSans-28"/>
       <use xlink:href="#DejaVuSans-32" x="39.013672"/>
       <use xlink:href="#DejaVuSans-38" x="102.636719"/>
       <use xlink:href="#DejaVuSans-29" x="166.259766"/>
      </g>
     </g>
    </g>
    <g id="xtick_44">
     <g id="text_44">
      <!-- (12) -->
      <g transform="translate(441.705888 274.216875) rotate(-90) scale(0.06 -0.06)">
       <use xlink:href="#DejaVuSans-28"/>
       <use xlink:href="#DejaVuSans-31" x="39.013672"/>
       <use xlink:href="#DejaVuSans-32" x="102.636719"/>
       <use xlink:href="#DejaVuSans-29" x="166.259766"/>
      </g>
     </g>
    </g>
    <g id="xtick_45">
     <g id="text_45">
      <!-- (8) -->
      <g transform="translate(450.976239 270.399375) rotate(-90) scale(0.06 -0.06)">
       <use xlink:href="#DejaVuSans-28"/>
       <use xlink:href="#DejaVuSans-38" x="39.013672"/>
       <use xlink:href="#DejaVuSans-29" x="102.636719"/>
      </g>
     </g>
    </g>
    <g id="xtick_46">
     <g id="text_46">
      <!-- (51) -->
      <g transform="translate(460.24659 274.216875) rotate(-90) scale(0.06 -0.06)">
       <use xlink:href="#DejaVuSans-28"/>
       <use xlink:href="#DejaVuSans-35" x="39.013672"/>
       <use xlink:href="#DejaVuSans-31" x="102.636719"/>
       <use xlink:href="#DejaVuSans-29" x="166.259766"/>
      </g>
     </g>
    </g>
    <g id="xtick_47">
     <g id="text_47">
      <!-- (22) -->
      <g transform="translate(469.516941 274.216875) rotate(-90) scale(0.06 -0.06)">
       <use xlink:href="#DejaVuSans-28"/>
       <use xlink:href="#DejaVuSans-32" x="39.013672"/>
       <use xlink:href="#DejaVuSans-32" x="102.636719"/>
       <use xlink:href="#DejaVuSans-29" x="166.259766"/>
      </g>
     </g>
    </g>
    <g id="xtick_48">
     <g id="text_48">
      <!-- (4) -->
      <g transform="translate(478.787292 270.399375) rotate(-90) scale(0.06 -0.06)">
       <use xlink:href="#DejaVuSans-28"/>
       <use xlink:href="#DejaVuSans-34" x="39.013672"/>
       <use xlink:href="#DejaVuSans-29" x="102.636719"/>
      </g>
     </g>
    </g>
    <g id="xtick_49">
     <g id="text_49">
      <!-- (14) -->
      <g transform="translate(488.057643 274.216875) rotate(-90) scale(0.06 -0.06)">
       <use xlink:href="#DejaVuSans-28"/>
       <use xlink:href="#DejaVuSans-31" x="39.013672"/>
       <use xlink:href="#DejaVuSans-34" x="102.636719"/>
       <use xlink:href="#DejaVuSans-29" x="166.259766"/>
      </g>
     </g>
    </g>
    <g id="xtick_50">
     <g id="text_50">
      <!-- (2) -->
      <g transform="translate(497.327993 270.399375) rotate(-90) scale(0.06 -0.06)">
       <use xlink:href="#DejaVuSans-28"/>
       <use xlink:href="#DejaVuSans-32" x="39.013672"/>
       <use xlink:href="#DejaVuSans-29" x="102.636719"/>
      </g>
     </g>
    </g>
    <g id="xtick_51">
     <g id="text_51">
      <!-- (2) -->
      <g transform="translate(506.598344 270.399375) rotate(-90) scale(0.06 -0.06)">
       <use xlink:href="#DejaVuSans-28"/>
       <use xlink:href="#DejaVuSans-32" x="39.013672"/>
       <use xlink:href="#DejaVuSans-29" x="102.636719"/>
      </g>
     </g>
    </g>
    <g id="xtick_52">
     <g id="text_52">
      <!-- (59) -->
      <g transform="translate(515.868695 274.216875) rotate(-90) scale(0.06 -0.06)">
       <use xlink:href="#DejaVuSans-28"/>
       <use xlink:href="#DejaVuSans-35" x="39.013672"/>
       <use xlink:href="#DejaVuSans-39" x="102.636719"/>
       <use xlink:href="#DejaVuSans-29" x="166.259766"/>
      </g>
     </g>
    </g>
    <g id="xtick_53">
     <g id="text_53">
      <!-- (79) -->
      <g transform="translate(525.139046 274.216875) rotate(-90) scale(0.06 -0.06)">
       <use xlink:href="#DejaVuSans-28"/>
       <use xlink:href="#DejaVuSans-37" x="39.013672"/>
       <use xlink:href="#DejaVuSans-39" x="102.636719"/>
       <use xlink:href="#DejaVuSans-29" x="166.259766"/>
      </g>
     </g>
    </g>
    <g id="xtick_54">
     <g id="text_54">
      <!-- 249 -->
      <g transform="translate(534.409397 273.3525) rotate(-90) scale(0.06 -0.06)">
       <use xlink:href="#DejaVuSans-32"/>
       <use xlink:href="#DejaVuSans-34" x="63.623047"/>
       <use xlink:href="#DejaVuSans-39" x="127.246094"/>
      </g>
     </g>
    </g>
    <g id="xtick_55">
     <g id="text_55">
      <!-- (5) -->
      <g transform="translate(543.679748 270.399375) rotate(-90) scale(0.06 -0.06)">
       <use xlink:href="#DejaVuSans-28"/>
       <use xlink:href="#DejaVuSans-35" x="39.013672"/>
       <use xlink:href="#DejaVuSans-29" x="102.636719"/>
      </g>
     </g>
    </g>
    <g id="xtick_56">
     <g id="text_56">
      <!-- (42) -->
      <g transform="translate(552.950099 274.216875) rotate(-90) scale(0.06 -0.06)">
       <use xlink:href="#DejaVuSans-28"/>
       <use xlink:href="#DejaVuSans-34" x="39.013672"/>
       <use xlink:href="#DejaVuSans-32" x="102.636719"/>
       <use xlink:href="#DejaVuSans-29" x="166.259766"/>
      </g>
     </g>
    </g>
    <g id="xtick_57">
     <g id="text_57">
      <!-- (56) -->
      <g transform="translate(562.22045 274.216875) rotate(-90) scale(0.06 -0.06)">
       <use xlink:href="#DejaVuSans-28"/>
       <use xlink:href="#DejaVuSans-35" x="39.013672"/>
       <use xlink:href="#DejaVuSans-36" x="102.636719"/>
       <use xlink:href="#DejaVuSans-29" x="166.259766"/>
      </g>
     </g>
    </g>
   </g>
   <g id="matplotlib.axis_2">
    <g id="ytick_1">
     <g id="line2d_1">
      <defs>
       <path id="mf5a745a002" d="M 0 0 
L -3.5 0 
" style="stroke: #000000; stroke-width: 0.8"/>
      </defs>
      <g>
       <use xlink:href="#mf5a745a002" x="36.79" y="254.9" style="stroke: #000000; stroke-width: 0.8"/>
      </g>
     </g>
     <g id="text_58">
      <!-- 0 -->
      <g transform="translate(23.4275 258.699219) scale(0.1 -0.1)">
       <use xlink:href="#DejaVuSans-30"/>
      </g>
     </g>
    </g>
    <g id="ytick_2">
     <g id="line2d_2">
      <g>
       <use xlink:href="#mf5a745a002" x="36.79" y="228.009731" style="stroke: #000000; stroke-width: 0.8"/>
      </g>
     </g>
     <g id="text_59">
      <!-- 100 -->
      <g transform="translate(10.7025 231.80895) scale(0.1 -0.1)">
       <use xlink:href="#DejaVuSans-31"/>
       <use xlink:href="#DejaVuSans-30" x="63.623047"/>
       <use xlink:href="#DejaVuSans-30" x="127.246094"/>
      </g>
     </g>
    </g>
    <g id="ytick_3">
     <g id="line2d_3">
      <g>
       <use xlink:href="#mf5a745a002" x="36.79" y="201.119463" style="stroke: #000000; stroke-width: 0.8"/>
      </g>
     </g>
     <g id="text_60">
      <!-- 200 -->
      <g transform="translate(10.7025 204.918681) scale(0.1 -0.1)">
       <use xlink:href="#DejaVuSans-32"/>
       <use xlink:href="#DejaVuSans-30" x="63.623047"/>
       <use xlink:href="#DejaVuSans-30" x="127.246094"/>
      </g>
     </g>
    </g>
    <g id="ytick_4">
     <g id="line2d_4">
      <g>
       <use xlink:href="#mf5a745a002" x="36.79" y="174.229194" style="stroke: #000000; stroke-width: 0.8"/>
      </g>
     </g>
     <g id="text_61">
      <!-- 300 -->
      <g transform="translate(10.7025 178.028413) scale(0.1 -0.1)">
       <use xlink:href="#DejaVuSans-33"/>
       <use xlink:href="#DejaVuSans-30" x="63.623047"/>
       <use xlink:href="#DejaVuSans-30" x="127.246094"/>
      </g>
     </g>
    </g>
    <g id="ytick_5">
     <g id="line2d_5">
      <g>
       <use xlink:href="#mf5a745a002" x="36.79" y="147.338925" style="stroke: #000000; stroke-width: 0.8"/>
      </g>
     </g>
     <g id="text_62">
      <!-- 400 -->
      <g transform="translate(10.7025 151.138144) scale(0.1 -0.1)">
       <use xlink:href="#DejaVuSans-34"/>
       <use xlink:href="#DejaVuSans-30" x="63.623047"/>
       <use xlink:href="#DejaVuSans-30" x="127.246094"/>
      </g>
     </g>
    </g>
    <g id="ytick_6">
     <g id="line2d_6">
      <g>
       <use xlink:href="#mf5a745a002" x="36.79" y="120.448657" style="stroke: #000000; stroke-width: 0.8"/>
      </g>
     </g>
     <g id="text_63">
      <!-- 500 -->
      <g transform="translate(10.7025 124.247875) scale(0.1 -0.1)">
       <use xlink:href="#DejaVuSans-35"/>
       <use xlink:href="#DejaVuSans-30" x="63.623047"/>
       <use xlink:href="#DejaVuSans-30" x="127.246094"/>
      </g>
     </g>
    </g>
    <g id="ytick_7">
     <g id="line2d_7">
      <g>
       <use xlink:href="#mf5a745a002" x="36.79" y="93.558388" style="stroke: #000000; stroke-width: 0.8"/>
      </g>
     </g>
     <g id="text_64">
      <!-- 600 -->
      <g transform="translate(10.7025 97.357607) scale(0.1 -0.1)">
       <use xlink:href="#DejaVuSans-36"/>
       <use xlink:href="#DejaVuSans-30" x="63.623047"/>
       <use xlink:href="#DejaVuSans-30" x="127.246094"/>
      </g>
     </g>
    </g>
    <g id="ytick_8">
     <g id="line2d_8">
      <g>
       <use xlink:href="#mf5a745a002" x="36.79" y="66.668119" style="stroke: #000000; stroke-width: 0.8"/>
      </g>
     </g>
     <g id="text_65">
      <!-- 700 -->
      <g transform="translate(10.7025 70.467338) scale(0.1 -0.1)">
       <use xlink:href="#DejaVuSans-37"/>
       <use xlink:href="#DejaVuSans-30" x="63.623047"/>
       <use xlink:href="#DejaVuSans-30" x="127.246094"/>
      </g>
     </g>
    </g>
    <g id="ytick_9">
     <g id="line2d_9">
      <g>
       <use xlink:href="#mf5a745a002" x="36.79" y="39.77785" style="stroke: #000000; stroke-width: 0.8"/>
      </g>
     </g>
     <g id="text_66">
      <!-- 800 -->
      <g transform="translate(10.7025 43.577069) scale(0.1 -0.1)">
       <use xlink:href="#DejaVuSans-38"/>
       <use xlink:href="#DejaVuSans-30" x="63.623047"/>
       <use xlink:href="#DejaVuSans-30" x="127.246094"/>
      </g>
     </g>
    </g>
   </g>
   <g id="LineCollection_1">
    <path d="M 50.695526 254.9 
L 50.695526 244.235397 
L 59.965877 244.235397 
L 59.965877 254.9 
" clip-path="url(#p7b14f402fa)" style="fill: none; stroke: #ff7f0e; stroke-width: 1.5"/>
    <path d="M 41.425175 254.9 
L 41.425175 233.116321 
L 55.330702 233.116321 
L 55.330702 244.235397 
" clip-path="url(#p7b14f402fa)" style="fill: none; stroke: #ff7f0e; stroke-width: 1.5"/>
    <path d="M 69.236228 254.9 
L 69.236228 243.990457 
L 78.506579 243.990457 
L 78.506579 254.9 
" clip-path="url(#p7b14f402fa)" style="fill: none; stroke: #ff7f0e; stroke-width: 1.5"/>
    <path d="M 87.77693 254.9 
L 87.77693 237.036513 
L 97.047281 237.036513 
L 97.047281 254.9 
" clip-path="url(#p7b14f402fa)" style="fill: none; stroke: #ff7f0e; stroke-width: 1.5"/>
    <path d="M 73.871404 243.990457 
L 73.871404 231.070354 
L 92.412105 231.070354 
L 92.412105 237.036513 
" clip-path="url(#p7b14f402fa)" style="fill: none; stroke: #ff7f0e; stroke-width: 1.5"/>
    <path d="M 48.377939 233.116321 
L 48.377939 224.141864 
L 83.141754 224.141864 
L 83.141754 231.070354 
" clip-path="url(#p7b14f402fa)" style="fill: none; stroke: #ff7f0e; stroke-width: 1.5"/>
    <path d="M 106.317632 254.9 
L 106.317632 239.102219 
L 115.587982 239.102219 
L 115.587982 254.9 
" clip-path="url(#p7b14f402fa)" style="fill: none; stroke: #ff7f0e; stroke-width: 1.5"/>
    <path d="M 124.858333 254.9 
L 124.858333 238.514278 
L 134.128684 238.514278 
L 134.128684 254.9 
" clip-path="url(#p7b14f402fa)" style="fill: none; stroke: #ff7f0e; stroke-width: 1.5"/>
    <path d="M 110.952807 239.102219 
L 110.952807 232.567711 
L 129.493509 232.567711 
L 129.493509 238.514278 
" clip-path="url(#p7b14f402fa)" style="fill: none; stroke: #ff7f0e; stroke-width: 1.5"/>
    <path d="M 143.399035 254.9 
L 143.399035 238.325292 
L 152.669386 238.325292 
L 152.669386 254.9 
" clip-path="url(#p7b14f402fa)" style="fill: none; stroke: #ff7f0e; stroke-width: 1.5"/>
    <path d="M 161.939737 254.9 
L 161.939737 237.884391 
L 171.210088 237.884391 
L 171.210088 254.9 
" clip-path="url(#p7b14f402fa)" style="fill: none; stroke: #ff7f0e; stroke-width: 1.5"/>
    <path d="M 148.034211 238.325292 
L 148.034211 231.78866 
L 166.574912 231.78866 
L 166.574912 237.884391 
" clip-path="url(#p7b14f402fa)" style="fill: none; stroke: #ff7f0e; stroke-width: 1.5"/>
    <path d="M 120.223158 232.567711 
L 120.223158 217.653347 
L 157.304561 217.653347 
L 157.304561 231.78866 
" clip-path="url(#p7b14f402fa)" style="fill: none; stroke: #ff7f0e; stroke-width: 1.5"/>
    <path d="M 65.759846 224.141864 
L 65.759846 196.809004 
L 138.76386 196.809004 
L 138.76386 217.653347 
" clip-path="url(#p7b14f402fa)" style="fill: none; stroke: #ff7f0e; stroke-width: 1.5"/>
    <path d="M 180.480439 254.9 
L 180.480439 251.893577 
L 189.750789 251.893577 
L 189.750789 254.9 
" clip-path="url(#p7b14f402fa)" style="fill: none; stroke: #ff7f0e; stroke-width: 1.5"/>
    <path d="M 199.02114 254.9 
L 199.02114 239.241779 
L 208.291491 239.241779 
L 208.291491 254.9 
" clip-path="url(#p7b14f402fa)" style="fill: none; stroke: #ff7f0e; stroke-width: 1.5"/>
    <path d="M 217.561842 254.9 
L 217.561842 233.681771 
L 226.832193 233.681771 
L 226.832193 254.9 
" clip-path="url(#p7b14f402fa)" style="fill: none; stroke: #ff7f0e; stroke-width: 1.5"/>
    <path d="M 203.656316 239.241779 
L 203.656316 229.367527 
L 222.197018 229.367527 
L 222.197018 233.681771 
" clip-path="url(#p7b14f402fa)" style="fill: none; stroke: #ff7f0e; stroke-width: 1.5"/>
    <path d="M 236.102544 254.9 
L 236.102544 234.268779 
L 245.372895 234.268779 
L 245.372895 254.9 
" clip-path="url(#p7b14f402fa)" style="fill: none; stroke: #ff7f0e; stroke-width: 1.5"/>
    <path d="M 254.643246 254.9 
L 254.643246 231.778831 
L 263.913596 231.778831 
L 263.913596 254.9 
" clip-path="url(#p7b14f402fa)" style="fill: none; stroke: #ff7f0e; stroke-width: 1.5"/>
    <path d="M 240.737719 234.268779 
L 240.737719 225.66113 
L 259.278421 225.66113 
L 259.278421 231.778831 
" clip-path="url(#p7b14f402fa)" style="fill: none; stroke: #ff7f0e; stroke-width: 1.5"/>
    <path d="M 212.926667 229.367527 
L 212.926667 203.074727 
L 250.00807 203.074727 
L 250.00807 225.66113 
" clip-path="url(#p7b14f402fa)" style="fill: none; stroke: #ff7f0e; stroke-width: 1.5"/>
    <path d="M 185.115614 251.893577 
L 185.115614 179.102601 
L 231.467368 179.102601 
L 231.467368 203.074727 
" clip-path="url(#p7b14f402fa)" style="fill: none; stroke: #ff7f0e; stroke-width: 1.5"/>
    <path d="M 102.261853 196.809004 
L 102.261853 148.186278 
L 208.291491 148.186278 
L 208.291491 179.102601 
" clip-path="url(#p7b14f402fa)" style="fill: none; stroke: #ff7f0e; stroke-width: 1.5"/>
   </g>
   <g id="LineCollection_2">
    <path d="M 273.183947 254.9 
L 273.183947 246.943306 
L 282.454298 246.943306 
L 282.454298 254.9 
" clip-path="url(#p7b14f402fa)" style="fill: none; stroke: #2ca02c; stroke-width: 1.5"/>
    <path d="M 291.724649 254.9 
L 291.724649 245.787438 
L 300.995 245.787438 
L 300.995 254.9 
" clip-path="url(#p7b14f402fa)" style="fill: none; stroke: #2ca02c; stroke-width: 1.5"/>
    <path d="M 277.819123 246.943306 
L 277.819123 241.332981 
L 296.359825 241.332981 
L 296.359825 245.787438 
" clip-path="url(#p7b14f402fa)" style="fill: none; stroke: #2ca02c; stroke-width: 1.5"/>
    <path d="M 310.265351 254.9 
L 310.265351 248.817507 
L 319.535702 248.817507 
L 319.535702 254.9 
" clip-path="url(#p7b14f402fa)" style="fill: none; stroke: #2ca02c; stroke-width: 1.5"/>
    <path d="M 328.806053 254.9 
L 328.806053 240.293814 
L 338.076404 240.293814 
L 338.076404 254.9 
" clip-path="url(#p7b14f402fa)" style="fill: none; stroke: #2ca02c; stroke-width: 1.5"/>
    <path d="M 314.900526 248.817507 
L 314.900526 237.422685 
L 333.441228 237.422685 
L 333.441228 240.293814 
" clip-path="url(#p7b14f402fa)" style="fill: none; stroke: #2ca02c; stroke-width: 1.5"/>
    <path d="M 287.089474 241.332981 
L 287.089474 233.789856 
L 324.170877 233.789856 
L 324.170877 237.422685 
" clip-path="url(#p7b14f402fa)" style="fill: none; stroke: #2ca02c; stroke-width: 1.5"/>
    <path d="M 347.346754 254.9 
L 347.346754 242.103081 
L 356.617105 242.103081 
L 356.617105 254.9 
" clip-path="url(#p7b14f402fa)" style="fill: none; stroke: #2ca02c; stroke-width: 1.5"/>
    <path d="M 365.887456 254.9 
L 365.887456 241.376802 
L 375.157807 241.376802 
L 375.157807 254.9 
" clip-path="url(#p7b14f402fa)" style="fill: none; stroke: #2ca02c; stroke-width: 1.5"/>
    <path d="M 351.98193 242.103081 
L 351.98193 233.068503 
L 370.522632 233.068503 
L 370.522632 241.376802 
" clip-path="url(#p7b14f402fa)" style="fill: none; stroke: #2ca02c; stroke-width: 1.5"/>
    <path d="M 384.428158 254.9 
L 384.428158 241.279791 
L 393.698509 241.279791 
L 393.698509 254.9 
" clip-path="url(#p7b14f402fa)" style="fill: none; stroke: #2ca02c; stroke-width: 1.5"/>
    <path d="M 402.96886 254.9 
L 402.96886 240.889022 
L 412.239211 240.889022 
L 412.239211 254.9 
" clip-path="url(#p7b14f402fa)" style="fill: none; stroke: #2ca02c; stroke-width: 1.5"/>
    <path d="M 389.063333 241.279791 
L 389.063333 232.235605 
L 407.604035 232.235605 
L 407.604035 240.889022 
" clip-path="url(#p7b14f402fa)" style="fill: none; stroke: #2ca02c; stroke-width: 1.5"/>
    <path d="M 361.252281 233.068503 
L 361.252281 229.798685 
L 398.333684 229.798685 
L 398.333684 232.235605 
" clip-path="url(#p7b14f402fa)" style="fill: none; stroke: #2ca02c; stroke-width: 1.5"/>
    <path d="M 305.630175 233.789856 
L 305.630175 218.907745 
L 379.792982 218.907745 
L 379.792982 229.798685 
" clip-path="url(#p7b14f402fa)" style="fill: none; stroke: #2ca02c; stroke-width: 1.5"/>
    <path d="M 421.509561 254.9 
L 421.509561 242.532434 
L 430.779912 242.532434 
L 430.779912 254.9 
" clip-path="url(#p7b14f402fa)" style="fill: none; stroke: #2ca02c; stroke-width: 1.5"/>
    <path d="M 440.050263 254.9 
L 440.050263 238.629025 
L 449.320614 238.629025 
L 449.320614 254.9 
" clip-path="url(#p7b14f402fa)" style="fill: none; stroke: #2ca02c; stroke-width: 1.5"/>
    <path d="M 426.144737 242.532434 
L 426.144737 231.114758 
L 444.685439 231.114758 
L 444.685439 238.629025 
" clip-path="url(#p7b14f402fa)" style="fill: none; stroke: #2ca02c; stroke-width: 1.5"/>
    <path d="M 458.590965 254.9 
L 458.590965 234.267608 
L 467.861316 234.267608 
L 467.861316 254.9 
" clip-path="url(#p7b14f402fa)" style="fill: none; stroke: #2ca02c; stroke-width: 1.5"/>
    <path d="M 477.131667 254.9 
L 477.131667 233.604915 
L 486.402018 233.604915 
L 486.402018 254.9 
" clip-path="url(#p7b14f402fa)" style="fill: none; stroke: #2ca02c; stroke-width: 1.5"/>
    <path d="M 463.22614 234.267608 
L 463.22614 228.859168 
L 481.766842 228.859168 
L 481.766842 233.604915 
" clip-path="url(#p7b14f402fa)" style="fill: none; stroke: #2ca02c; stroke-width: 1.5"/>
    <path d="M 435.415088 231.114758 
L 435.415088 222.531717 
L 472.496491 222.531717 
L 472.496491 228.859168 
" clip-path="url(#p7b14f402fa)" style="fill: none; stroke: #2ca02c; stroke-width: 1.5"/>
    <path d="M 495.672368 254.9 
L 495.672368 244.777542 
L 504.942719 244.777542 
L 504.942719 254.9 
" clip-path="url(#p7b14f402fa)" style="fill: none; stroke: #2ca02c; stroke-width: 1.5"/>
    <path d="M 514.21307 254.9 
L 514.21307 226.981506 
L 523.483421 226.981506 
L 523.483421 254.9 
" clip-path="url(#p7b14f402fa)" style="fill: none; stroke: #2ca02c; stroke-width: 1.5"/>
    <path d="M 500.307544 244.777542 
L 500.307544 223.604812 
L 518.848246 223.604812 
L 518.848246 226.981506 
" clip-path="url(#p7b14f402fa)" style="fill: none; stroke: #2ca02c; stroke-width: 1.5"/>
    <path d="M 532.753772 254.9 
L 532.753772 235.88408 
L 542.024123 235.88408 
L 542.024123 254.9 
" clip-path="url(#p7b14f402fa)" style="fill: none; stroke: #2ca02c; stroke-width: 1.5"/>
    <path d="M 551.294474 254.9 
L 551.294474 232.9892 
L 560.564825 232.9892 
L 560.564825 254.9 
" clip-path="url(#p7b14f402fa)" style="fill: none; stroke: #2ca02c; stroke-width: 1.5"/>
    <path d="M 537.388947 235.88408 
L 537.388947 217.329903 
L 555.929649 217.329903 
L 555.929649 232.9892 
" clip-path="url(#p7b14f402fa)" style="fill: none; stroke: #2ca02c; stroke-width: 1.5"/>
    <path d="M 509.577895 223.604812 
L 509.577895 206.028615 
L 546.659298 206.028615 
L 546.659298 217.329903 
" clip-path="url(#p7b14f402fa)" style="fill: none; stroke: #2ca02c; stroke-width: 1.5"/>
    <path d="M 453.955789 222.531717 
L 453.955789 178.198263 
L 528.118596 178.198263 
L 528.118596 206.028615 
" clip-path="url(#p7b14f402fa)" style="fill: none; stroke: #2ca02c; stroke-width: 1.5"/>
    <path d="M 342.711579 218.907745 
L 342.711579 145.295659 
L 491.037193 145.295659 
L 491.037193 178.198263 
" clip-path="url(#p7b14f402fa)" style="fill: none; stroke: #2ca02c; stroke-width: 1.5"/>
   </g>
   <g id="LineCollection_3">
    <path d="M 155.276672 148.186278 
L 155.276672 37.738095 
L 416.874386 37.738095 
L 416.874386 145.295659 
" clip-path="url(#p7b14f402fa)" style="fill: none; stroke: #1f77b4; stroke-width: 1.5"/>
   </g>
   <g id="patch_3">
    <path d="M 36.79 254.9 
L 36.79 26.88 
" style="fill: none; stroke: #000000; stroke-width: 0.8; stroke-linejoin: miter; stroke-linecap: square"/>
   </g>
   <g id="patch_4">
    <path d="M 565.2 254.9 
L 565.2 26.88 
" style="fill: none; stroke: #000000; stroke-width: 0.8; stroke-linejoin: miter; stroke-linecap: square"/>
   </g>
   <g id="patch_5">
    <path d="M 36.79 254.9 
L 565.2 254.9 
" style="fill: none; stroke: #000000; stroke-width: 0.8; stroke-linejoin: miter; stroke-linecap: square"/>
   </g>
   <g id="patch_6">
    <path d="M 36.79 26.88 
L 565.2 26.88 
" style="fill: none; stroke: #000000; stroke-width: 0.8; stroke-linejoin: miter; stroke-linecap: square"/>
   </g>
   <g id="text_67">
    <!-- Dendrogram (average linkage) -->
    <g transform="translate(208.528437 20.88) scale(0.12 -0.12)">
     <defs>
      <path id="DejaVuSans-44" d="M 1259 4147 
L 1259 519 
L 2022 519 
Q 2988 519 3436 956 
Q 3884 1394 3884 2338 
Q 3884 3275 3436 3711 
Q 2988 4147 2022 4147 
L 1259 4147 
z
M 628 4666 
L 1925 4666 
Q 3281 4666 3915 4102 
Q 4550 3538 4550 2338 
Q 4550 1131 3912 565 
Q 3275 0 1925 0 
L 628 0 
L 628 4666 
z
" transform="scale(0.015625)"/>
      <path id="DejaVuSans-65" d="M 3597 1894 
L 3597 1613 
L 953 1613 
Q 991 1019 1311 708 
Q 1631 397 2203 397 
Q 2534 397 2845 478 
Q 3156 559 3463 722 
L 3463 178 
Q 3153 47 2828 -22 
Q 2503 -91 2169 -91 
Q 1331 -91 842 396 
Q 353 884 353 1716 
Q 353 2575 817 3079 
Q 1281 3584 2069 3584 
Q 2775 3584 3186 3129 
Q 3597 2675 3597 1894 
z
M 3022 2063 
Q 3016 2534 2758 2815 
Q 2500 3097 2075 3097 
Q 1594 3097 1305 2825 
Q 1016 2553 972 2059 
L 3022 2063 
z
" transform="scale(0.015625)"/>
      <path id="DejaVuSans-6e" d="M 3513 2113 
L 3513 0 
L 2938 0 
L 2938 2094 
Q 2938 2591 2744 2837 
Q 2550 3084 2163 3084 
Q 1697 3084 1428 2787 
Q 1159 2491 1159 1978 
L 1159 0 
L 581 0 
L 581 3500 
L 1159 3500 
L 1159 2956 
Q 1366 3272 1645 3428 
Q 1925 3584 2291 3584 
Q 2894 3584 3203 3211 
Q 3513 2838 3513 2113 
z
" transform="scale(0.015625)"/>
      <path id="DejaVuSans-64" d="M 2906 2969 
L 2906 4863 
L 3481 4863 
L 3481 0 
L 2906 0 
L 2906 525 
Q 2725 213 2448 61 
Q 2172 -91 1784 -91 
Q 1150 -91 751 415 
Q 353 922 353 1747 
Q 353 2572 751 3078 
Q 1150 3584 1784 3584 
Q 2172 3584 2448 3432 
Q 2725 3281 2906 2969 
z
M 947 1747 
Q 947 1113 1208 752 
Q 1469 391 1925 391 
Q 2381 391 2643 752 
Q 2906 1113 2906 1747 
Q 2906 2381 2643 2742 
Q 2381 3103 1925 3103 
Q 1469 3103 1208 2742 
Q 947 2381 947 1747 
z
" transform="scale(0.015625)"/>
      <path id="DejaVuSans-72" d="M 2631 2963 
Q 2534 3019 2420 3045 
Q 2306 3072 2169 3072 
Q 1681 3072 1420 2755 
Q 1159 2438 1159 1844 
L 1159 0 
L 581 0 
L 581 3500 
L 1159 3500 
L 1159 2956 
Q 1341 3275 1631 3429 
Q 1922 3584 2338 3584 
Q 2397 3584 2469 3576 
Q 2541 3569 2628 3553 
L 2631 2963 
z
" transform="scale(0.015625)"/>
      <path id="DejaVuSans-6f" d="M 1959 3097 
Q 1497 3097 1228 2736 
Q 959 2375 959 1747 
Q 959 1119 1226 758 
Q 1494 397 1959 397 
Q 2419 397 2687 759 
Q 2956 1122 2956 1747 
Q 2956 2369 2687 2733 
Q 2419 3097 1959 3097 
z
M 1959 3584 
Q 2709 3584 3137 3096 
Q 3566 2609 3566 1747 
Q 3566 888 3137 398 
Q 2709 -91 1959 -91 
Q 1206 -91 779 398 
Q 353 888 353 1747 
Q 353 2609 779 3096 
Q 1206 3584 1959 3584 
z
" transform="scale(0.015625)"/>
      <path id="DejaVuSans-67" d="M 2906 1791 
Q 2906 2416 2648 2759 
Q 2391 3103 1925 3103 
Q 1463 3103 1205 2759 
Q 947 2416 947 1791 
Q 947 1169 1205 825 
Q 1463 481 1925 481 
Q 2391 481 2648 825 
Q 2906 1169 2906 1791 
z
M 3481 434 
Q 3481 -459 3084 -895 
Q 2688 -1331 1869 -1331 
Q 1566 -1331 1297 -1286 
Q 1028 -1241 775 -1147 
L 775 -588 
Q 1028 -725 1275 -790 
Q 1522 -856 1778 -856 
Q 2344 -856 2625 -561 
Q 2906 -266 2906 331 
L 2906 616 
Q 2728 306 2450 153 
Q 2172 0 1784 0 
Q 1141 0 747 490 
Q 353 981 353 1791 
Q 353 2603 747 3093 
Q 1141 3584 1784 3584 
Q 2172 3584 2450 3431 
Q 2728 3278 2906 2969 
L 2906 3500 
L 3481 3500 
L 3481 434 
z
" transform="scale(0.015625)"/>
      <path id="DejaVuSans-61" d="M 2194 1759 
Q 1497 1759 1228 1600 
Q 959 1441 959 1056 
Q 959 750 1161 570 
Q 1363 391 1709 391 
Q 2188 391 2477 730 
Q 2766 1069 2766 1631 
L 2766 1759 
L 2194 1759 
z
M 3341 1997 
L 3341 0 
L 2766 0 
L 2766 531 
Q 2569 213 2275 61 
Q 1981 -91 1556 -91 
Q 1019 -91 701 211 
Q 384 513 384 1019 
Q 384 1609 779 1909 
Q 1175 2209 1959 2209 
L 2766 2209 
L 2766 2266 
Q 2766 2663 2505 2880 
Q 2244 3097 1772 3097 
Q 1472 3097 1187 3025 
Q 903 2953 641 2809 
L 641 3341 
Q 956 3463 1253 3523 
Q 1550 3584 1831 3584 
Q 2591 3584 2966 3190 
Q 3341 2797 3341 1997 
z
" transform="scale(0.015625)"/>
      <path id="DejaVuSans-6d" d="M 3328 2828 
Q 3544 3216 3844 3400 
Q 4144 3584 4550 3584 
Q 5097 3584 5394 3201 
Q 5691 2819 5691 2113 
L 5691 0 
L 5113 0 
L 5113 2094 
Q 5113 2597 4934 2840 
Q 4756 3084 4391 3084 
Q 3944 3084 3684 2787 
Q 3425 2491 3425 1978 
L 3425 0 
L 2847 0 
L 2847 2094 
Q 2847 2600 2669 2842 
Q 2491 3084 2119 3084 
Q 1678 3084 1418 2786 
Q 1159 2488 1159 1978 
L 1159 0 
L 581 0 
L 581 3500 
L 1159 3500 
L 1159 2956 
Q 1356 3278 1631 3431 
Q 1906 3584 2284 3584 
Q 2666 3584 2933 3390 
Q 3200 3197 3328 2828 
z
" transform="scale(0.015625)"/>
      <path id="DejaVuSans-20" transform="scale(0.015625)"/>
      <path id="DejaVuSans-76" d="M 191 3500 
L 800 3500 
L 1894 563 
L 2988 3500 
L 3597 3500 
L 2284 0 
L 1503 0 
L 191 3500 
z
" transform="scale(0.015625)"/>
      <path id="DejaVuSans-6c" d="M 603 4863 
L 1178 4863 
L 1178 0 
L 603 0 
L 603 4863 
z
" transform="scale(0.015625)"/>
      <path id="DejaVuSans-69" d="M 603 3500 
L 1178 3500 
L 1178 0 
L 603 0 
L 603 3500 
z
M 603 4863 
L 1178 4863 
L 1178 4134 
L 603 4134 
L 603 4863 
z
" transform="scale(0.015625)"/>
      <path id="DejaVuSans-6b" d="M 581 4863 
L 1159 4863 
L 1159 1991 
L 2875 3500 
L 3609 3500 
L 1753 1863 
L 3688 0 
L 2938 0 
L 1159 1709 
L 1159 0 
L 581 0 
L 581 4863 
z
" transform="scale(0.015625)"/>
     </defs>
     <use xlink:href="#DejaVuSans-44"/>
     <use xlink:href="#DejaVuSans-65" x="77.001953"/>
     <use xlink:href="#DejaVuSans-6e" x="138.525391"/>
     <use xlink:href="#DejaVuSans-64" x="201.904297"/>
     <use xlink:href="#DejaVuSans-72" x="265.380859"/>
     <use xlink:href="#DejaVuSans-6f" x="304.244141"/>
     <use xlink:href="#DejaVuSans-67" x="365.425781"/>
     <use xlink:href="#DejaVuSans-72" x="428.902344"/>
     <use xlink:href="#DejaVuSans-61" x="470.015625"/>
     <use xlink:href="#DejaVuSans-6d" x="531.294922"/>
     <use xlink:href="#DejaVuSans-20" x="628.707031"/>
     <use xlink:href="#DejaVuSans-28" x="660.494141"/>
     <use xlink:href="#DejaVuSans-61" x="699.507812"/>
     <use xlink:href="#DejaVuSans-76" x="760.787109"/>
     <use xlink:href="#DejaVuSans-65" x="819.966797"/>
     <use xlink:href="#DejaVuSans-72" x="881.490234"/>
     <use xlink:href="#DejaVuSans-61" x="922.603516"/>
     <use xlink:href="#DejaVuSans-67" x="983.882812"/>
     <use xlink:href="#DejaVuSans-65" x="1047.359375"/>
     <use xlink:href="#DejaVuSans-20" x="1108.882812"/>
     <use xlink:href="#DejaVuSans-6c" x="1140.669922"/>
     <use xlink:href="#DejaVuSans-69" x="1168.453125"/>
     <use xlink:href="#DejaVuSans-6e" x="1196.236328"/>
     <use xlink:href="#DejaVuSans-6b" x="1259.615234"/>
     <use xlink:href="#DejaVuSans-61" x="1315.775391"/>
     <use xlink:href="#DejaVuSans-67" x="1377.054688"/>
     <use xlink:href="#DejaVuSans-65" x="1440.53125"/>
     <use xlink:href="#DejaVuSans-29" x="1502.054688"/>
    </g>
   </g>
  </g>
 </g>
 <defs>
  <clipPath id="p7b14f402fa">
   <rect x="36.79" y="26.88" width="528.41" height="228.02"/>
  </clipPath>
 </defs>
</svg>
