<?xml version="1.0" encoding="utf-8" standalone="no"?>
<!DOCTYPE svg PUBLIC "-//W3C//DTD SVG 1.1//EN"
  "http://www.w3.org/Graphics/SVG/1.1/DTD/svg11.dtd">
<svg xmlns:xlink="http://www.w3.org/1999/xlink" width="576pt" height="288pt" viewBox="0 0 576 288" xmlns="http://www.w3.org/2000/svg" version="1.1">
 <metadata>
  <rdf:RDF xmlns:dc="http://purl.org/dc/elements/1.1/" xmlns:cc="http://creativecommons.org/ns#" xmlns:rdf="http://www.w3.org/1999/02/22-rdf-syntax-ns#">
   <cc:Work>
    <dc:type rdf:resource="http://purl.org/dc/dcmitype/StillImage"/>
    <dc:date>2025-04-11T23:21:58.039458</dc:date>
    <dc:format>image/svg+xml</dc:format>
    <dc:creator>
     <cc:Agent>
      <dc:title>Matplotlib v3.9.4, https://matplotlib.org/</dc:title>
     </cc:Agent>
    </dc:creator>
   </cc:Work>
  </rdf:RDF>
 </metadata>
 <defs>
  <style type="text/css">*{stroke-linejoin: round; stroke-linecap: butt}</style>
 </defs>
 <g id="figure_1">
  <g id="patch_1">
   <path d="M 0 288 
L 576 288 
L 576 0 
L 0 0 
z
" style="fill: #ffffff"/>
  </g>
  <g id="axes_1">
   <g id="patch_2">
    <path d="M 43.18 254.9 
L 565.2 254.9 
L 565.2 26.88 
L 43.18 26.88 
z
" style="fill: #ffffff"/>
   </g>
   <g id="matplotlib.axis_1">
    <g id="xtick_1">
     <g id="text_1">
      <!-- 12 -->
      <g transform="translate(48.913906 269.535) rotate(-90) scale(0.06 -0.06)">
       <defs>
        <path id="DejaVuSans-31" d="M 794 531 
L 1825 531 
L 1825 4091 
L 703 3866 
L 703 4441 
L 1819 4666 
L 2450 4666 
L 2450 531 
L 3481 531 
L 3481 0 
L 794 0 
L 794 531 
z
" transform="scale(0.015625)"/>
        <path id="DejaVuSans-32" d="M 1228 531 
L 3431 531 
L 3431 0 
L 469 0 
L 469 531 
Q 828 903 1448 1529 
Q 2069 2156 2228 2338 
Q 2531 2678 2651 2914 
Q 2772 3150 2772 3378 
Q 2772 3750 2511 3984 
Q 2250 4219 1831 4219 
Q 1534 4219 1204 4116 
Q 875 4013 500 3803 
L 500 4441 
Q 881 4594 1212 4672 
Q 1544 4750 1819 4750 
Q 2544 4750 2975 4387 
Q 3406 4025 3406 3419 
Q 3406 3131 3298 2873 
Q 3191 2616 2906 2266 
Q 2828 2175 2409 1742 
Q 1991 1309 1228 531 
z
" transform="scale(0.015625)"/>
       </defs>
       <use xlink:href="#DejaVuSans-31"/>
       <use xlink:href="#DejaVuSans-32" x="63.623047"/>
      </g>
     </g>
    </g>
    <g id="xtick_2">
     <g id="text_2">
      <!-- 23 -->
      <g transform="translate(57.070469 269.535) rotate(-90) scale(0.06 -0.06)">
       <defs>
        <path id="DejaVuSans-33" d="M 2597 2516 
Q 3050 2419 3304 2112 
Q 3559 1806 3559 1356 
Q 3559 666 3084 287 
Q 2609 -91 1734 -91 
Q 1441 -91 1130 -33 
Q 819 25 488 141 
L 488 750 
Q 750 597 1062 519 
Q 1375 441 1716 441 
Q 2309 441 2620 675 
Q 2931 909 2931 1356 
Q 2931 1769 2642 2001 
Q 2353 2234 1838 2234 
L 1294 2234 
L 1294 2753 
L 1863 2753 
Q 2328 2753 2575 2939 
Q 2822 3125 2822 3475 
Q 2822 3834 2567 4026 
Q 2313 4219 1838 4219 
Q 1578 4219 1281 4162 
Q 984 4106 628 3988 
L 628 4550 
Q 988 4650 1302 4700 
Q 1616 4750 1894 4750 
Q 2613 4750 3031 4423 
Q 3450 4097 3450 3541 
Q 3450 3153 3228 2886 
Q 3006 2619 2597 2516 
z
" transform="scale(0.015625)"/>
       </defs>
       <use xlink:href="#DejaVuSans-32"/>
       <use xlink:href="#DejaVuSans-33" x="63.623047"/>
      </g>
     </g>
    </g>
    <g id="xtick_3">
     <g id="text_3">
      <!-- (3) -->
      <g transform="translate(65.227031 270.399375) rotate(-90) scale(0.06 -0.06)">
       <defs>
        <path id="DejaVuSans-28" d="M 1984 4856 
Q 1566 4138 1362 3434 
Q 1159 2731 1159 2009 
Q 1159 1288 1364 580 
Q 1569 -128 1984 -844 
L 1484 -844 
Q 1016 -109 783 600 
Q 550 1309 550 2009 
Q 550 2706 781 3412 
Q 1013 4119 1484 4856 
L 1984 4856 
z
" transform="scale(0.015625)"/>
        <path id="DejaVuSans-29" d="M 513 4856 
L 1013 4856 
Q 1481 4119 1714 3412 
Q 1947 2706 1947 2009 
Q 1947 1309 1714 600 
Q 1481 -109 1013 -844 
L 513 -844 
Q 928 -128 1133 580 
Q 1338 1288 1338 2009 
Q 1338 2731 1133 3434 
Q 928 4138 513 4856 
z
" transform="scale(0.015625)"/>
       </defs>
       <use xlink:href="#DejaVuSans-28"/>
       <use xlink:href="#DejaVuSans-33" x="39.013672"/>
       <use xlink:href="#DejaVuSans-29" x="102.636719"/>
      </g>
     </g>
    </g>
    <g id="xtick_4">
     <g id="text_4">
      <!-- (3) -->
      <g transform="translate(73.383594 270.399375) rotate(-90) scale(0.06 -0.06)">
       <use xlink:href="#DejaVuSans-28"/>
       <use xlink:href="#DejaVuSans-33" x="39.013672"/>
       <use xlink:href="#DejaVuSans-29" x="102.636719"/>
      </g>
     </g>
    </g>
    <g id="xtick_5">
     <g id="text_5">
      <!-- (9) -->
      <g transform="translate(81.540156 270.399375) rotate(-90) scale(0.06 -0.06)">
       <defs>
        <path id="DejaVuSans-39" d="M 703 97 
L 703 672 
Q 941 559 1184 500 
Q 1428 441 1663 441 
Q 2288 441 2617 861 
Q 2947 1281 2994 2138 
Q 2813 1869 2534 1725 
Q 2256 1581 1919 1581 
Q 1219 1581 811 2004 
Q 403 2428 403 3163 
Q 403 3881 828 4315 
Q 1253 4750 1959 4750 
Q 2769 4750 3195 4129 
Q 3622 3509 3622 2328 
Q 3622 1225 3098 567 
Q 2575 -91 1691 -91 
Q 1453 -91 1209 -44 
Q 966 3 703 97 
z
M 1959 2075 
Q 2384 2075 2632 2365 
Q 2881 2656 2881 3163 
Q 2881 3666 2632 3958 
Q 2384 4250 1959 4250 
Q 1534 4250 1286 3958 
Q 1038 3666 1038 3163 
Q 1038 2656 1286 2365 
Q 1534 2075 1959 2075 
z
" transform="scale(0.015625)"/>
       </defs>
       <use xlink:href="#DejaVuSans-28"/>
       <use xlink:href="#DejaVuSans-39" x="39.013672"/>
       <use xlink:href="#DejaVuSans-29" x="102.636719"/>
      </g>
     </g>
    </g>
    <g id="xtick_6">
     <g id="text_6">
      <!-- (9) -->
      <g transform="translate(89.696719 270.399375) rotate(-90) scale(0.06 -0.06)">
       <use xlink:href="#DejaVuSans-28"/>
       <use xlink:href="#DejaVuSans-39" x="39.013672"/>
       <use xlink:href="#DejaVuSans-29" x="102.636719"/>
      </g>
     </g>
    </g>
    <g id="xtick_7">
     <g id="text_7">
      <!-- (9) -->
      <g transform="translate(97.853281 270.399375) rotate(-90) scale(0.06 -0.06)">
       <use xlink:href="#DejaVuSans-28"/>
       <use xlink:href="#DejaVuSans-39" x="39.013672"/>
       <use xlink:href="#DejaVuSans-29" x="102.636719"/>
      </g>
     </g>
    </g>
    <g id="xtick_8">
     <g id="text_8">
      <!-- (7) -->
      <g transform="translate(106.009844 270.399375) rotate(-90) scale(0.06 -0.06)">
       <defs>
        <path id="DejaVuSans-37" d="M 525 4666 
L 3525 4666 
L 3525 4397 
L 1831 0 
L 1172 0 
L 2766 4134 
L 525 4134 
L 525 4666 
z
" transform="scale(0.015625)"/>
       </defs>
       <use xlink:href="#DejaVuSans-28"/>
       <use xlink:href="#DejaVuSans-37" x="39.013672"/>
       <use xlink:href="#DejaVuSans-29" x="102.636719"/>
      </g>
     </g>
    </g>
    <g id="xtick_9">
     <g id="text_9">
      <!-- (8) -->
      <g transform="translate(114.166406 270.399375) rotate(-90) scale(0.06 -0.06)">
       <defs>
        <path id="DejaVuSans-38" d="M 2034 2216 
Q 1584 2216 1326 1975 
Q 1069 1734 1069 1313 
Q 1069 891 1326 650 
Q 1584 409 2034 409 
Q 2484 409 2743 651 
Q 3003 894 3003 1313 
Q 3003 1734 2745 1975 
Q 2488 2216 2034 2216 
z
M 1403 2484 
Q 997 2584 770 2862 
Q 544 3141 544 3541 
Q 544 4100 942 4425 
Q 1341 4750 2034 4750 
Q 2731 4750 3128 4425 
Q 3525 4100 3525 3541 
Q 3525 3141 3298 2862 
Q 3072 2584 2669 2484 
Q 3125 2378 3379 2068 
Q 3634 1759 3634 1313 
Q 3634 634 3220 271 
Q 2806 -91 2034 -91 
Q 1263 -91 848 271 
Q 434 634 434 1313 
Q 434 1759 690 2068 
Q 947 2378 1403 2484 
z
M 1172 3481 
Q 1172 3119 1398 2916 
Q 1625 2713 2034 2713 
Q 2441 2713 2670 2916 
Q 2900 3119 2900 3481 
Q 2900 3844 2670 4047 
Q 2441 4250 2034 4250 
Q 1625 4250 1398 4047 
Q 1172 3844 1172 3481 
z
" transform="scale(0.015625)"/>
       </defs>
       <use xlink:href="#DejaVuSans-28"/>
       <use xlink:href="#DejaVuSans-38" x="39.013672"/>
       <use xlink:href="#DejaVuSans-29" x="102.636719"/>
      </g>
     </g>
    </g>
    <g id="xtick_10">
     <g id="text_10">
      <!-- (9) -->
      <g transform="translate(122.322969 270.399375) rotate(-90) scale(0.06 -0.06)">
       <use xlink:href="#DejaVuSans-28"/>
       <use xlink:href="#DejaVuSans-39" x="39.013672"/>
       <use xlink:href="#DejaVuSans-29" x="102.636719"/>
      </g>
     </g>
    </g>
    <g id="xtick_11">
     <g id="text_11">
      <!-- (8) -->
      <g transform="translate(130.479531 270.399375) rotate(-90) scale(0.06 -0.06)">
       <use xlink:href="#DejaVuSans-28"/>
       <use xlink:href="#DejaVuSans-38" x="39.013672"/>
       <use xlink:href="#DejaVuSans-29" x="102.636719"/>
      </g>
     </g>
    </g>
    <g id="xtick_12">
     <g id="text_12">
      <!-- (14) -->
      <g transform="translate(138.636094 274.216875) rotate(-90) scale(0.06 -0.06)">
       <defs>
        <path id="DejaVuSans-34" d="M 2419 4116 
L 825 1625 
L 2419 1625 
L 2419 4116 
z
M 2253 4666 
L 3047 4666 
L 3047 1625 
L 3713 1625 
L 3713 1100 
L 3047 1100 
L 3047 0 
L 2419 0 
L 2419 1100 
L 313 1100 
L 313 1709 
L 2253 4666 
z
" transform="scale(0.015625)"/>
       </defs>
       <use xlink:href="#DejaVuSans-28"/>
       <use xlink:href="#DejaVuSans-31" x="39.013672"/>
       <use xlink:href="#DejaVuSans-34" x="102.636719"/>
       <use xlink:href="#DejaVuSans-29" x="166.259766"/>
      </g>
     </g>
    </g>
    <g id="xtick_13">
     <g id="text_13">
      <!-- (7) -->
      <g transform="translate(146.792656 270.399375) rotate(-90) scale(0.06 -0.06)">
       <use xlink:href="#DejaVuSans-28"/>
       <use xlink:href="#DejaVuSans-37" x="39.013672"/>
       <use xlink:href="#DejaVuSans-29" x="102.636719"/>
      </g>
     </g>
    </g>
    <g id="xtick_14">
     <g id="text_14">
      <!-- (8) -->
      <g transform="translate(154.949219 270.399375) rotate(-90) scale(0.06 -0.06)">
       <use xlink:href="#DejaVuSans-28"/>
       <use xlink:href="#DejaVuSans-38" x="39.013672"/>
       <use xlink:href="#DejaVuSans-29" x="102.636719"/>
      </g>
     </g>
    </g>
    <g id="xtick_15">
     <g id="text_15">
      <!-- (5) -->
      <g transform="translate(163.105781 270.399375) rotate(-90) scale(0.06 -0.06)">
       <defs>
        <path id="DejaVuSans-35" d="M 691 4666 
L 3169 4666 
L 3169 4134 
L 1269 4134 
L 1269 2991 
Q 1406 3038 1543 3061 
Q 1681 3084 1819 3084 
Q 2600 3084 3056 2656 
Q 3513 2228 3513 1497 
Q 3513 744 3044 326 
Q 2575 -91 1722 -91 
Q 1428 -91 1123 -41 
Q 819 9 494 109 
L 494 744 
Q 775 591 1075 516 
Q 1375 441 1709 441 
Q 2250 441 2565 725 
Q 2881 1009 2881 1497 
Q 2881 1984 2565 2268 
Q 2250 2553 1709 2553 
Q 1456 2553 1204 2497 
Q 953 2441 691 2322 
L 691 4666 
z
" transform="scale(0.015625)"/>
       </defs>
       <use xlink:href="#DejaVuSans-28"/>
       <use xlink:href="#DejaVuSans-35" x="39.013672"/>
       <use xlink:href="#DejaVuSans-29" x="102.636719"/>
      </g>
     </g>
    </g>
    <g id="xtick_16">
     <g id="text_16">
      <!-- (9) -->
      <g transform="translate(171.262344 270.399375) rotate(-90) scale(0.06 -0.06)">
       <use xlink:href="#DejaVuSans-28"/>
       <use xlink:href="#DejaVuSans-39" x="39.013672"/>
       <use xlink:href="#DejaVuSans-29" x="102.636719"/>
      </g>
     </g>
    </g>
    <g id="xtick_17">
     <g id="text_17">
      <!-- (2) -->
      <g transform="translate(179.418906 270.399375) rotate(-90) scale(0.06 -0.06)">
       <use xlink:href="#DejaVuSans-28"/>
       <use xlink:href="#DejaVuSans-32" x="39.013672"/>
       <use xlink:href="#DejaVuSans-29" x="102.636719"/>
      </g>
     </g>
    </g>
    <g id="xtick_18">
     <g id="text_18">
      <!-- (3) -->
      <g transform="translate(187.575469 270.399375) rotate(-90) scale(0.06 -0.06)">
       <use xlink:href="#DejaVuSans-28"/>
       <use xlink:href="#DejaVuSans-33" x="39.013672"/>
       <use xlink:href="#DejaVuSans-29" x="102.636719"/>
      </g>
     </g>
    </g>
    <g id="xtick_19">
     <g id="text_19">
      <!-- 225 -->
      <g transform="translate(195.732031 273.3525) rotate(-90) scale(0.06 -0.06)">
       <use xlink:href="#DejaVuSans-32"/>
       <use xlink:href="#DejaVuSans-32" x="63.623047"/>
       <use xlink:href="#DejaVuSans-35" x="127.246094"/>
      </g>
     </g>
    </g>
    <g id="xtick_20">
     <g id="text_20">
      <!-- 249 -->
      <g transform="translate(203.888594 273.3525) rotate(-90) scale(0.06 -0.06)">
       <use xlink:href="#DejaVuSans-32"/>
       <use xlink:href="#DejaVuSans-34" x="63.623047"/>
       <use xlink:href="#DejaVuSans-39" x="127.246094"/>
      </g>
     </g>
    </g>
    <g id="xtick_21">
     <g id="text_21">
      <!-- (29) -->
      <g transform="translate(212.045156 274.216875) rotate(-90) scale(0.06 -0.06)">
       <use xlink:href="#DejaVuSans-28"/>
       <use xlink:href="#DejaVuSans-32" x="39.013672"/>
       <use xlink:href="#DejaVuSans-39" x="102.636719"/>
       <use xlink:href="#DejaVuSans-29" x="166.259766"/>
      </g>
     </g>
    </g>
    <g id="xtick_22">
     <g id="text_22">
      <!-- (16) -->
      <g transform="translate(220.201719 274.216875) rotate(-90) scale(0.06 -0.06)">
       <defs>
        <path id="DejaVuSans-36" d="M 2113 2584 
Q 1688 2584 1439 2293 
Q 1191 2003 1191 1497 
Q 1191 994 1439 701 
Q 1688 409 2113 409 
Q 2538 409 2786 701 
Q 3034 994 3034 1497 
Q 3034 2003 2786 2293 
Q 2538 2584 2113 2584 
z
M 3366 4563 
L 3366 3988 
Q 3128 4100 2886 4159 
Q 2644 4219 2406 4219 
Q 1781 4219 1451 3797 
Q 1122 3375 1075 2522 
Q 1259 2794 1537 2939 
Q 1816 3084 2150 3084 
Q 2853 3084 3261 2657 
Q 3669 2231 3669 1497 
Q 3669 778 3244 343 
Q 2819 -91 2113 -91 
Q 1303 -91 875 529 
Q 447 1150 447 2328 
Q 447 3434 972 4092 
Q 1497 4750 2381 4750 
Q 2619 4750 2861 4703 
Q 3103 4656 3366 4563 
z
" transform="scale(0.015625)"/>
       </defs>
       <use xlink:href="#DejaVuSans-28"/>
       <use xlink:href="#DejaVuSans-31" x="39.013672"/>
       <use xlink:href="#DejaVuSans-36" x="102.636719"/>
       <use xlink:href="#DejaVuSans-29" x="166.259766"/>
      </g>
     </g>
    </g>
    <g id="xtick_23">
     <g id="text_23">
      <!-- (29) -->
      <g transform="translate(228.358281 274.216875) rotate(-90) scale(0.06 -0.06)">
       <use xlink:href="#DejaVuSans-28"/>
       <use xlink:href="#DejaVuSans-32" x="39.013672"/>
       <use xlink:href="#DejaVuSans-39" x="102.636719"/>
       <use xlink:href="#DejaVuSans-29" x="166.259766"/>
      </g>
     </g>
    </g>
    <g id="xtick_24">
     <g id="text_24">
      <!-- (20) -->
      <g transform="translate(236.514844 274.216875) rotate(-90) scale(0.06 -0.06)">
       <defs>
        <path id="DejaVuSans-30" d="M 2034 4250 
Q 1547 4250 1301 3770 
Q 1056 3291 1056 2328 
Q 1056 1369 1301 889 
Q 1547 409 2034 409 
Q 2525 409 2770 889 
Q 3016 1369 3016 2328 
Q 3016 3291 2770 3770 
Q 2525 4250 2034 4250 
z
M 2034 4750 
Q 2819 4750 3233 4129 
Q 3647 3509 3647 2328 
Q 3647 1150 3233 529 
Q 2819 -91 2034 -91 
Q 1250 -91 836 529 
Q 422 1150 422 2328 
Q 422 3509 836 4129 
Q 1250 4750 2034 4750 
z
" transform="scale(0.015625)"/>
       </defs>
       <use xlink:href="#DejaVuSans-28"/>
       <use xlink:href="#DejaVuSans-32" x="39.013672"/>
       <use xlink:href="#DejaVuSans-30" x="102.636719"/>
       <use xlink:href="#DejaVuSans-29" x="166.259766"/>
      </g>
     </g>
    </g>
    <g id="xtick_25">
     <g id="text_25">
      <!-- (17) -->
      <g transform="translate(244.671406 274.216875) rotate(-90) scale(0.06 -0.06)">
       <use xlink:href="#DejaVuSans-28"/>
       <use xlink:href="#DejaVuSans-31" x="39.013672"/>
       <use xlink:href="#DejaVuSans-37" x="102.636719"/>
       <use xlink:href="#DejaVuSans-29" x="166.259766"/>
      </g>
     </g>
    </g>
    <g id="xtick_26">
     <g id="text_26">
      <!-- (25) -->
      <g transform="translate(252.827969 274.216875) rotate(-90) scale(0.06 -0.06)">
       <use xlink:href="#DejaVuSans-28"/>
       <use xlink:href="#DejaVuSans-32" x="39.013672"/>
       <use xlink:href="#DejaVuSans-35" x="102.636719"/>
       <use xlink:href="#DejaVuSans-29" x="166.259766"/>
      </g>
     </g>
    </g>
    <g id="xtick_27">
     <g id="text_27">
      <!-- (7) -->
      <g transform="translate(260.984531 270.399375) rotate(-90) scale(0.06 -0.06)">
       <use xlink:href="#DejaVuSans-28"/>
       <use xlink:href="#DejaVuSans-37" x="39.013672"/>
       <use xlink:href="#DejaVuSans-29" x="102.636719"/>
      </g>
     </g>
    </g>
    <g id="xtick_28">
     <g id="text_28">
      <!-- (7) -->
      <g transform="translate(269.141094 270.399375) rotate(-90) scale(0.06 -0.06)">
       <use xlink:href="#DejaVuSans-28"/>
       <use xlink:href="#DejaVuSans-37" x="39.013672"/>
       <use xlink:href="#DejaVuSans-29" x="102.636719"/>
      </g>
     </g>
    </g>
    <g id="xtick_29">
     <g id="text_29">
      <!-- (4) -->
      <g transform="translate(277.297656 270.399375) rotate(-90) scale(0.06 -0.06)">
       <use xlink:href="#DejaVuSans-28"/>
       <use xlink:href="#DejaVuSans-34" x="39.013672"/>
       <use xlink:href="#DejaVuSans-29" x="102.636719"/>
      </g>
     </g>
    </g>
    <g id="xtick_30">
     <g id="text_30">
      <!-- (4) -->
      <g transform="translate(285.454219 270.399375) rotate(-90) scale(0.06 -0.06)">
       <use xlink:href="#DejaVuSans-28"/>
       <use xlink:href="#DejaVuSans-34" x="39.013672"/>
       <use xlink:href="#DejaVuSans-29" x="102.636719"/>
      </g>
     </g>
    </g>
    <g id="xtick_31">
     <g id="text_31">
      <!-- (24) -->
      <g transform="translate(293.610781 274.216875) rotate(-90) scale(0.06 -0.06)">
       <use xlink:href="#DejaVuSans-28"/>
       <use xlink:href="#DejaVuSans-32" x="39.013672"/>
       <use xlink:href="#DejaVuSans-34" x="102.636719"/>
       <use xlink:href="#DejaVuSans-29" x="166.259766"/>
      </g>
     </g>
    </g>
    <g id="xtick_32">
     <g id="text_32">
      <!-- (36) -->
      <g transform="translate(301.767344 274.216875) rotate(-90) scale(0.06 -0.06)">
       <use xlink:href="#DejaVuSans-28"/>
       <use xlink:href="#DejaVuSans-33" x="39.013672"/>
       <use xlink:href="#DejaVuSans-36" x="102.636719"/>
       <use xlink:href="#DejaVuSans-29" x="166.259766"/>
      </g>
     </g>
    </g>
    <g id="xtick_33">
     <g id="text_33">
      <!-- 1066 -->
      <g transform="translate(309.923906 277.17) rotate(-90) scale(0.06 -0.06)">
       <use xlink:href="#DejaVuSans-31"/>
       <use xlink:href="#DejaVuSans-30" x="63.623047"/>
       <use xlink:href="#DejaVuSans-36" x="127.246094"/>
       <use xlink:href="#DejaVuSans-36" x="190.869141"/>
      </g>
     </g>
    </g>
    <g id="xtick_34">
     <g id="text_34">
      <!-- (6) -->
      <g transform="translate(318.080469 270.399375) rotate(-90) scale(0.06 -0.06)">
       <use xlink:href="#DejaVuSans-28"/>
       <use xlink:href="#DejaVuSans-36" x="39.013672"/>
       <use xlink:href="#DejaVuSans-29" x="102.636719"/>
      </g>
     </g>
    </g>
    <g id="xtick_35">
     <g id="text_35">
      <!-- (37) -->
      <g transform="translate(326.237031 274.216875) rotate(-90) scale(0.06 -0.06)">
       <use xlink:href="#DejaVuSans-28"/>
       <use xlink:href="#DejaVuSans-33" x="39.013672"/>
       <use xlink:href="#DejaVuSans-37" x="102.636719"/>
       <use xlink:href="#DejaVuSans-29" x="166.259766"/>
      </g>
     </g>
    </g>
    <g id="xtick_36">
     <g id="text_36">
      <!-- (33) -->
      <g transform="translate(334.393594 274.216875) rotate(-90) scale(0.06 -0.06)">
       <use xlink:href="#DejaVuSans-28"/>
       <use xlink:href="#DejaVuSans-33" x="39.013672"/>
       <use xlink:href="#DejaVuSans-33" x="102.636719"/>
       <use xlink:href="#DejaVuSans-29" x="166.259766"/>
      </g>
     </g>
    </g>
    <g id="xtick_37">
     <g id="text_37">
      <!-- (2) -->
      <g transform="translate(342.550156 270.399375) rotate(-90) scale(0.06 -0.06)">
       <use xlink:href="#DejaVuSans-28"/>
       <use xlink:href="#DejaVuSans-32" x="39.013672"/>
       <use xlink:href="#DejaVuSans-29" x="102.636719"/>
      </g>
     </g>
    </g>
    <g id="xtick_38">
     <g id="text_38">
      <!-- (7) -->
      <g transform="translate(350.706719 270.399375) rotate(-90) scale(0.06 -0.06)">
       <use xlink:href="#DejaVuSans-28"/>
       <use xlink:href="#DejaVuSans-37" x="39.013672"/>
       <use xlink:href="#DejaVuSans-29" x="102.636719"/>
      </g>
     </g>
    </g>
    <g id="xtick_39">
     <g id="text_39">
      <!-- (28) -->
      <g transform="translate(358.863281 274.216875) rotate(-90) scale(0.06 -0.06)">
       <use xlink:href="#DejaVuSans-28"/>
       <use xlink:href="#DejaVuSans-32" x="39.013672"/>
       <use xlink:href="#DejaVuSans-38" x="102.636719"/>
       <use xlink:href="#DejaVuSans-29" x="166.259766"/>
      </g>
     </g>
    </g>
    <g id="xtick_40">
     <g id="text_40">
      <!-- (39) -->
      <g transform="translate(367.019844 274.216875) rotate(-90) scale(0.06 -0.06)">
       <use xlink:href="#DejaVuSans-28"/>
       <use xlink:href="#DejaVuSans-33" x="39.013672"/>
       <use xlink:href="#DejaVuSans-39" x="102.636719"/>
       <use xlink:href="#DejaVuSans-29" x="166.259766"/>
      </g>
     </g>
    </g>
    <g id="xtick_41">
     <g id="text_41">
      <!-- (17) -->
      <g transform="translate(375.176406 274.216875) rotate(-90) scale(0.06 -0.06)">
       <use xlink:href="#DejaVuSans-28"/>
       <use xlink:href="#DejaVuSans-31" x="39.013672"/>
       <use xlink:href="#DejaVuSans-37" x="102.636719"/>
       <use xlink:href="#DejaVuSans-29" x="166.259766"/>
      </g>
     </g>
    </g>
    <g id="xtick_42">
     <g id="text_42">
      <!-- (30) -->
      <g transform="translate(383.332969 274.216875) rotate(-90) scale(0.06 -0.06)">
       <use xlink:href="#DejaVuSans-28"/>
       <use xlink:href="#DejaVuSans-33" x="39.013672"/>
       <use xlink:href="#DejaVuSans-30" x="102.636719"/>
       <use xlink:href="#DejaVuSans-29" x="166.259766"/>
      </g>
     </g>
    </g>
    <g id="xtick_43">
     <g id="text_43">
      <!-- (4) -->
      <g transform="translate(391.489531 270.399375) rotate(-90) scale(0.06 -0.06)">
       <use xlink:href="#DejaVuSans-28"/>
       <use xlink:href="#DejaVuSans-34" x="39.013672"/>
       <use xlink:href="#DejaVuSans-29" x="102.636719"/>
      </g>
     </g>
    </g>
    <g id="xtick_44">
     <g id="text_44">
      <!-- (12) -->
      <g transform="translate(399.646094 274.216875) rotate(-90) scale(0.06 -0.06)">
       <use xlink:href="#DejaVuSans-28"/>
       <use xlink:href="#DejaVuSans-31" x="39.013672"/>
       <use xlink:href="#DejaVuSans-32" x="102.636719"/>
       <use xlink:href="#DejaVuSans-29" x="166.259766"/>
      </g>
     </g>
    </g>
    <g id="xtick_45">
     <g id="text_45">
      <!-- (17) -->
      <g transform="translate(407.802656 274.216875) rotate(-90) scale(0.06 -0.06)">
       <use xlink:href="#DejaVuSans-28"/>
       <use xlink:href="#DejaVuSans-31" x="39.013672"/>
       <use xlink:href="#DejaVuSans-37" x="102.636719"/>
       <use xlink:href="#DejaVuSans-29" x="166.259766"/>
      </g>
     </g>
    </g>
    <g id="xtick_46">
     <g id="text_46">
      <!-- (31) -->
      <g transform="translate(415.959219 274.216875) rotate(-90) scale(0.06 -0.06)">
       <use xlink:href="#DejaVuSans-28"/>
       <use xlink:href="#DejaVuSans-33" x="39.013672"/>
       <use xlink:href="#DejaVuSans-31" x="102.636719"/>
       <use xlink:href="#DejaVuSans-29" x="166.259766"/>
      </g>
     </g>
    </g>
    <g id="xtick_47">
     <g id="text_47">
      <!-- (32) -->
      <g transform="translate(424.115781 274.216875) rotate(-90) scale(0.06 -0.06)">
       <use xlink:href="#DejaVuSans-28"/>
       <use xlink:href="#DejaVuSans-33" x="39.013672"/>
       <use xlink:href="#DejaVuSans-32" x="102.636719"/>
       <use xlink:href="#DejaVuSans-29" x="166.259766"/>
      </g>
     </g>
    </g>
    <g id="xtick_48">
     <g id="text_48">
      <!-- (30) -->
      <g transform="translate(432.272344 274.216875) rotate(-90) scale(0.06 -0.06)">
       <use xlink:href="#DejaVuSans-28"/>
       <use xlink:href="#DejaVuSans-33" x="39.013672"/>
       <use xlink:href="#DejaVuSans-30" x="102.636719"/>
       <use xlink:href="#DejaVuSans-29" x="166.259766"/>
      </g>
     </g>
    </g>
    <g id="xtick_49">
     <g id="text_49">
      <!-- (20) -->
      <g transform="translate(440.428906 274.216875) rotate(-90) scale(0.06 -0.06)">
       <use xlink:href="#DejaVuSans-28"/>
       <use xlink:href="#DejaVuSans-32" x="39.013672"/>
       <use xlink:href="#DejaVuSans-30" x="102.636719"/>
       <use xlink:href="#DejaVuSans-29" x="166.259766"/>
      </g>
     </g>
    </g>
    <g id="xtick_50">
     <g id="text_50">
      <!-- (27) -->
      <g transform="translate(448.585469 274.216875) rotate(-90) scale(0.06 -0.06)">
       <use xlink:href="#DejaVuSans-28"/>
       <use xlink:href="#DejaVuSans-32" x="39.013672"/>
       <use xlink:href="#DejaVuSans-37" x="102.636719"/>
       <use xlink:href="#DejaVuSans-29" x="166.259766"/>
      </g>
     </g>
    </g>
    <g id="xtick_51">
     <g id="text_51">
      <!-- (13) -->
      <g transform="translate(456.742031 274.216875) rotate(-90) scale(0.06 -0.06)">
       <use xlink:href="#DejaVuSans-28"/>
       <use xlink:href="#DejaVuSans-31" x="39.013672"/>
       <use xlink:href="#DejaVuSans-33" x="102.636719"/>
       <use xlink:href="#DejaVuSans-29" x="166.259766"/>
      </g>
     </g>
    </g>
    <g id="xtick_52">
     <g id="text_52">
      <!-- (51) -->
      <g transform="translate(464.898594 274.216875) rotate(-90) scale(0.06 -0.06)">
       <use xlink:href="#DejaVuSans-28"/>
       <use xlink:href="#DejaVuSans-35" x="39.013672"/>
       <use xlink:href="#DejaVuSans-31" x="102.636719"/>
       <use xlink:href="#DejaVuSans-29" x="166.259766"/>
      </g>
     </g>
    </g>
    <g id="xtick_53">
     <g id="text_53">
      <!-- (5) -->
      <g transform="translate(473.055156 270.399375) rotate(-90) scale(0.06 -0.06)">
       <use xlink:href="#DejaVuSans-28"/>
       <use xlink:href="#DejaVuSans-35" x="39.013672"/>
       <use xlink:href="#DejaVuSans-29" x="102.636719"/>
      </g>
     </g>
    </g>
    <g id="xtick_54">
     <g id="text_54">
      <!-- (10) -->
      <g transform="translate(481.211719 274.216875) rotate(-90) scale(0.06 -0.06)">
       <use xlink:href="#DejaVuSans-28"/>
       <use xlink:href="#DejaVuSans-31" x="39.013672"/>
       <use xlink:href="#DejaVuSans-30" x="102.636719"/>
       <use xlink:href="#DejaVuSans-29" x="166.259766"/>
      </g>
     </g>
    </g>
    <g id="xtick_55">
     <g id="text_55">
      <!-- (52) -->
      <g transform="translate(489.368281 274.216875) rotate(-90) scale(0.06 -0.06)">
       <use xlink:href="#DejaVuSans-28"/>
       <use xlink:href="#DejaVuSans-35" x="39.013672"/>
       <use xlink:href="#DejaVuSans-32" x="102.636719"/>
       <use xlink:href="#DejaVuSans-29" x="166.259766"/>
      </g>
     </g>
    </g>
    <g id="xtick_56">
     <g id="text_56">
      <!-- (62) -->
      <g transform="translate(497.524844 274.216875) rotate(-90) scale(0.06 -0.06)">
       <use xlink:href="#DejaVuSans-28"/>
       <use xlink:href="#DejaVuSans-36" x="39.013672"/>
       <use xlink:href="#DejaVuSans-32" x="102.636719"/>
       <use xlink:href="#DejaVuSans-29" x="166.259766"/>
      </g>
     </g>
    </g>
    <g id="xtick_57">
     <g id="text_57">
      <!-- (19) -->
      <g transform="translate(505.681406 274.216875) rotate(-90) scale(0.06 -0.06)">
       <use xlink:href="#DejaVuSans-28"/>
       <use xlink:href="#DejaVuSans-31" x="39.013672"/>
       <use xlink:href="#DejaVuSans-39" x="102.636719"/>
       <use xlink:href="#DejaVuSans-29" x="166.259766"/>
      </g>
     </g>
    </g>
    <g id="xtick_58">
     <g id="text_58">
      <!-- (28) -->
      <g transform="translate(513.837969 274.216875) rotate(-90) scale(0.06 -0.06)">
       <use xlink:href="#DejaVuSans-28"/>
       <use xlink:href="#DejaVuSans-32" x="39.013672"/>
       <use xlink:href="#DejaVuSans-38" x="102.636719"/>
       <use xlink:href="#DejaVuSans-29" x="166.259766"/>
      </g>
     </g>
    </g>
    <g id="xtick_59">
     <g id="text_59">
      <!-- (6) -->
      <g transform="translate(521.994531 270.399375) rotate(-90) scale(0.06 -0.06)">
       <use xlink:href="#DejaVuSans-28"/>
       <use xlink:href="#DejaVuSans-36" x="39.013672"/>
       <use xlink:href="#DejaVuSans-29" x="102.636719"/>
      </g>
     </g>
    </g>
    <g id="xtick_60">
     <g id="text_60">
      <!-- (36) -->
      <g transform="translate(530.151094 274.216875) rotate(-90) scale(0.06 -0.06)">
       <use xlink:href="#DejaVuSans-28"/>
       <use xlink:href="#DejaVuSans-33" x="39.013672"/>
       <use xlink:href="#DejaVuSans-36" x="102.636719"/>
       <use xlink:href="#DejaVuSans-29" x="166.259766"/>
      </g>
     </g>
    </g>
    <g id="xtick_61">
     <g id="text_61">
      <!-- 760 -->
      <g transform="translate(538.307656 273.3525) rotate(-90) scale(0.06 -0.06)">
       <use xlink:href="#DejaVuSans-37"/>
       <use xlink:href="#DejaVuSans-36" x="63.623047"/>
       <use xlink:href="#DejaVuSans-30" x="127.246094"/>
      </g>
     </g>
    </g>
    <g id="xtick_62">
     <g id="text_62">
      <!-- 761 -->
      <g transform="translate(546.464219 273.3525) rotate(-90) scale(0.06 -0.06)">
       <use xlink:href="#DejaVuSans-37"/>
       <use xlink:href="#DejaVuSans-36" x="63.623047"/>
       <use xlink:href="#DejaVuSans-31" x="127.246094"/>
      </g>
     </g>
    </g>
    <g id="xtick_63">
     <g id="text_63">
      <!-- (60) -->
      <g transform="translate(554.620781 274.216875) rotate(-90) scale(0.06 -0.06)">
       <use xlink:href="#DejaVuSans-28"/>
       <use xlink:href="#DejaVuSans-36" x="39.013672"/>
       <use xlink:href="#DejaVuSans-30" x="102.636719"/>
       <use xlink:href="#DejaVuSans-29" x="166.259766"/>
      </g>
     </g>
    </g>
    <g id="xtick_64">
     <g id="text_64">
      <!-- (91) -->
      <g transform="translate(562.777344 274.216875) rotate(-90) scale(0.06 -0.06)">
       <use xlink:href="#DejaVuSans-28"/>
       <use xlink:href="#DejaVuSans-39" x="39.013672"/>
       <use xlink:href="#DejaVuSans-31" x="102.636719"/>
       <use xlink:href="#DejaVuSans-29" x="166.259766"/>
      </g>
     </g>
    </g>
   </g>
   <g id="matplotlib.axis_2">
    <g id="ytick_1">
     <g id="line2d_1">
      <defs>
       <path id="m6ae0b2151b" d="M 0 0 
L -3.5 0 
" style="stroke: #000000; stroke-width: 0.8"/>
      </defs>
      <g>
       <use xlink:href="#m6ae0b2151b" x="43.18" y="254.9" style="stroke: #000000; stroke-width: 0.8"/>
      </g>
     </g>
     <g id="text_65">
      <!-- 0 -->
      <g transform="translate(29.8175 258.699219) scale(0.1 -0.1)">
       <use xlink:href="#DejaVuSans-30"/>
      </g>
     </g>
    </g>
    <g id="ytick_2">
     <g id="line2d_2">
      <g>
       <use xlink:href="#m6ae0b2151b" x="43.18" y="227.706669" style="stroke: #000000; stroke-width: 0.8"/>
      </g>
     </g>
     <g id="text_66">
      <!-- 200 -->
      <g transform="translate(17.0925 231.505887) scale(0.1 -0.1)">
       <use xlink:href="#DejaVuSans-32"/>
       <use xlink:href="#DejaVuSans-30" x="63.623047"/>
       <use xlink:href="#DejaVuSans-30" x="127.246094"/>
      </g>
     </g>
    </g>
    <g id="ytick_3">
     <g id="line2d_3">
      <g>
       <use xlink:href="#m6ae0b2151b" x="43.18" y="200.513337" style="stroke: #000000; stroke-width: 0.8"/>
      </g>
     </g>
     <g id="text_67">
      <!-- 400 -->
      <g transform="translate(17.0925 204.312556) scale(0.1 -0.1)">
       <use xlink:href="#DejaVuSans-34"/>
       <use xlink:href="#DejaVuSans-30" x="63.623047"/>
       <use xlink:href="#DejaVuSans-30" x="127.246094"/>
      </g>
     </g>
    </g>
    <g id="ytick_4">
     <g id="line2d_4">
      <g>
       <use xlink:href="#m6ae0b2151b" x="43.18" y="173.320006" style="stroke: #000000; stroke-width: 0.8"/>
      </g>
     </g>
     <g id="text_68">
      <!-- 600 -->
      <g transform="translate(17.0925 177.119225) scale(0.1 -0.1)">
       <use xlink:href="#DejaVuSans-36"/>
       <use xlink:href="#DejaVuSans-30" x="63.623047"/>
       <use xlink:href="#DejaVuSans-30" x="127.246094"/>
      </g>
     </g>
    </g>
    <g id="ytick_5">
     <g id="line2d_5">
      <g>
       <use xlink:href="#m6ae0b2151b" x="43.18" y="146.126675" style="stroke: #000000; stroke-width: 0.8"/>
      </g>
     </g>
     <g id="text_69">
      <!-- 800 -->
      <g transform="translate(17.0925 149.925893) scale(0.1 -0.1)">
       <use xlink:href="#DejaVuSans-38"/>
       <use xlink:href="#DejaVuSans-30" x="63.623047"/>
       <use xlink:href="#DejaVuSans-30" x="127.246094"/>
      </g>
     </g>
    </g>
    <g id="ytick_6">
     <g id="line2d_6">
      <g>
       <use xlink:href="#m6ae0b2151b" x="43.18" y="118.933343" style="stroke: #000000; stroke-width: 0.8"/>
      </g>
     </g>
     <g id="text_70">
      <!-- 1000 -->
      <g transform="translate(10.73 122.732562) scale(0.1 -0.1)">
       <use xlink:href="#DejaVuSans-31"/>
       <use xlink:href="#DejaVuSans-30" x="63.623047"/>
       <use xlink:href="#DejaVuSans-30" x="127.246094"/>
       <use xlink:href="#DejaVuSans-30" x="190.869141"/>
      </g>
     </g>
    </g>
    <g id="ytick_7">
     <g id="line2d_7">
      <g>
       <use xlink:href="#m6ae0b2151b" x="43.18" y="91.740012" style="stroke: #000000; stroke-width: 0.8"/>
      </g>
     </g>
     <g id="text_71">
      <!-- 1200 -->
      <g transform="translate(10.73 95.539231) scale(0.1 -0.1)">
       <use xlink:href="#DejaVuSans-31"/>
       <use xlink:href="#DejaVuSans-32" x="63.623047"/>
       <use xlink:href="#DejaVuSans-30" x="127.246094"/>
       <use xlink:href="#DejaVuSans-30" x="190.869141"/>
      </g>
     </g>
    </g>
    <g id="ytick_8">
     <g id="line2d_8">
      <g>
       <use xlink:href="#m6ae0b2151b" x="43.18" y="64.546681" style="stroke: #000000; stroke-width: 0.8"/>
      </g>
     </g>
     <g id="text_72">
      <!-- 1400 -->
      <g transform="translate(10.73 68.345899) scale(0.1 -0.1)">
       <use xlink:href="#DejaVuSans-31"/>
       <use xlink:href="#DejaVuSans-34" x="63.623047"/>
       <use xlink:href="#DejaVuSans-30" x="127.246094"/>
       <use xlink:href="#DejaVuSans-30" x="190.869141"/>
      </g>
     </g>
    </g>
    <g id="ytick_9">
     <g id="line2d_9">
      <g>
       <use xlink:href="#m6ae0b2151b" x="43.18" y="37.353349" style="stroke: #000000; stroke-width: 0.8"/>
      </g>
     </g>
     <g id="text_73">
      <!-- 1600 -->
      <g transform="translate(10.73 41.152568) scale(0.1 -0.1)">
       <use xlink:href="#DejaVuSans-31"/>
       <use xlink:href="#DejaVuSans-36" x="63.623047"/>
       <use xlink:href="#DejaVuSans-30" x="127.246094"/>
       <use xlink:href="#DejaVuSans-30" x="190.869141"/>
      </g>
     </g>
    </g>
   </g>
   <g id="LineCollection_1">
    <path d="M 47.258281 254.9 
L 47.258281 251.158719 
L 55.414844 251.158719 
L 55.414844 254.9 
" clip-path="url(#p9a88be315b)" style="fill: none; stroke: #ff7f0e; stroke-width: 1.5"/>
    <path d="M 63.571406 254.9 
L 63.571406 248.628196 
L 71.727969 248.628196 
L 71.727969 254.9 
" clip-path="url(#p9a88be315b)" style="fill: none; stroke: #ff7f0e; stroke-width: 1.5"/>
    <path d="M 51.336563 251.158719 
L 51.336563 248.22665 
L 67.649687 248.22665 
L 67.649687 248.628196 
" clip-path="url(#p9a88be315b)" style="fill: none; stroke: #ff7f0e; stroke-width: 1.5"/>
    <path d="M 79.884531 254.9 
L 79.884531 247.871338 
L 88.041094 247.871338 
L 88.041094 254.9 
" clip-path="url(#p9a88be315b)" style="fill: none; stroke: #ff7f0e; stroke-width: 1.5"/>
    <path d="M 96.197656 254.9 
L 96.197656 246.132447 
L 104.354219 246.132447 
L 104.354219 254.9 
" clip-path="url(#p9a88be315b)" style="fill: none; stroke: #ff7f0e; stroke-width: 1.5"/>
    <path d="M 83.962813 247.871338 
L 83.962813 245.499311 
L 100.275937 245.499311 
L 100.275937 246.132447 
" clip-path="url(#p9a88be315b)" style="fill: none; stroke: #ff7f0e; stroke-width: 1.5"/>
    <path d="M 59.493125 248.22665 
L 59.493125 239.354859 
L 92.119375 239.354859 
L 92.119375 245.499311 
" clip-path="url(#p9a88be315b)" style="fill: none; stroke: #ff7f0e; stroke-width: 1.5"/>
    <path d="M 112.510781 254.9 
L 112.510781 248.458566 
L 120.667344 248.458566 
L 120.667344 254.9 
" clip-path="url(#p9a88be315b)" style="fill: none; stroke: #ff7f0e; stroke-width: 1.5"/>
    <path d="M 128.823906 254.9 
L 128.823906 244.842801 
L 136.980469 244.842801 
L 136.980469 254.9 
" clip-path="url(#p9a88be315b)" style="fill: none; stroke: #ff7f0e; stroke-width: 1.5"/>
    <path d="M 116.589063 248.458566 
L 116.589063 241.421084 
L 132.902187 241.421084 
L 132.902187 244.842801 
" clip-path="url(#p9a88be315b)" style="fill: none; stroke: #ff7f0e; stroke-width: 1.5"/>
    <path d="M 145.137031 254.9 
L 145.137031 244.868732 
L 153.293594 244.868732 
L 153.293594 254.9 
" clip-path="url(#p9a88be315b)" style="fill: none; stroke: #ff7f0e; stroke-width: 1.5"/>
    <path d="M 161.450156 254.9 
L 161.450156 243.641494 
L 169.606719 243.641494 
L 169.606719 254.9 
" clip-path="url(#p9a88be315b)" style="fill: none; stroke: #ff7f0e; stroke-width: 1.5"/>
    <path d="M 149.215313 244.868732 
L 149.215313 239.447724 
L 165.528437 239.447724 
L 165.528437 243.641494 
" clip-path="url(#p9a88be315b)" style="fill: none; stroke: #ff7f0e; stroke-width: 1.5"/>
    <path d="M 124.745625 241.421084 
L 124.745625 232.910437 
L 157.371875 232.910437 
L 157.371875 239.447724 
" clip-path="url(#p9a88be315b)" style="fill: none; stroke: #ff7f0e; stroke-width: 1.5"/>
    <path d="M 75.80625 239.354859 
L 75.80625 228.157768 
L 141.05875 228.157768 
L 141.05875 232.910437 
" clip-path="url(#p9a88be315b)" style="fill: none; stroke: #ff7f0e; stroke-width: 1.5"/>
    <path d="M 177.763281 254.9 
L 177.763281 248.3846 
L 185.919844 248.3846 
L 185.919844 254.9 
" clip-path="url(#p9a88be315b)" style="fill: none; stroke: #ff7f0e; stroke-width: 1.5"/>
    <path d="M 194.076406 254.9 
L 194.076406 247.826605 
L 202.232969 247.826605 
L 202.232969 254.9 
" clip-path="url(#p9a88be315b)" style="fill: none; stroke: #ff7f0e; stroke-width: 1.5"/>
    <path d="M 181.841563 248.3846 
L 181.841563 240.666917 
L 198.154687 240.666917 
L 198.154687 247.826605 
" clip-path="url(#p9a88be315b)" style="fill: none; stroke: #ff7f0e; stroke-width: 1.5"/>
    <path d="M 210.389531 254.9 
L 210.389531 244.135187 
L 218.546094 244.135187 
L 218.546094 254.9 
" clip-path="url(#p9a88be315b)" style="fill: none; stroke: #ff7f0e; stroke-width: 1.5"/>
    <path d="M 226.702656 254.9 
L 226.702656 239.596187 
L 234.859219 239.596187 
L 234.859219 254.9 
" clip-path="url(#p9a88be315b)" style="fill: none; stroke: #ff7f0e; stroke-width: 1.5"/>
    <path d="M 214.467813 244.135187 
L 214.467813 233.57612 
L 230.780937 233.57612 
L 230.780937 239.596187 
" clip-path="url(#p9a88be315b)" style="fill: none; stroke: #ff7f0e; stroke-width: 1.5"/>
    <path d="M 189.998125 240.666917 
L 189.998125 228.41076 
L 222.624375 228.41076 
L 222.624375 233.57612 
" clip-path="url(#p9a88be315b)" style="fill: none; stroke: #ff7f0e; stroke-width: 1.5"/>
    <path d="M 243.015781 254.9 
L 243.015781 245.00656 
L 251.172344 245.00656 
L 251.172344 254.9 
" clip-path="url(#p9a88be315b)" style="fill: none; stroke: #ff7f0e; stroke-width: 1.5"/>
    <path d="M 259.328906 254.9 
L 259.328906 244.454461 
L 267.485469 244.454461 
L 267.485469 254.9 
" clip-path="url(#p9a88be315b)" style="fill: none; stroke: #ff7f0e; stroke-width: 1.5"/>
    <path d="M 247.094063 245.00656 
L 247.094063 240.261377 
L 263.407187 240.261377 
L 263.407187 244.454461 
" clip-path="url(#p9a88be315b)" style="fill: none; stroke: #ff7f0e; stroke-width: 1.5"/>
    <path d="M 275.642031 254.9 
L 275.642031 243.106794 
L 283.798594 243.106794 
L 283.798594 254.9 
" clip-path="url(#p9a88be315b)" style="fill: none; stroke: #ff7f0e; stroke-width: 1.5"/>
    <path d="M 291.955156 254.9 
L 291.955156 237.926526 
L 300.111719 237.926526 
L 300.111719 254.9 
" clip-path="url(#p9a88be315b)" style="fill: none; stroke: #ff7f0e; stroke-width: 1.5"/>
    <path d="M 279.720312 243.106794 
L 279.720312 235.807833 
L 296.033437 235.807833 
L 296.033437 237.926526 
" clip-path="url(#p9a88be315b)" style="fill: none; stroke: #ff7f0e; stroke-width: 1.5"/>
    <path d="M 255.250625 240.261377 
L 255.250625 227.368901 
L 287.876875 227.368901 
L 287.876875 235.807833 
" clip-path="url(#p9a88be315b)" style="fill: none; stroke: #ff7f0e; stroke-width: 1.5"/>
    <path d="M 206.31125 228.41076 
L 206.31125 209.054173 
L 271.56375 209.054173 
L 271.56375 227.368901 
" clip-path="url(#p9a88be315b)" style="fill: none; stroke: #ff7f0e; stroke-width: 1.5"/>
    <path d="M 108.4325 228.157768 
L 108.4325 190.525265 
L 238.9375 190.525265 
L 238.9375 209.054173 
" clip-path="url(#p9a88be315b)" style="fill: none; stroke: #ff7f0e; stroke-width: 1.5"/>
   </g>
   <g id="LineCollection_2">
    <path d="M 308.268281 254.9 
L 308.268281 240.911738 
L 316.424844 240.911738 
L 316.424844 254.9 
" clip-path="url(#p9a88be315b)" style="fill: none; stroke: #2ca02c; stroke-width: 1.5"/>
    <path d="M 324.581406 254.9 
L 324.581406 240.096382 
L 332.737969 240.096382 
L 332.737969 254.9 
" clip-path="url(#p9a88be315b)" style="fill: none; stroke: #2ca02c; stroke-width: 1.5"/>
    <path d="M 312.346563 240.911738 
L 312.346563 233.70351 
L 328.659688 233.70351 
L 328.659688 240.096382 
" clip-path="url(#p9a88be315b)" style="fill: none; stroke: #2ca02c; stroke-width: 1.5"/>
    <path d="M 340.894531 254.9 
L 340.894531 244.948855 
L 349.051094 244.948855 
L 349.051094 254.9 
" clip-path="url(#p9a88be315b)" style="fill: none; stroke: #2ca02c; stroke-width: 1.5"/>
    <path d="M 357.207656 254.9 
L 357.207656 239.786847 
L 365.364219 239.786847 
L 365.364219 254.9 
" clip-path="url(#p9a88be315b)" style="fill: none; stroke: #2ca02c; stroke-width: 1.5"/>
    <path d="M 344.972812 244.948855 
L 344.972812 232.76874 
L 361.285937 232.76874 
L 361.285937 239.786847 
" clip-path="url(#p9a88be315b)" style="fill: none; stroke: #2ca02c; stroke-width: 1.5"/>
    <path d="M 320.503125 233.70351 
L 320.503125 221.376214 
L 353.129375 221.376214 
L 353.129375 232.76874 
" clip-path="url(#p9a88be315b)" style="fill: none; stroke: #2ca02c; stroke-width: 1.5"/>
    <path d="M 373.520781 254.9 
L 373.520781 242.808281 
L 381.677344 242.808281 
L 381.677344 254.9 
" clip-path="url(#p9a88be315b)" style="fill: none; stroke: #2ca02c; stroke-width: 1.5"/>
    <path d="M 389.833906 254.9 
L 389.833906 240.215973 
L 397.990469 240.215973 
L 397.990469 254.9 
" clip-path="url(#p9a88be315b)" style="fill: none; stroke: #2ca02c; stroke-width: 1.5"/>
    <path d="M 377.599063 242.808281 
L 377.599063 239.161997 
L 393.912188 239.161997 
L 393.912188 240.215973 
" clip-path="url(#p9a88be315b)" style="fill: none; stroke: #2ca02c; stroke-width: 1.5"/>
    <path d="M 406.147031 254.9 
L 406.147031 239.922101 
L 414.303594 239.922101 
L 414.303594 254.9 
" clip-path="url(#p9a88be315b)" style="fill: none; stroke: #2ca02c; stroke-width: 1.5"/>
    <path d="M 422.460156 254.9 
L 422.460156 238.704005 
L 430.616719 238.704005 
L 430.616719 254.9 
" clip-path="url(#p9a88be315b)" style="fill: none; stroke: #2ca02c; stroke-width: 1.5"/>
    <path d="M 410.225312 239.922101 
L 410.225312 231.40168 
L 426.538437 231.40168 
L 426.538437 238.704005 
" clip-path="url(#p9a88be315b)" style="fill: none; stroke: #2ca02c; stroke-width: 1.5"/>
    <path d="M 385.755625 239.161997 
L 385.755625 219.329153 
L 418.381875 219.329153 
L 418.381875 231.40168 
" clip-path="url(#p9a88be315b)" style="fill: none; stroke: #2ca02c; stroke-width: 1.5"/>
    <path d="M 336.81625 221.376214 
L 336.81625 194.307639 
L 402.06875 194.307639 
L 402.06875 219.329153 
" clip-path="url(#p9a88be315b)" style="fill: none; stroke: #2ca02c; stroke-width: 1.5"/>
   </g>
   <g id="LineCollection_3">
    <path d="M 438.773281 254.9 
L 438.773281 242.197496 
L 446.929844 242.197496 
L 446.929844 254.9 
" clip-path="url(#p9a88be315b)" style="fill: none; stroke: #d62728; stroke-width: 1.5"/>
    <path d="M 455.086406 254.9 
L 455.086406 235.409778 
L 463.242969 235.409778 
L 463.242969 254.9 
" clip-path="url(#p9a88be315b)" style="fill: none; stroke: #d62728; stroke-width: 1.5"/>
    <path d="M 442.851562 242.197496 
L 442.851562 230.616793 
L 459.164688 230.616793 
L 459.164688 235.409778 
" clip-path="url(#p9a88be315b)" style="fill: none; stroke: #d62728; stroke-width: 1.5"/>
    <path d="M 471.399531 254.9 
L 471.399531 239.14863 
L 479.556094 239.14863 
L 479.556094 254.9 
" clip-path="url(#p9a88be315b)" style="fill: none; stroke: #d62728; stroke-width: 1.5"/>
    <path d="M 487.712656 254.9 
L 487.712656 229.610649 
L 495.869219 229.610649 
L 495.869219 254.9 
" clip-path="url(#p9a88be315b)" style="fill: none; stroke: #d62728; stroke-width: 1.5"/>
    <path d="M 475.477812 239.14863 
L 475.477812 222.828091 
L 491.790937 222.828091 
L 491.790937 229.610649 
" clip-path="url(#p9a88be315b)" style="fill: none; stroke: #d62728; stroke-width: 1.5"/>
    <path d="M 451.008125 230.616793 
L 451.008125 209.278518 
L 483.634375 209.278518 
L 483.634375 222.828091 
" clip-path="url(#p9a88be315b)" style="fill: none; stroke: #d62728; stroke-width: 1.5"/>
    <path d="M 504.025781 254.9 
L 504.025781 241.470321 
L 512.182344 241.470321 
L 512.182344 254.9 
" clip-path="url(#p9a88be315b)" style="fill: none; stroke: #d62728; stroke-width: 1.5"/>
    <path d="M 520.338906 254.9 
L 520.338906 240.904358 
L 528.495469 240.904358 
L 528.495469 254.9 
" clip-path="url(#p9a88be315b)" style="fill: none; stroke: #d62728; stroke-width: 1.5"/>
    <path d="M 508.104062 241.470321 
L 508.104062 233.802566 
L 524.417187 233.802566 
L 524.417187 240.904358 
" clip-path="url(#p9a88be315b)" style="fill: none; stroke: #d62728; stroke-width: 1.5"/>
    <path d="M 536.652031 254.9 
L 536.652031 253.379847 
L 544.808594 253.379847 
L 544.808594 254.9 
" clip-path="url(#p9a88be315b)" style="fill: none; stroke: #d62728; stroke-width: 1.5"/>
    <path d="M 552.965156 254.9 
L 552.965156 224.953955 
L 561.121719 224.953955 
L 561.121719 254.9 
" clip-path="url(#p9a88be315b)" style="fill: none; stroke: #d62728; stroke-width: 1.5"/>
    <path d="M 540.730312 253.379847 
L 540.730312 212.24297 
L 557.043437 212.24297 
L 557.043437 224.953955 
" clip-path="url(#p9a88be315b)" style="fill: none; stroke: #d62728; stroke-width: 1.5"/>
    <path d="M 516.260625 233.802566 
L 516.260625 200.49877 
L 548.886875 200.49877 
L 548.886875 212.24297 
" clip-path="url(#p9a88be315b)" style="fill: none; stroke: #d62728; stroke-width: 1.5"/>
    <path d="M 467.32125 209.278518 
L 467.32125 162.795385 
L 532.57375 162.795385 
L 532.57375 200.49877 
" clip-path="url(#p9a88be315b)" style="fill: none; stroke: #d62728; stroke-width: 1.5"/>
   </g>
   <g id="LineCollection_4">
    <path d="M 369.4425 194.307639 
L 369.4425 102.284896 
L 499.9475 102.284896 
L 499.9475 162.795385 
" clip-path="url(#p9a88be315b)" style="fill: none; stroke: #1f77b4; stroke-width: 1.5"/>
    <path d="M 173.685 190.525265 
L 173.685 37.738095 
L 434.695 37.738095 
L 434.695 102.284896 
" clip-path="url(#p9a88be315b)" style="fill: none; stroke: #1f77b4; stroke-width: 1.5"/>
   </g>
   <g id="patch_3">
    <path d="M 43.18 254.9 
L 43.18 26.88 
" style="fill: none; stroke: #000000; stroke-width: 0.8; stroke-linejoin: miter; stroke-linecap: square"/>
   </g>
   <g id="patch_4">
    <path d="M 565.2 254.9 
L 565.2 26.88 
" style="fill: none; stroke: #000000; stroke-width: 0.8; stroke-linejoin: miter; stroke-linecap: square"/>
   </g>
   <g id="patch_5">
    <path d="M 43.18 254.9 
L 565.2 254.9 
" style="fill: none; stroke: #000000; stroke-width: 0.8; stroke-linejoin: miter; stroke-linecap: square"/>
   </g>
   <g id="patch_6">
    <path d="M 43.18 26.88 
L 565.2 26.88 
" style="fill: none; stroke: #000000; stroke-width: 0.8; stroke-linejoin: miter; stroke-linecap: square"/>
   </g>
   <g id="text_74">
    <!-- Dendrogram (complete linkage) -->
    <g transform="translate(208.26125 20.88) scale(0.12 -0.12)">
     <defs>
      <path id="DejaVuSans-44" d="M 1259 4147 
L 1259 519 
L 2022 519 
Q 2988 519 3436 956 
Q 3884 1394 3884 2338 
Q 3884 3275 3436 3711 
Q 2988 4147 2022 4147 
L 1259 4147 
z
M 628 4666 
L 1925 4666 
Q 3281 4666 3915 4102 
Q 4550 3538 4550 2338 
Q 4550 1131 3912 565 
Q 3275 0 1925 0 
L 628 0 
L 628 4666 
z
" transform="scale(0.015625)"/>
      <path id="DejaVuSans-65" d="M 3597 1894 
L 3597 1613 
L 953 1613 
Q 991 1019 1311 708 
Q 1631 397 2203 397 
Q 2534 397 2845 478 
Q 3156 559 3463 722 
L 3463 178 
Q 3153 47 2828 -22 
Q 2503 -91 2169 -91 
Q 1331 -91 842 396 
Q 353 884 353 1716 
Q 353 2575 817 3079 
Q 1281 3584 2069 3584 
Q 2775 3584 3186 3129 
Q 3597 2675 3597 1894 
z
M 3022 2063 
Q 3016 2534 2758 2815 
Q 2500 3097 2075 3097 
Q 1594 3097 1305 2825 
Q 1016 2553 972 2059 
L 3022 2063 
z
" transform="scale(0.015625)"/>
      <path id="DejaVuSans-6e" d="M 3513 2113 
L 3513 0 
L 2938 0 
L 2938 2094 
Q 2938 2591 2744 2837 
Q 2550 3084 2163 3084 
Q 1697 3084 1428 2787 
Q 1159 2491 1159 1978 
L 1159 0 
L 581 0 
L 581 3500 
L 1159 3500 
L 1159 2956 
Q 1366 3272 1645 3428 
Q 1925 3584 2291 3584 
Q 2894 3584 3203 3211 
Q 3513 2838 3513 2113 
z
" transform="scale(0.015625)"/>
      <path id="DejaVuSans-64" d="M 2906 2969 
L 2906 4863 
L 3481 4863 
L 3481 0 
L 2906 0 
L 2906 525 
Q 2725 213 2448 61 
Q 2172 -91 1784 -91 
Q 1150 -91 751 415 
Q 353 922 353 1747 
Q 353 2572 751 3078 
Q 1150 3584 1784 3584 
Q 2172 3584 2448 3432 
Q 2725 3281 2906 2969 
z
M 947 1747 
Q 947 1113 1208 752 
Q 1469 391 1925 391 
Q 2381 391 2643 752 
Q 2906 1113 2906 1747 
Q 2906 2381 2643 2742 
Q 2381 3103 1925 3103 
Q 1469 3103 1208 2742 
Q 947 2381 947 1747 
z
" transform="scale(0.015625)"/>
      <path id="DejaVuSans-72" d="M 2631 2963 
Q 2534 3019 2420 3045 
Q 2306 3072 2169 3072 
Q 1681 3072 1420 2755 
Q 1159 2438 1159 1844 
L 1159 0 
L 581 0 
L 581 3500 
L 1159 3500 
L 1159 2956 
Q 1341 3275 1631 3429 
Q 1922 3584 2338 3584 
Q 2397 3584 2469 3576 
Q 2541 3569 2628 3553 
L 2631 2963 
z
" transform="scale(0.015625)"/>
      <path id="DejaVuSans-6f" d="M 1959 3097 
Q 1497 3097 1228 2736 
Q 959 2375 959 1747 
Q 959 1119 1226 758 
Q 1494 397 1959 397 
Q 2419 397 2687 759 
Q 2956 1122 2956 1747 
Q 2956 2369 2687 2733 
Q 2419 3097 1959 3097 
z
M 1959 3584 
Q 2709 3584 3137 3096 
Q 3566 2609 3566 1747 
Q 3566 888 3137 398 
Q 2709 -91 1959 -91 
Q 1206 -91 779 398 
Q 353 888 353 1747 
Q 353 2609 779 3096 
Q 1206 3584 1959 3584 
z
" transform="scale(0.015625)"/>
      <path id="DejaVuSans-67" d="M 2906 1791 
Q 2906 2416 2648 2759 
Q 2391 3103 1925 3103 
Q 1463 3103 1205 2759 
Q 947 2416 947 1791 
Q 947 1169 1205 825 
Q 1463 481 1925 481 
Q 2391 481 2648 825 
Q 2906 1169 2906 1791 
z
M 3481 434 
Q 3481 -459 3084 -895 
Q 2688 -1331 1869 -1331 
Q 1566 -1331 1297 -1286 
Q 1028 -1241 775 -1147 
L 775 -588 
Q 1028 -725 1275 -790 
Q 1522 -856 1778 -856 
Q 2344 -856 2625 -561 
Q 2906 -266 2906 331 
L 2906 616 
Q 2728 306 2450 153 
Q 2172 0 1784 0 
Q 1141 0 747 490 
Q 353 981 353 1791 
Q 353 2603 747 3093 
Q 1141 3584 1784 3584 
Q 2172 3584 2450 3431 
Q 2728 3278 2906 2969 
L 2906 3500 
L 3481 3500 
L 3481 434 
z
" transform="scale(0.015625)"/>
      <path id="DejaVuSans-61" d="M 2194 1759 
Q 1497 1759 1228 1600 
Q 959 1441 959 1056 
Q 959 750 1161 570 
Q 1363 391 1709 391 
Q 2188 391 2477 730 
Q 2766 1069 2766 1631 
L 2766 1759 
L 2194 1759 
z
M 3341 1997 
L 3341 0 
L 2766 0 
L 2766 531 
Q 2569 213 2275 61 
Q 1981 -91 1556 -91 
Q 1019 -91 701 211 
Q 384 513 384 1019 
Q 384 1609 779 1909 
Q 1175 2209 1959 2209 
L 2766 2209 
L 2766 2266 
Q 2766 2663 2505 2880 
Q 2244 3097 1772 3097 
Q 1472 3097 1187 3025 
Q 903 2953 641 2809 
L 641 3341 
Q 956 3463 1253 3523 
Q 1550 3584 1831 3584 
Q 2591 3584 2966 3190 
Q 3341 2797 3341 1997 
z
" transform="scale(0.015625)"/>
      <path id="DejaVuSans-6d" d="M 3328 2828 
Q 3544 3216 3844 3400 
Q 4144 3584 4550 3584 
Q 5097 3584 5394 3201 
Q 5691 2819 5691 2113 
L 5691 0 
L 5113 0 
L 5113 2094 
Q 5113 2597 4934 2840 
Q 4756 3084 4391 3084 
Q 3944 3084 3684 2787 
Q 3425 2491 3425 1978 
L 3425 0 
L 2847 0 
L 2847 2094 
Q 2847 2600 2669 2842 
Q 2491 3084 2119 3084 
Q 1678 3084 1418 2786 
Q 1159 2488 1159 1978 
L 1159 0 
L 581 0 
L 581 3500 
L 1159 3500 
L 1159 2956 
Q 1356 3278 1631 3431 
Q 1906 3584 2284 3584 
Q 2666 3584 2933 3390 
Q 3200 3197 3328 2828 
z
" transform="scale(0.015625)"/>
      <path id="DejaVuSans-20" transform="scale(0.015625)"/>
      <path id="DejaVuSans-63" d="M 3122 3366 
L 3122 2828 
Q 2878 2963 2633 3030 
Q 2388 3097 2138 3097 
Q 1578 3097 1268 2742 
Q 959 2388 959 1747 
Q 959 1106 1268 751 
Q 1578 397 2138 397 
Q 2388 397 2633 464 
Q 2878 531 3122 666 
L 3122 134 
Q 2881 22 2623 -34 
Q 2366 -91 2075 -91 
Q 1284 -91 818 406 
Q 353 903 353 1747 
Q 353 2603 823 3093 
Q 1294 3584 2113 3584 
Q 2378 3584 2631 3529 
Q 2884 3475 3122 3366 
z
" transform="scale(0.015625)"/>
      <path id="DejaVuSans-70" d="M 1159 525 
L 1159 -1331 
L 581 -1331 
L 581 3500 
L 1159 3500 
L 1159 2969 
Q 1341 3281 1617 3432 
Q 1894 3584 2278 3584 
Q 2916 3584 3314 3078 
Q 3713 2572 3713 1747 
Q 3713 922 3314 415 
Q 2916 -91 2278 -91 
Q 1894 -91 1617 61 
Q 1341 213 1159 525 
z
M 3116 1747 
Q 3116 2381 2855 2742 
Q 2594 3103 2138 3103 
Q 1681 3103 1420 2742 
Q 1159 2381 1159 1747 
Q 1159 1113 1420 752 
Q 1681 391 2138 391 
Q 2594 391 2855 752 
Q 3116 1113 3116 1747 
z
" transform="scale(0.015625)"/>
      <path id="DejaVuSans-6c" d="M 603 4863 
L 1178 4863 
L 1178 0 
L 603 0 
L 603 4863 
z
" transform="scale(0.015625)"/>
      <path id="DejaVuSans-74" d="M 1172 4494 
L 1172 3500 
L 2356 3500 
L 2356 3053 
L 1172 3053 
L 1172 1153 
Q 1172 725 1289 603 
Q 1406 481 1766 481 
L 2356 481 
L 2356 0 
L 1766 0 
Q 1100 0 847 248 
Q 594 497 594 1153 
L 594 3053 
L 172 3053 
L 172 3500 
L 594 3500 
L 594 4494 
L 1172 4494 
z
" transform="scale(0.015625)"/>
      <path id="DejaVuSans-69" d="M 603 3500 
L 1178 3500 
L 1178 0 
L 603 0 
L 603 3500 
z
M 603 4863 
L 1178 4863 
L 1178 4134 
L 603 4134 
L 603 4863 
z
" transform="scale(0.015625)"/>
      <path id="DejaVuSans-6b" d="M 581 4863 
L 1159 4863 
L 1159 1991 
L 2875 3500 
L 3609 3500 
L 1753 1863 
L 3688 0 
L 2938 0 
L 1159 1709 
L 1159 0 
L 581 0 
L 581 4863 
z
" transform="scale(0.015625)"/>
     </defs>
     <use xlink:href="#DejaVuSans-44"/>
     <use xlink:href="#DejaVuSans-65" x="77.001953"/>
     <use xlink:href="#DejaVuSans-6e" x="138.525391"/>
     <use xlink:href="#DejaVuSans-64" x="201.904297"/>
     <use xlink:href="#DejaVuSans-72" x="265.380859"/>
     <use xlink:href="#DejaVuSans-6f" x="304.244141"/>
     <use xlink:href="#DejaVuSans-67" x="365.425781"/>
     <use xlink:href="#DejaVuSans-72" x="428.902344"/>
     <use xlink:href="#DejaVuSans-61" x="470.015625"/>
     <use xlink:href="#DejaVuSans-6d" x="531.294922"/>
     <use xlink:href="#DejaVuSans-20" x="628.707031"/>
     <use xlink:href="#DejaVuSans-28" x="660.494141"/>
     <use xlink:href="#DejaVuSans-63" x="699.507812"/>
     <use xlink:href="#DejaVuSans-6f" x="754.488281"/>
     <use xlink:href="#DejaVuSans-6d" x="815.669922"/>
     <use xlink:href="#DejaVuSans-70" x="913.082031"/>
     <use xlink:href="#DejaVuSans-6c" x="976.558594"/>
     <use xlink:href="#DejaVuSans-65" x="1004.341797"/>
     <use xlink:href="#DejaVuSans-74" x="1065.865234"/>
     <use xlink:href="#DejaVuSans-65" x="1105.074219"/>
     <use xlink:href="#DejaVuSans-20" x="1166.597656"/>
     <use xlink:href="#DejaVuSans-6c" x="1198.384766"/>
     <use xlink:href="#DejaVuSans-69" x="1226.167969"/>
     <use xlink:href="#DejaVuSans-6e" x="1253.951172"/>
     <use xlink:href="#DejaVuSans-6b" x="1317.330078"/>
     <use xlink:href="#DejaVuSans-61" x="1373.490234"/>
     <use xlink:href="#DejaVuSans-67" x="1434.769531"/>
     <use xlink:href="#DejaVuSans-65" x="1498.246094"/>
     <use xlink:href="#DejaVuSans-29" x="1559.769531"/>
    </g>
   </g>
  </g>
 </g>
 <defs>
  <clipPath id="p9a88be315b">
   <rect x="43.18" y="26.88" width="522.02" height="228.02"/>
  </clipPath>
 </defs>
</svg>
